<?xml version="1.0" encoding="utf-8" standalone="no"?>
<!DOCTYPE svg PUBLIC "-//W3C//DTD SVG 1.1//EN"
  "http://www.w3.org/Graphics/SVG/1.1/DTD/svg11.dtd">
<svg xmlns:xlink="http://www.w3.org/1999/xlink" width="1077.50775pt" height="273.216237pt" viewBox="0 0 1077.50775 273.216237" xmlns="http://www.w3.org/2000/svg" version="1.1">
 <metadata>
  <rdf:RDF xmlns:dc="http://purl.org/dc/elements/1.1/" xmlns:cc="http://creativecommons.org/ns#" xmlns:rdf="http://www.w3.org/1999/02/22-rdf-syntax-ns#">
   <cc:Work>
    <dc:type rdf:resource="http://purl.org/dc/dcmitype/StillImage"/>
    <dc:date>2023-11-02T15:12:01.117667</dc:date>
    <dc:format>image/svg+xml</dc:format>
    <dc:creator>
     <cc:Agent>
      <dc:title>Matplotlib v3.7.1, https://matplotlib.org/</dc:title>
     </cc:Agent>
    </dc:creator>
   </cc:Work>
  </rdf:RDF>
 </metadata>
 <defs>
  <style type="text/css">*{stroke-linejoin: round; stroke-linecap: butt}</style>
 </defs>
 <g id="figure_1">
  <g id="patch_1">
   <path d="M 0 273.216237 
L 1077.50775 273.216237 
L 1077.50775 0 
L 0 0 
z
" style="fill: #ffffff"/>
  </g>
  <g id="axes_1">
   <g id="patch_2">
    <path d="M 65.90775 228.96 
L 1070.30775 228.96 
L 1070.30775 7.2 
L 65.90775 7.2 
z
" style="fill: #eaeaf2"/>
   </g>
   <g id="matplotlib.axis_1">
    <g id="xtick_1">
     <g id="line2d_1">
      <path d="M 149.60775 228.96 
L 149.60775 7.2 
" clip-path="url(#pe2b6058985)" style="fill: none; stroke: #ffffff; stroke-linecap: round"/>
     </g>
     <g id="text_1">
      <!-- top-down -->
      <g style="fill: #262626" transform="translate(118.602188 248.489937) scale(0.132 -0.132)">
       <defs>
        <path id="DejaVuSans-74" d="M 1172 4494 
L 1172 3500 
L 2356 3500 
L 2356 3053 
L 1172 3053 
L 1172 1153 
Q 1172 725 1289 603 
Q 1406 481 1766 481 
L 2356 481 
L 2356 0 
L 1766 0 
Q 1100 0 847 248 
Q 594 497 594 1153 
L 594 3053 
L 172 3053 
L 172 3500 
L 594 3500 
L 594 4494 
L 1172 4494 
z
" transform="scale(0.015625)"/>
        <path id="DejaVuSans-6f" d="M 1959 3097 
Q 1497 3097 1228 2736 
Q 959 2375 959 1747 
Q 959 1119 1226 758 
Q 1494 397 1959 397 
Q 2419 397 2687 759 
Q 2956 1122 2956 1747 
Q 2956 2369 2687 2733 
Q 2419 3097 1959 3097 
z
M 1959 3584 
Q 2709 3584 3137 3096 
Q 3566 2609 3566 1747 
Q 3566 888 3137 398 
Q 2709 -91 1959 -91 
Q 1206 -91 779 398 
Q 353 888 353 1747 
Q 353 2609 779 3096 
Q 1206 3584 1959 3584 
z
" transform="scale(0.015625)"/>
        <path id="DejaVuSans-70" d="M 1159 525 
L 1159 -1331 
L 581 -1331 
L 581 3500 
L 1159 3500 
L 1159 2969 
Q 1341 3281 1617 3432 
Q 1894 3584 2278 3584 
Q 2916 3584 3314 3078 
Q 3713 2572 3713 1747 
Q 3713 922 3314 415 
Q 2916 -91 2278 -91 
Q 1894 -91 1617 61 
Q 1341 213 1159 525 
z
M 3116 1747 
Q 3116 2381 2855 2742 
Q 2594 3103 2138 3103 
Q 1681 3103 1420 2742 
Q 1159 2381 1159 1747 
Q 1159 1113 1420 752 
Q 1681 391 2138 391 
Q 2594 391 2855 752 
Q 3116 1113 3116 1747 
z
" transform="scale(0.015625)"/>
        <path id="DejaVuSans-2d" d="M 313 2009 
L 1997 2009 
L 1997 1497 
L 313 1497 
L 313 2009 
z
" transform="scale(0.015625)"/>
        <path id="DejaVuSans-64" d="M 2906 2969 
L 2906 4863 
L 3481 4863 
L 3481 0 
L 2906 0 
L 2906 525 
Q 2725 213 2448 61 
Q 2172 -91 1784 -91 
Q 1150 -91 751 415 
Q 353 922 353 1747 
Q 353 2572 751 3078 
Q 1150 3584 1784 3584 
Q 2172 3584 2448 3432 
Q 2725 3281 2906 2969 
z
M 947 1747 
Q 947 1113 1208 752 
Q 1469 391 1925 391 
Q 2381 391 2643 752 
Q 2906 1113 2906 1747 
Q 2906 2381 2643 2742 
Q 2381 3103 1925 3103 
Q 1469 3103 1208 2742 
Q 947 2381 947 1747 
z
" transform="scale(0.015625)"/>
        <path id="DejaVuSans-77" d="M 269 3500 
L 844 3500 
L 1563 769 
L 2278 3500 
L 2956 3500 
L 3675 769 
L 4391 3500 
L 4966 3500 
L 4050 0 
L 3372 0 
L 2619 2869 
L 1863 0 
L 1184 0 
L 269 3500 
z
" transform="scale(0.015625)"/>
        <path id="DejaVuSans-6e" d="M 3513 2113 
L 3513 0 
L 2938 0 
L 2938 2094 
Q 2938 2591 2744 2837 
Q 2550 3084 2163 3084 
Q 1697 3084 1428 2787 
Q 1159 2491 1159 1978 
L 1159 0 
L 581 0 
L 581 3500 
L 1159 3500 
L 1159 2956 
Q 1366 3272 1645 3428 
Q 1925 3584 2291 3584 
Q 2894 3584 3203 3211 
Q 3513 2838 3513 2113 
z
" transform="scale(0.015625)"/>
       </defs>
       <use xlink:href="#DejaVuSans-74"/>
       <use xlink:href="#DejaVuSans-6f" x="39.208984"/>
       <use xlink:href="#DejaVuSans-70" x="100.390625"/>
       <use xlink:href="#DejaVuSans-2d" x="163.867188"/>
       <use xlink:href="#DejaVuSans-64" x="199.951172"/>
       <use xlink:href="#DejaVuSans-6f" x="263.427734"/>
       <use xlink:href="#DejaVuSans-77" x="324.609375"/>
       <use xlink:href="#DejaVuSans-6e" x="406.396484"/>
      </g>
     </g>
    </g>
    <g id="xtick_2">
     <g id="line2d_2">
      <path d="M 317.00775 228.96 
L 317.00775 7.2 
" clip-path="url(#pe2b6058985)" style="fill: none; stroke: #ffffff; stroke-linecap: round"/>
     </g>
     <g id="text_2">
      <!-- top-down -->
      <g style="fill: #262626" transform="translate(286.002188 248.489937) scale(0.132 -0.132)">
       <use xlink:href="#DejaVuSans-74"/>
       <use xlink:href="#DejaVuSans-6f" x="39.208984"/>
       <use xlink:href="#DejaVuSans-70" x="100.390625"/>
       <use xlink:href="#DejaVuSans-2d" x="163.867188"/>
       <use xlink:href="#DejaVuSans-64" x="199.951172"/>
       <use xlink:href="#DejaVuSans-6f" x="263.427734"/>
       <use xlink:href="#DejaVuSans-77" x="324.609375"/>
       <use xlink:href="#DejaVuSans-6e" x="406.396484"/>
      </g>
      <!-- stress -->
      <g style="fill: #262626" transform="translate(297.48 263.27105) scale(0.132 -0.132)">
       <defs>
        <path id="DejaVuSans-73" d="M 2834 3397 
L 2834 2853 
Q 2591 2978 2328 3040 
Q 2066 3103 1784 3103 
Q 1356 3103 1142 2972 
Q 928 2841 928 2578 
Q 928 2378 1081 2264 
Q 1234 2150 1697 2047 
L 1894 2003 
Q 2506 1872 2764 1633 
Q 3022 1394 3022 966 
Q 3022 478 2636 193 
Q 2250 -91 1575 -91 
Q 1294 -91 989 -36 
Q 684 19 347 128 
L 347 722 
Q 666 556 975 473 
Q 1284 391 1588 391 
Q 1994 391 2212 530 
Q 2431 669 2431 922 
Q 2431 1156 2273 1281 
Q 2116 1406 1581 1522 
L 1381 1569 
Q 847 1681 609 1914 
Q 372 2147 372 2553 
Q 372 3047 722 3315 
Q 1072 3584 1716 3584 
Q 2034 3584 2315 3537 
Q 2597 3491 2834 3397 
z
" transform="scale(0.015625)"/>
        <path id="DejaVuSans-72" d="M 2631 2963 
Q 2534 3019 2420 3045 
Q 2306 3072 2169 3072 
Q 1681 3072 1420 2755 
Q 1159 2438 1159 1844 
L 1159 0 
L 581 0 
L 581 3500 
L 1159 3500 
L 1159 2956 
Q 1341 3275 1631 3429 
Q 1922 3584 2338 3584 
Q 2397 3584 2469 3576 
Q 2541 3569 2628 3553 
L 2631 2963 
z
" transform="scale(0.015625)"/>
        <path id="DejaVuSans-65" d="M 3597 1894 
L 3597 1613 
L 953 1613 
Q 991 1019 1311 708 
Q 1631 397 2203 397 
Q 2534 397 2845 478 
Q 3156 559 3463 722 
L 3463 178 
Q 3153 47 2828 -22 
Q 2503 -91 2169 -91 
Q 1331 -91 842 396 
Q 353 884 353 1716 
Q 353 2575 817 3079 
Q 1281 3584 2069 3584 
Q 2775 3584 3186 3129 
Q 3597 2675 3597 1894 
z
M 3022 2063 
Q 3016 2534 2758 2815 
Q 2500 3097 2075 3097 
Q 1594 3097 1305 2825 
Q 1016 2553 972 2059 
L 3022 2063 
z
" transform="scale(0.015625)"/>
       </defs>
       <use xlink:href="#DejaVuSans-73"/>
       <use xlink:href="#DejaVuSans-74" x="52.099609"/>
       <use xlink:href="#DejaVuSans-72" x="91.308594"/>
       <use xlink:href="#DejaVuSans-65" x="130.171875"/>
       <use xlink:href="#DejaVuSans-73" x="191.695312"/>
       <use xlink:href="#DejaVuSans-73" x="243.794922"/>
      </g>
     </g>
    </g>
    <g id="xtick_3">
     <g id="line2d_3">
      <path d="M 484.40775 228.96 
L 484.40775 7.2 
" clip-path="url(#pe2b6058985)" style="fill: none; stroke: #ffffff; stroke-linecap: round"/>
     </g>
     <g id="text_3">
      <!-- bottom-up -->
      <g style="fill: #262626" transform="translate(449.783531 248.489937) scale(0.132 -0.132)">
       <defs>
        <path id="DejaVuSans-62" d="M 3116 1747 
Q 3116 2381 2855 2742 
Q 2594 3103 2138 3103 
Q 1681 3103 1420 2742 
Q 1159 2381 1159 1747 
Q 1159 1113 1420 752 
Q 1681 391 2138 391 
Q 2594 391 2855 752 
Q 3116 1113 3116 1747 
z
M 1159 2969 
Q 1341 3281 1617 3432 
Q 1894 3584 2278 3584 
Q 2916 3584 3314 3078 
Q 3713 2572 3713 1747 
Q 3713 922 3314 415 
Q 2916 -91 2278 -91 
Q 1894 -91 1617 61 
Q 1341 213 1159 525 
L 1159 0 
L 581 0 
L 581 4863 
L 1159 4863 
L 1159 2969 
z
" transform="scale(0.015625)"/>
        <path id="DejaVuSans-6d" d="M 3328 2828 
Q 3544 3216 3844 3400 
Q 4144 3584 4550 3584 
Q 5097 3584 5394 3201 
Q 5691 2819 5691 2113 
L 5691 0 
L 5113 0 
L 5113 2094 
Q 5113 2597 4934 2840 
Q 4756 3084 4391 3084 
Q 3944 3084 3684 2787 
Q 3425 2491 3425 1978 
L 3425 0 
L 2847 0 
L 2847 2094 
Q 2847 2600 2669 2842 
Q 2491 3084 2119 3084 
Q 1678 3084 1418 2786 
Q 1159 2488 1159 1978 
L 1159 0 
L 581 0 
L 581 3500 
L 1159 3500 
L 1159 2956 
Q 1356 3278 1631 3431 
Q 1906 3584 2284 3584 
Q 2666 3584 2933 3390 
Q 3200 3197 3328 2828 
z
" transform="scale(0.015625)"/>
        <path id="DejaVuSans-75" d="M 544 1381 
L 544 3500 
L 1119 3500 
L 1119 1403 
Q 1119 906 1312 657 
Q 1506 409 1894 409 
Q 2359 409 2629 706 
Q 2900 1003 2900 1516 
L 2900 3500 
L 3475 3500 
L 3475 0 
L 2900 0 
L 2900 538 
Q 2691 219 2414 64 
Q 2138 -91 1772 -91 
Q 1169 -91 856 284 
Q 544 659 544 1381 
z
M 1991 3584 
L 1991 3584 
z
" transform="scale(0.015625)"/>
       </defs>
       <use xlink:href="#DejaVuSans-62"/>
       <use xlink:href="#DejaVuSans-6f" x="63.476562"/>
       <use xlink:href="#DejaVuSans-74" x="124.658203"/>
       <use xlink:href="#DejaVuSans-74" x="163.867188"/>
       <use xlink:href="#DejaVuSans-6f" x="203.076172"/>
       <use xlink:href="#DejaVuSans-6d" x="264.257812"/>
       <use xlink:href="#DejaVuSans-2d" x="361.669922"/>
       <use xlink:href="#DejaVuSans-75" x="397.753906"/>
       <use xlink:href="#DejaVuSans-70" x="461.132812"/>
      </g>
     </g>
    </g>
    <g id="xtick_4">
     <g id="line2d_4">
      <path d="M 651.80775 228.96 
L 651.80775 7.2 
" clip-path="url(#pe2b6058985)" style="fill: none; stroke: #ffffff; stroke-linecap: round"/>
     </g>
     <g id="text_4">
      <!-- bottom-up -->
      <g style="fill: #262626" transform="translate(617.183531 248.489937) scale(0.132 -0.132)">
       <use xlink:href="#DejaVuSans-62"/>
       <use xlink:href="#DejaVuSans-6f" x="63.476562"/>
       <use xlink:href="#DejaVuSans-74" x="124.658203"/>
       <use xlink:href="#DejaVuSans-74" x="163.867188"/>
       <use xlink:href="#DejaVuSans-6f" x="203.076172"/>
       <use xlink:href="#DejaVuSans-6d" x="264.257812"/>
       <use xlink:href="#DejaVuSans-2d" x="361.669922"/>
       <use xlink:href="#DejaVuSans-75" x="397.753906"/>
       <use xlink:href="#DejaVuSans-70" x="461.132812"/>
      </g>
      <!-- stress -->
      <g style="fill: #262626" transform="translate(632.28 263.27105) scale(0.132 -0.132)">
       <use xlink:href="#DejaVuSans-73"/>
       <use xlink:href="#DejaVuSans-74" x="52.099609"/>
       <use xlink:href="#DejaVuSans-72" x="91.308594"/>
       <use xlink:href="#DejaVuSans-65" x="130.171875"/>
       <use xlink:href="#DejaVuSans-73" x="191.695312"/>
       <use xlink:href="#DejaVuSans-73" x="243.794922"/>
      </g>
     </g>
    </g>
    <g id="xtick_5">
     <g id="line2d_5">
      <path d="M 819.20775 228.96 
L 819.20775 7.2 
" clip-path="url(#pe2b6058985)" style="fill: none; stroke: #ffffff; stroke-linecap: round"/>
     </g>
     <g id="text_5">
      <!-- nemo -->
      <g style="fill: #262626" transform="translate(800.49675 248.489937) scale(0.132 -0.132)">
       <use xlink:href="#DejaVuSans-6e"/>
       <use xlink:href="#DejaVuSans-65" x="63.378906"/>
       <use xlink:href="#DejaVuSans-6d" x="124.902344"/>
       <use xlink:href="#DejaVuSans-6f" x="222.314453"/>
      </g>
     </g>
    </g>
    <g id="xtick_6">
     <g id="line2d_6">
      <path d="M 986.60775 228.96 
L 986.60775 7.2 
" clip-path="url(#pe2b6058985)" style="fill: none; stroke: #ffffff; stroke-linecap: round"/>
     </g>
     <g id="text_6">
      <!-- nemo -->
      <g style="fill: #262626" transform="translate(967.89675 248.489937) scale(0.132 -0.132)">
       <use xlink:href="#DejaVuSans-6e"/>
       <use xlink:href="#DejaVuSans-65" x="63.378906"/>
       <use xlink:href="#DejaVuSans-6d" x="124.902344"/>
       <use xlink:href="#DejaVuSans-6f" x="222.314453"/>
      </g>
      <!-- stress -->
      <g style="fill: #262626" transform="translate(967.08 263.27105) scale(0.132 -0.132)">
       <use xlink:href="#DejaVuSans-73"/>
       <use xlink:href="#DejaVuSans-74" x="52.099609"/>
       <use xlink:href="#DejaVuSans-72" x="91.308594"/>
       <use xlink:href="#DejaVuSans-65" x="130.171875"/>
       <use xlink:href="#DejaVuSans-73" x="191.695312"/>
       <use xlink:href="#DejaVuSans-73" x="243.794922"/>
      </g>
     </g>
    </g>
   </g>
   <g id="matplotlib.axis_2">
    <g id="ytick_1">
     <g id="line2d_7">
      <path d="M 65.90775 219.778218 
L 1070.30775 219.778218 
" clip-path="url(#pe2b6058985)" style="fill: none; stroke: #ffffff; stroke-linecap: round"/>
     </g>
     <g id="text_7">
      <!-- 0 -->
      <g style="fill: #262626" transform="translate(48.00925 224.793187) scale(0.132 -0.132)">
       <defs>
        <path id="DejaVuSans-30" d="M 2034 4250 
Q 1547 4250 1301 3770 
Q 1056 3291 1056 2328 
Q 1056 1369 1301 889 
Q 1547 409 2034 409 
Q 2525 409 2770 889 
Q 3016 1369 3016 2328 
Q 3016 3291 2770 3770 
Q 2525 4250 2034 4250 
z
M 2034 4750 
Q 2819 4750 3233 4129 
Q 3647 3509 3647 2328 
Q 3647 1150 3233 529 
Q 2819 -91 2034 -91 
Q 1250 -91 836 529 
Q 422 1150 422 2328 
Q 422 3509 836 4129 
Q 1250 4750 2034 4750 
z
" transform="scale(0.015625)"/>
       </defs>
       <use xlink:href="#DejaVuSans-30"/>
      </g>
     </g>
    </g>
    <g id="ytick_2">
     <g id="line2d_8">
      <path d="M 65.90775 169.877228 
L 1070.30775 169.877228 
" clip-path="url(#pe2b6058985)" style="fill: none; stroke: #ffffff; stroke-linecap: round"/>
     </g>
     <g id="text_8">
      <!-- 500 -->
      <g style="fill: #262626" transform="translate(31.21225 174.892196) scale(0.132 -0.132)">
       <defs>
        <path id="DejaVuSans-35" d="M 691 4666 
L 3169 4666 
L 3169 4134 
L 1269 4134 
L 1269 2991 
Q 1406 3038 1543 3061 
Q 1681 3084 1819 3084 
Q 2600 3084 3056 2656 
Q 3513 2228 3513 1497 
Q 3513 744 3044 326 
Q 2575 -91 1722 -91 
Q 1428 -91 1123 -41 
Q 819 9 494 109 
L 494 744 
Q 775 591 1075 516 
Q 1375 441 1709 441 
Q 2250 441 2565 725 
Q 2881 1009 2881 1497 
Q 2881 1984 2565 2268 
Q 2250 2553 1709 2553 
Q 1456 2553 1204 2497 
Q 953 2441 691 2322 
L 691 4666 
z
" transform="scale(0.015625)"/>
       </defs>
       <use xlink:href="#DejaVuSans-35"/>
       <use xlink:href="#DejaVuSans-30" x="63.623047"/>
       <use xlink:href="#DejaVuSans-30" x="127.246094"/>
      </g>
     </g>
    </g>
    <g id="ytick_3">
     <g id="line2d_9">
      <path d="M 65.90775 119.976238 
L 1070.30775 119.976238 
" clip-path="url(#pe2b6058985)" style="fill: none; stroke: #ffffff; stroke-linecap: round"/>
     </g>
     <g id="text_9">
      <!-- 1000 -->
      <g style="fill: #262626" transform="translate(22.81375 124.991206) scale(0.132 -0.132)">
       <defs>
        <path id="DejaVuSans-31" d="M 794 531 
L 1825 531 
L 1825 4091 
L 703 3866 
L 703 4441 
L 1819 4666 
L 2450 4666 
L 2450 531 
L 3481 531 
L 3481 0 
L 794 0 
L 794 531 
z
" transform="scale(0.015625)"/>
       </defs>
       <use xlink:href="#DejaVuSans-31"/>
       <use xlink:href="#DejaVuSans-30" x="63.623047"/>
       <use xlink:href="#DejaVuSans-30" x="127.246094"/>
       <use xlink:href="#DejaVuSans-30" x="190.869141"/>
      </g>
     </g>
    </g>
    <g id="ytick_4">
     <g id="line2d_10">
      <path d="M 65.90775 70.075248 
L 1070.30775 70.075248 
" clip-path="url(#pe2b6058985)" style="fill: none; stroke: #ffffff; stroke-linecap: round"/>
     </g>
     <g id="text_10">
      <!-- 1500 -->
      <g style="fill: #262626" transform="translate(22.81375 75.090216) scale(0.132 -0.132)">
       <use xlink:href="#DejaVuSans-31"/>
       <use xlink:href="#DejaVuSans-35" x="63.623047"/>
       <use xlink:href="#DejaVuSans-30" x="127.246094"/>
       <use xlink:href="#DejaVuSans-30" x="190.869141"/>
      </g>
     </g>
    </g>
    <g id="ytick_5">
     <g id="line2d_11">
      <path d="M 65.90775 20.174257 
L 1070.30775 20.174257 
" clip-path="url(#pe2b6058985)" style="fill: none; stroke: #ffffff; stroke-linecap: round"/>
     </g>
     <g id="text_11">
      <!-- 2000 -->
      <g style="fill: #262626" transform="translate(22.81375 25.189226) scale(0.132 -0.132)">
       <defs>
        <path id="DejaVuSans-32" d="M 1228 531 
L 3431 531 
L 3431 0 
L 469 0 
L 469 531 
Q 828 903 1448 1529 
Q 2069 2156 2228 2338 
Q 2531 2678 2651 2914 
Q 2772 3150 2772 3378 
Q 2772 3750 2511 3984 
Q 2250 4219 1831 4219 
Q 1534 4219 1204 4116 
Q 875 4013 500 3803 
L 500 4441 
Q 881 4594 1212 4672 
Q 1544 4750 1819 4750 
Q 2544 4750 2975 4387 
Q 3406 4025 3406 3419 
Q 3406 3131 3298 2873 
Q 3191 2616 2906 2266 
Q 2828 2175 2409 1742 
Q 1991 1309 1228 531 
z
" transform="scale(0.015625)"/>
       </defs>
       <use xlink:href="#DejaVuSans-32"/>
       <use xlink:href="#DejaVuSans-30" x="63.623047"/>
       <use xlink:href="#DejaVuSans-30" x="127.246094"/>
       <use xlink:href="#DejaVuSans-30" x="190.869141"/>
      </g>
     </g>
    </g>
    <g id="text_12">
     <!-- latency (ms) -->
     <g style="fill: #262626" transform="translate(16.318125 155.679375) rotate(-90) scale(0.12 -0.12)">
      <defs>
       <path id="DejaVuSans-6c" d="M 603 4863 
L 1178 4863 
L 1178 0 
L 603 0 
L 603 4863 
z
" transform="scale(0.015625)"/>
       <path id="DejaVuSans-61" d="M 2194 1759 
Q 1497 1759 1228 1600 
Q 959 1441 959 1056 
Q 959 750 1161 570 
Q 1363 391 1709 391 
Q 2188 391 2477 730 
Q 2766 1069 2766 1631 
L 2766 1759 
L 2194 1759 
z
M 3341 1997 
L 3341 0 
L 2766 0 
L 2766 531 
Q 2569 213 2275 61 
Q 1981 -91 1556 -91 
Q 1019 -91 701 211 
Q 384 513 384 1019 
Q 384 1609 779 1909 
Q 1175 2209 1959 2209 
L 2766 2209 
L 2766 2266 
Q 2766 2663 2505 2880 
Q 2244 3097 1772 3097 
Q 1472 3097 1187 3025 
Q 903 2953 641 2809 
L 641 3341 
Q 956 3463 1253 3523 
Q 1550 3584 1831 3584 
Q 2591 3584 2966 3190 
Q 3341 2797 3341 1997 
z
" transform="scale(0.015625)"/>
       <path id="DejaVuSans-63" d="M 3122 3366 
L 3122 2828 
Q 2878 2963 2633 3030 
Q 2388 3097 2138 3097 
Q 1578 3097 1268 2742 
Q 959 2388 959 1747 
Q 959 1106 1268 751 
Q 1578 397 2138 397 
Q 2388 397 2633 464 
Q 2878 531 3122 666 
L 3122 134 
Q 2881 22 2623 -34 
Q 2366 -91 2075 -91 
Q 1284 -91 818 406 
Q 353 903 353 1747 
Q 353 2603 823 3093 
Q 1294 3584 2113 3584 
Q 2378 3584 2631 3529 
Q 2884 3475 3122 3366 
z
" transform="scale(0.015625)"/>
       <path id="DejaVuSans-79" d="M 2059 -325 
Q 1816 -950 1584 -1140 
Q 1353 -1331 966 -1331 
L 506 -1331 
L 506 -850 
L 844 -850 
Q 1081 -850 1212 -737 
Q 1344 -625 1503 -206 
L 1606 56 
L 191 3500 
L 800 3500 
L 1894 763 
L 2988 3500 
L 3597 3500 
L 2059 -325 
z
" transform="scale(0.015625)"/>
       <path id="DejaVuSans-20" transform="scale(0.015625)"/>
       <path id="DejaVuSans-28" d="M 1984 4856 
Q 1566 4138 1362 3434 
Q 1159 2731 1159 2009 
Q 1159 1288 1364 580 
Q 1569 -128 1984 -844 
L 1484 -844 
Q 1016 -109 783 600 
Q 550 1309 550 2009 
Q 550 2706 781 3412 
Q 1013 4119 1484 4856 
L 1984 4856 
z
" transform="scale(0.015625)"/>
       <path id="DejaVuSans-29" d="M 513 4856 
L 1013 4856 
Q 1481 4119 1714 3412 
Q 1947 2706 1947 2009 
Q 1947 1309 1714 600 
Q 1481 -109 1013 -844 
L 513 -844 
Q 928 -128 1133 580 
Q 1338 1288 1338 2009 
Q 1338 2731 1133 3434 
Q 928 4138 513 4856 
z
" transform="scale(0.015625)"/>
      </defs>
      <use xlink:href="#DejaVuSans-6c"/>
      <use xlink:href="#DejaVuSans-61" x="27.783203"/>
      <use xlink:href="#DejaVuSans-74" x="89.0625"/>
      <use xlink:href="#DejaVuSans-65" x="128.271484"/>
      <use xlink:href="#DejaVuSans-6e" x="189.794922"/>
      <use xlink:href="#DejaVuSans-63" x="253.173828"/>
      <use xlink:href="#DejaVuSans-79" x="308.154297"/>
      <use xlink:href="#DejaVuSans-20" x="367.333984"/>
      <use xlink:href="#DejaVuSans-28" x="399.121094"/>
      <use xlink:href="#DejaVuSans-6d" x="438.134766"/>
      <use xlink:href="#DejaVuSans-73" x="535.546875"/>
      <use xlink:href="#DejaVuSans-29" x="587.646484"/>
     </g>
    </g>
   </g>
   <g id="line2d_12">
    <path d="M 107.75775 94.726337 
L 191.45775 94.726337 
L 191.45775 42.230495 
L 107.75775 42.230495 
L 107.75775 94.726337 
" clip-path="url(#pe2b6058985)" style="fill: none; stroke: #000000; stroke-linecap: round"/>
   </g>
   <g id="line2d_13">
    <path d="M 149.60775 94.726337 
L 149.60775 117.980198 
" clip-path="url(#pe2b6058985)" style="fill: none; stroke: #000000; stroke-linecap: round"/>
   </g>
   <g id="line2d_14">
    <path d="M 149.60775 42.230495 
L 149.60775 17.379802 
" clip-path="url(#pe2b6058985)" style="fill: none; stroke: #000000; stroke-linecap: round"/>
   </g>
   <g id="line2d_15">
    <path d="M 128.68275 117.980198 
L 170.53275 117.980198 
" clip-path="url(#pe2b6058985)" style="fill: none; stroke: #000000; stroke-linecap: round"/>
   </g>
   <g id="line2d_16">
    <path d="M 128.68275 17.379802 
L 170.53275 17.379802 
" clip-path="url(#pe2b6058985)" style="fill: none; stroke: #000000; stroke-linecap: round"/>
   </g>
   <g id="line2d_17"/>
   <g id="line2d_18">
    <path d="M 275.15775 94.227327 
L 358.85775 94.227327 
L 358.85775 45.324356 
L 275.15775 45.324356 
L 275.15775 94.227327 
" clip-path="url(#pe2b6058985)" style="fill: none; stroke: #000000; stroke-linecap: round"/>
   </g>
   <g id="line2d_19">
    <path d="M 317.00775 94.227327 
L 317.00775 117.08198 
" clip-path="url(#pe2b6058985)" style="fill: none; stroke: #000000; stroke-linecap: round"/>
   </g>
   <g id="line2d_20">
    <path d="M 317.00775 45.324356 
L 317.00775 17.28 
" clip-path="url(#pe2b6058985)" style="fill: none; stroke: #000000; stroke-linecap: round"/>
   </g>
   <g id="line2d_21">
    <path d="M 296.08275 117.08198 
L 337.93275 117.08198 
" clip-path="url(#pe2b6058985)" style="fill: none; stroke: #000000; stroke-linecap: round"/>
   </g>
   <g id="line2d_22">
    <path d="M 296.08275 17.28 
L 337.93275 17.28 
" clip-path="url(#pe2b6058985)" style="fill: none; stroke: #000000; stroke-linecap: round"/>
   </g>
   <g id="line2d_23"/>
   <g id="line2d_24">
    <path d="M 442.55775 218.181386 
L 526.25775 218.181386 
L 526.25775 217.482772 
L 442.55775 217.482772 
L 442.55775 218.181386 
" clip-path="url(#pe2b6058985)" style="fill: none; stroke: #000000; stroke-linecap: round"/>
   </g>
   <g id="line2d_25">
    <path d="M 484.40775 218.181386 
L 484.40775 218.680396 
" clip-path="url(#pe2b6058985)" style="fill: none; stroke: #000000; stroke-linecap: round"/>
   </g>
   <g id="line2d_26">
    <path d="M 484.40775 217.482772 
L 484.40775 216.584554 
" clip-path="url(#pe2b6058985)" style="fill: none; stroke: #000000; stroke-linecap: round"/>
   </g>
   <g id="line2d_27">
    <path d="M 463.48275 218.680396 
L 505.33275 218.680396 
" clip-path="url(#pe2b6058985)" style="fill: none; stroke: #000000; stroke-linecap: round"/>
   </g>
   <g id="line2d_28">
    <path d="M 463.48275 216.584554 
L 505.33275 216.584554 
" clip-path="url(#pe2b6058985)" style="fill: none; stroke: #000000; stroke-linecap: round"/>
   </g>
   <g id="line2d_29">
    <defs>
     <path id="m5816964db6" d="M 0 3 
C 0.795609 3 1.55874 2.683901 2.12132 2.12132 
C 2.683901 1.55874 3 0.795609 3 0 
C 3 -0.795609 2.683901 -1.55874 2.12132 -2.12132 
C 1.55874 -2.683901 0.795609 -3 0 -3 
C -0.795609 -3 -1.55874 -2.683901 -2.12132 -2.12132 
C -2.683901 -1.55874 -3 -0.795609 -3 0 
C -3 0.795609 -2.683901 1.55874 -2.12132 2.12132 
C -1.55874 2.683901 -0.795609 3 0 3 
z
" style="stroke: #000000"/>
    </defs>
    <g clip-path="url(#pe2b6058985)">
     <use xlink:href="#m5816964db6" x="484.40775" y="215.985743" style="fill-opacity: 0; stroke: #000000"/>
     <use xlink:href="#m5816964db6" x="484.40775" y="215.885941" style="fill-opacity: 0; stroke: #000000"/>
     <use xlink:href="#m5816964db6" x="484.40775" y="215.686337" style="fill-opacity: 0; stroke: #000000"/>
     <use xlink:href="#m5816964db6" x="484.40775" y="215.586535" style="fill-opacity: 0; stroke: #000000"/>
     <use xlink:href="#m5816964db6" x="484.40775" y="215.486733" style="fill-opacity: 0; stroke: #000000"/>
     <use xlink:href="#m5816964db6" x="484.40775" y="216.285149" style="fill-opacity: 0; stroke: #000000"/>
     <use xlink:href="#m5816964db6" x="484.40775" y="216.185347" style="fill-opacity: 0; stroke: #000000"/>
     <use xlink:href="#m5816964db6" x="484.40775" y="216.085545" style="fill-opacity: 0; stroke: #000000"/>
     <use xlink:href="#m5816964db6" x="484.40775" y="215.885941" style="fill-opacity: 0; stroke: #000000"/>
    </g>
   </g>
   <g id="line2d_30">
    <path d="M 609.95775 216.983762 
L 693.65775 216.983762 
L 693.65775 215.786139 
L 609.95775 215.786139 
L 609.95775 216.983762 
" clip-path="url(#pe2b6058985)" style="fill: none; stroke: #000000; stroke-linecap: round"/>
   </g>
   <g id="line2d_31">
    <path d="M 651.80775 216.983762 
L 651.80775 218.38099 
" clip-path="url(#pe2b6058985)" style="fill: none; stroke: #000000; stroke-linecap: round"/>
   </g>
   <g id="line2d_32">
    <path d="M 651.80775 215.786139 
L 651.80775 213.989703 
" clip-path="url(#pe2b6058985)" style="fill: none; stroke: #000000; stroke-linecap: round"/>
   </g>
   <g id="line2d_33">
    <path d="M 630.88275 218.38099 
L 672.73275 218.38099 
" clip-path="url(#pe2b6058985)" style="fill: none; stroke: #000000; stroke-linecap: round"/>
   </g>
   <g id="line2d_34">
    <path d="M 630.88275 213.989703 
L 672.73275 213.989703 
" clip-path="url(#pe2b6058985)" style="fill: none; stroke: #000000; stroke-linecap: round"/>
   </g>
   <g id="line2d_35">
    <g clip-path="url(#pe2b6058985)">
     <use xlink:href="#m5816964db6" x="651.80775" y="213.889901" style="fill-opacity: 0; stroke: #000000"/>
     <use xlink:href="#m5816964db6" x="651.80775" y="213.191287" style="fill-opacity: 0; stroke: #000000"/>
     <use xlink:href="#m5816964db6" x="651.80775" y="211.195248" style="fill-opacity: 0; stroke: #000000"/>
     <use xlink:href="#m5816964db6" x="651.80775" y="211.095446" style="fill-opacity: 0; stroke: #000000"/>
     <use xlink:href="#m5816964db6" x="651.80775" y="210.895842" style="fill-opacity: 0; stroke: #000000"/>
     <use xlink:href="#m5816964db6" x="651.80775" y="210.696238" style="fill-opacity: 0; stroke: #000000"/>
     <use xlink:href="#m5816964db6" x="651.80775" y="213.490693" style="fill-opacity: 0; stroke: #000000"/>
     <use xlink:href="#m5816964db6" x="651.80775" y="213.490693" style="fill-opacity: 0; stroke: #000000"/>
     <use xlink:href="#m5816964db6" x="651.80775" y="213.790099" style="fill-opacity: 0; stroke: #000000"/>
     <use xlink:href="#m5816964db6" x="651.80775" y="213.889901" style="fill-opacity: 0; stroke: #000000"/>
     <use xlink:href="#m5816964db6" x="651.80775" y="213.889901" style="fill-opacity: 0; stroke: #000000"/>
     <use xlink:href="#m5816964db6" x="651.80775" y="213.291089" style="fill-opacity: 0; stroke: #000000"/>
     <use xlink:href="#m5816964db6" x="651.80775" y="213.889901" style="fill-opacity: 0; stroke: #000000"/>
     <use xlink:href="#m5816964db6" x="651.80775" y="213.590495" style="fill-opacity: 0; stroke: #000000"/>
     <use xlink:href="#m5816964db6" x="651.80775" y="213.390891" style="fill-opacity: 0; stroke: #000000"/>
     <use xlink:href="#m5816964db6" x="651.80775" y="213.889901" style="fill-opacity: 0; stroke: #000000"/>
     <use xlink:href="#m5816964db6" x="651.80775" y="213.790099" style="fill-opacity: 0; stroke: #000000"/>
     <use xlink:href="#m5816964db6" x="651.80775" y="213.889901" style="fill-opacity: 0; stroke: #000000"/>
     <use xlink:href="#m5816964db6" x="651.80775" y="213.790099" style="fill-opacity: 0; stroke: #000000"/>
     <use xlink:href="#m5816964db6" x="651.80775" y="213.690297" style="fill-opacity: 0; stroke: #000000"/>
     <use xlink:href="#m5816964db6" x="651.80775" y="213.690297" style="fill-opacity: 0; stroke: #000000"/>
     <use xlink:href="#m5816964db6" x="651.80775" y="213.690297" style="fill-opacity: 0; stroke: #000000"/>
     <use xlink:href="#m5816964db6" x="651.80775" y="213.291089" style="fill-opacity: 0; stroke: #000000"/>
     <use xlink:href="#m5816964db6" x="651.80775" y="213.690297" style="fill-opacity: 0; stroke: #000000"/>
     <use xlink:href="#m5816964db6" x="651.80775" y="213.490693" style="fill-opacity: 0; stroke: #000000"/>
     <use xlink:href="#m5816964db6" x="651.80775" y="213.790099" style="fill-opacity: 0; stroke: #000000"/>
     <use xlink:href="#m5816964db6" x="651.80775" y="213.690297" style="fill-opacity: 0; stroke: #000000"/>
     <use xlink:href="#m5816964db6" x="651.80775" y="213.889901" style="fill-opacity: 0; stroke: #000000"/>
     <use xlink:href="#m5816964db6" x="651.80775" y="213.889901" style="fill-opacity: 0; stroke: #000000"/>
    </g>
   </g>
   <g id="line2d_36">
    <path d="M 777.35775 218.480792 
L 861.05775 218.480792 
L 861.05775 218.181386 
L 777.35775 218.181386 
L 777.35775 218.480792 
" clip-path="url(#pe2b6058985)" style="fill: none; stroke: #000000; stroke-linecap: round"/>
   </g>
   <g id="line2d_37">
    <path d="M 819.20775 218.480792 
L 819.20775 218.88 
" clip-path="url(#pe2b6058985)" style="fill: none; stroke: #000000; stroke-linecap: round"/>
   </g>
   <g id="line2d_38">
    <path d="M 819.20775 218.181386 
L 819.20775 217.782178 
" clip-path="url(#pe2b6058985)" style="fill: none; stroke: #000000; stroke-linecap: round"/>
   </g>
   <g id="line2d_39">
    <path d="M 798.28275 218.88 
L 840.13275 218.88 
" clip-path="url(#pe2b6058985)" style="fill: none; stroke: #000000; stroke-linecap: round"/>
   </g>
   <g id="line2d_40">
    <path d="M 798.28275 217.782178 
L 840.13275 217.782178 
" clip-path="url(#pe2b6058985)" style="fill: none; stroke: #000000; stroke-linecap: round"/>
   </g>
   <g id="line2d_41">
    <g clip-path="url(#pe2b6058985)">
     <use xlink:href="#m5816964db6" x="819.20775" y="217.083564" style="fill-opacity: 0; stroke: #000000"/>
     <use xlink:href="#m5816964db6" x="819.20775" y="217.083564" style="fill-opacity: 0; stroke: #000000"/>
     <use xlink:href="#m5816964db6" x="819.20775" y="217.083564" style="fill-opacity: 0; stroke: #000000"/>
     <use xlink:href="#m5816964db6" x="819.20775" y="217.083564" style="fill-opacity: 0; stroke: #000000"/>
     <use xlink:href="#m5816964db6" x="819.20775" y="217.682376" style="fill-opacity: 0; stroke: #000000"/>
     <use xlink:href="#m5816964db6" x="819.20775" y="217.682376" style="fill-opacity: 0; stroke: #000000"/>
     <use xlink:href="#m5816964db6" x="819.20775" y="217.682376" style="fill-opacity: 0; stroke: #000000"/>
     <use xlink:href="#m5816964db6" x="819.20775" y="217.682376" style="fill-opacity: 0; stroke: #000000"/>
     <use xlink:href="#m5816964db6" x="819.20775" y="217.682376" style="fill-opacity: 0; stroke: #000000"/>
     <use xlink:href="#m5816964db6" x="819.20775" y="217.682376" style="fill-opacity: 0; stroke: #000000"/>
     <use xlink:href="#m5816964db6" x="819.20775" y="217.682376" style="fill-opacity: 0; stroke: #000000"/>
     <use xlink:href="#m5816964db6" x="819.20775" y="217.682376" style="fill-opacity: 0; stroke: #000000"/>
     <use xlink:href="#m5816964db6" x="819.20775" y="217.682376" style="fill-opacity: 0; stroke: #000000"/>
     <use xlink:href="#m5816964db6" x="819.20775" y="217.682376" style="fill-opacity: 0; stroke: #000000"/>
     <use xlink:href="#m5816964db6" x="819.20775" y="217.682376" style="fill-opacity: 0; stroke: #000000"/>
     <use xlink:href="#m5816964db6" x="819.20775" y="217.682376" style="fill-opacity: 0; stroke: #000000"/>
     <use xlink:href="#m5816964db6" x="819.20775" y="217.682376" style="fill-opacity: 0; stroke: #000000"/>
     <use xlink:href="#m5816964db6" x="819.20775" y="217.682376" style="fill-opacity: 0; stroke: #000000"/>
     <use xlink:href="#m5816964db6" x="819.20775" y="217.682376" style="fill-opacity: 0; stroke: #000000"/>
     <use xlink:href="#m5816964db6" x="819.20775" y="217.682376" style="fill-opacity: 0; stroke: #000000"/>
    </g>
   </g>
   <g id="line2d_42">
    <path d="M 944.75775 216.285149 
L 1028.45775 216.285149 
L 1028.45775 215.287129 
L 944.75775 215.287129 
L 944.75775 216.285149 
" clip-path="url(#pe2b6058985)" style="fill: none; stroke: #000000; stroke-linecap: round"/>
   </g>
   <g id="line2d_43">
    <path d="M 986.60775 216.285149 
L 986.60775 217.482772 
" clip-path="url(#pe2b6058985)" style="fill: none; stroke: #000000; stroke-linecap: round"/>
   </g>
   <g id="line2d_44">
    <path d="M 986.60775 215.287129 
L 986.60775 213.889901 
" clip-path="url(#pe2b6058985)" style="fill: none; stroke: #000000; stroke-linecap: round"/>
   </g>
   <g id="line2d_45">
    <path d="M 965.68275 217.482772 
L 1007.53275 217.482772 
" clip-path="url(#pe2b6058985)" style="fill: none; stroke: #000000; stroke-linecap: round"/>
   </g>
   <g id="line2d_46">
    <path d="M 965.68275 213.889901 
L 1007.53275 213.889901 
" clip-path="url(#pe2b6058985)" style="fill: none; stroke: #000000; stroke-linecap: round"/>
   </g>
   <g id="line2d_47">
    <g clip-path="url(#pe2b6058985)">
     <use xlink:href="#m5816964db6" x="986.60775" y="213.590495" style="fill-opacity: 0; stroke: #000000"/>
     <use xlink:href="#m5816964db6" x="986.60775" y="213.590495" style="fill-opacity: 0; stroke: #000000"/>
     <use xlink:href="#m5816964db6" x="986.60775" y="213.590495" style="fill-opacity: 0; stroke: #000000"/>
     <use xlink:href="#m5816964db6" x="986.60775" y="213.590495" style="fill-opacity: 0; stroke: #000000"/>
     <use xlink:href="#m5816964db6" x="986.60775" y="213.690297" style="fill-opacity: 0; stroke: #000000"/>
     <use xlink:href="#m5816964db6" x="986.60775" y="213.690297" style="fill-opacity: 0; stroke: #000000"/>
     <use xlink:href="#m5816964db6" x="986.60775" y="213.690297" style="fill-opacity: 0; stroke: #000000"/>
     <use xlink:href="#m5816964db6" x="986.60775" y="213.690297" style="fill-opacity: 0; stroke: #000000"/>
     <use xlink:href="#m5816964db6" x="986.60775" y="213.590495" style="fill-opacity: 0; stroke: #000000"/>
     <use xlink:href="#m5816964db6" x="986.60775" y="213.590495" style="fill-opacity: 0; stroke: #000000"/>
     <use xlink:href="#m5816964db6" x="986.60775" y="213.590495" style="fill-opacity: 0; stroke: #000000"/>
     <use xlink:href="#m5816964db6" x="986.60775" y="213.590495" style="fill-opacity: 0; stroke: #000000"/>
     <use xlink:href="#m5816964db6" x="986.60775" y="212.792079" style="fill-opacity: 0; stroke: #000000"/>
     <use xlink:href="#m5816964db6" x="986.60775" y="212.792079" style="fill-opacity: 0; stroke: #000000"/>
     <use xlink:href="#m5816964db6" x="986.60775" y="212.792079" style="fill-opacity: 0; stroke: #000000"/>
     <use xlink:href="#m5816964db6" x="986.60775" y="212.792079" style="fill-opacity: 0; stroke: #000000"/>
     <use xlink:href="#m5816964db6" x="986.60775" y="213.690297" style="fill-opacity: 0; stroke: #000000"/>
     <use xlink:href="#m5816964db6" x="986.60775" y="213.690297" style="fill-opacity: 0; stroke: #000000"/>
     <use xlink:href="#m5816964db6" x="986.60775" y="213.690297" style="fill-opacity: 0; stroke: #000000"/>
     <use xlink:href="#m5816964db6" x="986.60775" y="213.690297" style="fill-opacity: 0; stroke: #000000"/>
     <use xlink:href="#m5816964db6" x="986.60775" y="213.690297" style="fill-opacity: 0; stroke: #000000"/>
     <use xlink:href="#m5816964db6" x="986.60775" y="213.690297" style="fill-opacity: 0; stroke: #000000"/>
     <use xlink:href="#m5816964db6" x="986.60775" y="213.690297" style="fill-opacity: 0; stroke: #000000"/>
     <use xlink:href="#m5816964db6" x="986.60775" y="213.690297" style="fill-opacity: 0; stroke: #000000"/>
     <use xlink:href="#m5816964db6" x="986.60775" y="213.291089" style="fill-opacity: 0; stroke: #000000"/>
     <use xlink:href="#m5816964db6" x="986.60775" y="213.291089" style="fill-opacity: 0; stroke: #000000"/>
     <use xlink:href="#m5816964db6" x="986.60775" y="213.291089" style="fill-opacity: 0; stroke: #000000"/>
     <use xlink:href="#m5816964db6" x="986.60775" y="213.291089" style="fill-opacity: 0; stroke: #000000"/>
     <use xlink:href="#m5816964db6" x="986.60775" y="213.690297" style="fill-opacity: 0; stroke: #000000"/>
     <use xlink:href="#m5816964db6" x="986.60775" y="213.690297" style="fill-opacity: 0; stroke: #000000"/>
     <use xlink:href="#m5816964db6" x="986.60775" y="213.690297" style="fill-opacity: 0; stroke: #000000"/>
     <use xlink:href="#m5816964db6" x="986.60775" y="213.690297" style="fill-opacity: 0; stroke: #000000"/>
     <use xlink:href="#m5816964db6" x="986.60775" y="153.709307" style="fill-opacity: 0; stroke: #000000"/>
     <use xlink:href="#m5816964db6" x="986.60775" y="153.709307" style="fill-opacity: 0; stroke: #000000"/>
     <use xlink:href="#m5816964db6" x="986.60775" y="153.709307" style="fill-opacity: 0; stroke: #000000"/>
     <use xlink:href="#m5816964db6" x="986.60775" y="153.709307" style="fill-opacity: 0; stroke: #000000"/>
     <use xlink:href="#m5816964db6" x="986.60775" y="210.29703" style="fill-opacity: 0; stroke: #000000"/>
     <use xlink:href="#m5816964db6" x="986.60775" y="210.29703" style="fill-opacity: 0; stroke: #000000"/>
     <use xlink:href="#m5816964db6" x="986.60775" y="210.29703" style="fill-opacity: 0; stroke: #000000"/>
     <use xlink:href="#m5816964db6" x="986.60775" y="210.29703" style="fill-opacity: 0; stroke: #000000"/>
     <use xlink:href="#m5816964db6" x="986.60775" y="210.396832" style="fill-opacity: 0; stroke: #000000"/>
     <use xlink:href="#m5816964db6" x="986.60775" y="210.396832" style="fill-opacity: 0; stroke: #000000"/>
     <use xlink:href="#m5816964db6" x="986.60775" y="210.396832" style="fill-opacity: 0; stroke: #000000"/>
     <use xlink:href="#m5816964db6" x="986.60775" y="210.396832" style="fill-opacity: 0; stroke: #000000"/>
     <use xlink:href="#m5816964db6" x="986.60775" y="210.696238" style="fill-opacity: 0; stroke: #000000"/>
     <use xlink:href="#m5816964db6" x="986.60775" y="210.696238" style="fill-opacity: 0; stroke: #000000"/>
     <use xlink:href="#m5816964db6" x="986.60775" y="210.696238" style="fill-opacity: 0; stroke: #000000"/>
     <use xlink:href="#m5816964db6" x="986.60775" y="210.696238" style="fill-opacity: 0; stroke: #000000"/>
     <use xlink:href="#m5816964db6" x="986.60775" y="210.396832" style="fill-opacity: 0; stroke: #000000"/>
     <use xlink:href="#m5816964db6" x="986.60775" y="210.396832" style="fill-opacity: 0; stroke: #000000"/>
     <use xlink:href="#m5816964db6" x="986.60775" y="210.396832" style="fill-opacity: 0; stroke: #000000"/>
     <use xlink:href="#m5816964db6" x="986.60775" y="210.396832" style="fill-opacity: 0; stroke: #000000"/>
     <use xlink:href="#m5816964db6" x="986.60775" y="212.891881" style="fill-opacity: 0; stroke: #000000"/>
     <use xlink:href="#m5816964db6" x="986.60775" y="212.891881" style="fill-opacity: 0; stroke: #000000"/>
     <use xlink:href="#m5816964db6" x="986.60775" y="212.891881" style="fill-opacity: 0; stroke: #000000"/>
     <use xlink:href="#m5816964db6" x="986.60775" y="212.891881" style="fill-opacity: 0; stroke: #000000"/>
     <use xlink:href="#m5816964db6" x="986.60775" y="213.690297" style="fill-opacity: 0; stroke: #000000"/>
     <use xlink:href="#m5816964db6" x="986.60775" y="213.690297" style="fill-opacity: 0; stroke: #000000"/>
     <use xlink:href="#m5816964db6" x="986.60775" y="213.690297" style="fill-opacity: 0; stroke: #000000"/>
     <use xlink:href="#m5816964db6" x="986.60775" y="213.690297" style="fill-opacity: 0; stroke: #000000"/>
    </g>
   </g>
   <g id="line2d_48">
    <path d="M 107.75775 68.977426 
L 191.45775 68.977426 
" clip-path="url(#pe2b6058985)" style="fill: none; stroke: #dd8452; stroke-linecap: round"/>
   </g>
   <g id="line2d_49">
    <path d="M 275.15775 72.071287 
L 358.85775 72.071287 
" clip-path="url(#pe2b6058985)" style="fill: none; stroke: #dd8452; stroke-linecap: round"/>
   </g>
   <g id="line2d_50">
    <path d="M 442.55775 217.88198 
L 526.25775 217.88198 
" clip-path="url(#pe2b6058985)" style="fill: none; stroke: #dd8452; stroke-linecap: round"/>
   </g>
   <g id="line2d_51">
    <path d="M 609.95775 216.38495 
L 693.65775 216.38495 
" clip-path="url(#pe2b6058985)" style="fill: none; stroke: #dd8452; stroke-linecap: round"/>
   </g>
   <g id="line2d_52">
    <path d="M 777.35775 218.281188 
L 861.05775 218.281188 
" clip-path="url(#pe2b6058985)" style="fill: none; stroke: #dd8452; stroke-linecap: round"/>
   </g>
   <g id="line2d_53">
    <path d="M 944.75775 215.885941 
L 1028.45775 215.885941 
" clip-path="url(#pe2b6058985)" style="fill: none; stroke: #dd8452; stroke-linecap: round"/>
   </g>
   <g id="patch_3">
    <path d="M 65.90775 228.96 
L 65.90775 7.2 
" style="fill: none; stroke: #ffffff; stroke-width: 1.25; stroke-linejoin: miter; stroke-linecap: square"/>
   </g>
   <g id="patch_4">
    <path d="M 1070.30775 228.96 
L 1070.30775 7.2 
" style="fill: none; stroke: #ffffff; stroke-width: 1.25; stroke-linejoin: miter; stroke-linecap: square"/>
   </g>
   <g id="patch_5">
    <path d="M 65.90775 228.96 
L 1070.30775 228.96 
" style="fill: none; stroke: #ffffff; stroke-width: 1.25; stroke-linejoin: miter; stroke-linecap: square"/>
   </g>
   <g id="patch_6">
    <path d="M 65.90775 7.2 
L 1070.30775 7.2 
" style="fill: none; stroke: #ffffff; stroke-width: 1.25; stroke-linejoin: miter; stroke-linecap: square"/>
   </g>
  </g>
 </g>
 <defs>
  <clipPath id="pe2b6058985">
   <rect x="65.90775" y="7.2" width="1004.4" height="221.76"/>
  </clipPath>
 </defs>
</svg>
