<?xml version="1.0" encoding="utf-8" standalone="no"?>
<!DOCTYPE svg PUBLIC "-//W3C//DTD SVG 1.1//EN"
  "http://www.w3.org/Graphics/SVG/1.1/DTD/svg11.dtd">
<svg xmlns:xlink="http://www.w3.org/1999/xlink" width="1066.86375pt" height="264.035937pt" viewBox="0 0 1066.86375 264.035937" xmlns="http://www.w3.org/2000/svg" version="1.1">
 <metadata>
  <rdf:RDF xmlns:dc="http://purl.org/dc/elements/1.1/" xmlns:cc="http://creativecommons.org/ns#" xmlns:rdf="http://www.w3.org/1999/02/22-rdf-syntax-ns#">
   <cc:Work>
    <dc:type rdf:resource="http://purl.org/dc/dcmitype/StillImage"/>
    <dc:date>2023-11-20T16:38:21.922010</dc:date>
    <dc:format>image/svg+xml</dc:format>
    <dc:creator>
     <cc:Agent>
      <dc:title>Matplotlib v3.8.0, https://matplotlib.org/</dc:title>
     </cc:Agent>
    </dc:creator>
   </cc:Work>
  </rdf:RDF>
 </metadata>
 <defs>
  <style type="text/css">*{stroke-linejoin: round; stroke-linecap: butt}</style>
 </defs>
 <g id="figure_1">
  <g id="patch_1">
   <path d="M 0 264.035937 
L 1066.86375 264.035937 
L 1066.86375 0 
L 0 0 
z
" style="fill: #ffffff"/>
  </g>
  <g id="axes_1">
   <g id="patch_2">
    <path d="M 55.26375 228.96 
L 1059.66375 228.96 
L 1059.66375 7.2 
L 55.26375 7.2 
z
" style="fill: #ffffff"/>
   </g>
   <g id="matplotlib.axis_1">
    <g id="xtick_1">
     <g id="line2d_1">
      <path d="M 118.03875 228.96 
L 118.03875 7.2 
" clip-path="url(#pa56304d869)" style="fill: none; stroke: #cccccc; stroke-width: 0.8; stroke-linecap: round"/>
     </g>
     <g id="text_1">
      <!-- mst -->
      <g style="fill: #262626" transform="translate(108.603594 243.558437) scale(0.1 -0.1)">
       <defs>
        <path id="DejaVuSans-6d" d="M 3328 2828 
Q 3544 3216 3844 3400 
Q 4144 3584 4550 3584 
Q 5097 3584 5394 3201 
Q 5691 2819 5691 2113 
L 5691 0 
L 5113 0 
L 5113 2094 
Q 5113 2597 4934 2840 
Q 4756 3084 4391 3084 
Q 3944 3084 3684 2787 
Q 3425 2491 3425 1978 
L 3425 0 
L 2847 0 
L 2847 2094 
Q 2847 2600 2669 2842 
Q 2491 3084 2119 3084 
Q 1678 3084 1418 2786 
Q 1159 2488 1159 1978 
L 1159 0 
L 581 0 
L 581 3500 
L 1159 3500 
L 1159 2956 
Q 1356 3278 1631 3431 
Q 1906 3584 2284 3584 
Q 2666 3584 2933 3390 
Q 3200 3197 3328 2828 
z
" transform="scale(0.015625)"/>
        <path id="DejaVuSans-73" d="M 2834 3397 
L 2834 2853 
Q 2591 2978 2328 3040 
Q 2066 3103 1784 3103 
Q 1356 3103 1142 2972 
Q 928 2841 928 2578 
Q 928 2378 1081 2264 
Q 1234 2150 1697 2047 
L 1894 2003 
Q 2506 1872 2764 1633 
Q 3022 1394 3022 966 
Q 3022 478 2636 193 
Q 2250 -91 1575 -91 
Q 1294 -91 989 -36 
Q 684 19 347 128 
L 347 722 
Q 666 556 975 473 
Q 1284 391 1588 391 
Q 1994 391 2212 530 
Q 2431 669 2431 922 
Q 2431 1156 2273 1281 
Q 2116 1406 1581 1522 
L 1381 1569 
Q 847 1681 609 1914 
Q 372 2147 372 2553 
Q 372 3047 722 3315 
Q 1072 3584 1716 3584 
Q 2034 3584 2315 3537 
Q 2597 3491 2834 3397 
z
" transform="scale(0.015625)"/>
        <path id="DejaVuSans-74" d="M 1172 4494 
L 1172 3500 
L 2356 3500 
L 2356 3053 
L 1172 3053 
L 1172 1153 
Q 1172 725 1289 603 
Q 1406 481 1766 481 
L 2356 481 
L 2356 0 
L 1766 0 
Q 1100 0 847 248 
Q 594 497 594 1153 
L 594 3053 
L 172 3053 
L 172 3500 
L 594 3500 
L 594 4494 
L 1172 4494 
z
" transform="scale(0.015625)"/>
       </defs>
       <use xlink:href="#DejaVuSans-6d"/>
       <use xlink:href="#DejaVuSans-73" x="97.412109"/>
       <use xlink:href="#DejaVuSans-74" x="149.511719"/>
      </g>
     </g>
    </g>
    <g id="xtick_2">
     <g id="line2d_2">
      <path d="M 243.58875 228.96 
L 243.58875 7.2 
" clip-path="url(#pa56304d869)" style="fill: none; stroke: #cccccc; stroke-width: 0.8; stroke-linecap: round"/>
     </g>
     <g id="text_2">
      <!-- mst -->
      <g style="fill: #262626" transform="translate(234.153594 243.558437) scale(0.1 -0.1)">
       <use xlink:href="#DejaVuSans-6d"/>
       <use xlink:href="#DejaVuSans-73" x="97.412109"/>
       <use xlink:href="#DejaVuSans-74" x="149.511719"/>
      </g>
      <!-- stress -->
      <g style="fill: #262626" transform="translate(228.795 254.75625) scale(0.1 -0.1)">
       <defs>
        <path id="DejaVuSans-72" d="M 2631 2963 
Q 2534 3019 2420 3045 
Q 2306 3072 2169 3072 
Q 1681 3072 1420 2755 
Q 1159 2438 1159 1844 
L 1159 0 
L 581 0 
L 581 3500 
L 1159 3500 
L 1159 2956 
Q 1341 3275 1631 3429 
Q 1922 3584 2338 3584 
Q 2397 3584 2469 3576 
Q 2541 3569 2628 3553 
L 2631 2963 
z
" transform="scale(0.015625)"/>
        <path id="DejaVuSans-65" d="M 3597 1894 
L 3597 1613 
L 953 1613 
Q 991 1019 1311 708 
Q 1631 397 2203 397 
Q 2534 397 2845 478 
Q 3156 559 3463 722 
L 3463 178 
Q 3153 47 2828 -22 
Q 2503 -91 2169 -91 
Q 1331 -91 842 396 
Q 353 884 353 1716 
Q 353 2575 817 3079 
Q 1281 3584 2069 3584 
Q 2775 3584 3186 3129 
Q 3597 2675 3597 1894 
z
M 3022 2063 
Q 3016 2534 2758 2815 
Q 2500 3097 2075 3097 
Q 1594 3097 1305 2825 
Q 1016 2553 972 2059 
L 3022 2063 
z
" transform="scale(0.015625)"/>
       </defs>
       <use xlink:href="#DejaVuSans-73"/>
       <use xlink:href="#DejaVuSans-74" x="52.099609"/>
       <use xlink:href="#DejaVuSans-72" x="91.308594"/>
       <use xlink:href="#DejaVuSans-65" x="130.171875"/>
       <use xlink:href="#DejaVuSans-73" x="191.695312"/>
       <use xlink:href="#DejaVuSans-73" x="243.794922"/>
      </g>
     </g>
    </g>
    <g id="xtick_3">
     <g id="line2d_3">
      <path d="M 369.13875 228.96 
L 369.13875 7.2 
" clip-path="url(#pa56304d869)" style="fill: none; stroke: #cccccc; stroke-width: 0.8; stroke-linecap: round"/>
     </g>
     <g id="text_3">
      <!-- chain -->
      <g style="fill: #262626" transform="translate(355.598906 243.558437) scale(0.1 -0.1)">
       <defs>
        <path id="DejaVuSans-63" d="M 3122 3366 
L 3122 2828 
Q 2878 2963 2633 3030 
Q 2388 3097 2138 3097 
Q 1578 3097 1268 2742 
Q 959 2388 959 1747 
Q 959 1106 1268 751 
Q 1578 397 2138 397 
Q 2388 397 2633 464 
Q 2878 531 3122 666 
L 3122 134 
Q 2881 22 2623 -34 
Q 2366 -91 2075 -91 
Q 1284 -91 818 406 
Q 353 903 353 1747 
Q 353 2603 823 3093 
Q 1294 3584 2113 3584 
Q 2378 3584 2631 3529 
Q 2884 3475 3122 3366 
z
" transform="scale(0.015625)"/>
        <path id="DejaVuSans-68" d="M 3513 2113 
L 3513 0 
L 2938 0 
L 2938 2094 
Q 2938 2591 2744 2837 
Q 2550 3084 2163 3084 
Q 1697 3084 1428 2787 
Q 1159 2491 1159 1978 
L 1159 0 
L 581 0 
L 581 4863 
L 1159 4863 
L 1159 2956 
Q 1366 3272 1645 3428 
Q 1925 3584 2291 3584 
Q 2894 3584 3203 3211 
Q 3513 2838 3513 2113 
z
" transform="scale(0.015625)"/>
        <path id="DejaVuSans-61" d="M 2194 1759 
Q 1497 1759 1228 1600 
Q 959 1441 959 1056 
Q 959 750 1161 570 
Q 1363 391 1709 391 
Q 2188 391 2477 730 
Q 2766 1069 2766 1631 
L 2766 1759 
L 2194 1759 
z
M 3341 1997 
L 3341 0 
L 2766 0 
L 2766 531 
Q 2569 213 2275 61 
Q 1981 -91 1556 -91 
Q 1019 -91 701 211 
Q 384 513 384 1019 
Q 384 1609 779 1909 
Q 1175 2209 1959 2209 
L 2766 2209 
L 2766 2266 
Q 2766 2663 2505 2880 
Q 2244 3097 1772 3097 
Q 1472 3097 1187 3025 
Q 903 2953 641 2809 
L 641 3341 
Q 956 3463 1253 3523 
Q 1550 3584 1831 3584 
Q 2591 3584 2966 3190 
Q 3341 2797 3341 1997 
z
" transform="scale(0.015625)"/>
        <path id="DejaVuSans-69" d="M 603 3500 
L 1178 3500 
L 1178 0 
L 603 0 
L 603 3500 
z
M 603 4863 
L 1178 4863 
L 1178 4134 
L 603 4134 
L 603 4863 
z
" transform="scale(0.015625)"/>
        <path id="DejaVuSans-6e" d="M 3513 2113 
L 3513 0 
L 2938 0 
L 2938 2094 
Q 2938 2591 2744 2837 
Q 2550 3084 2163 3084 
Q 1697 3084 1428 2787 
Q 1159 2491 1159 1978 
L 1159 0 
L 581 0 
L 581 3500 
L 1159 3500 
L 1159 2956 
Q 1366 3272 1645 3428 
Q 1925 3584 2291 3584 
Q 2894 3584 3203 3211 
Q 3513 2838 3513 2113 
z
" transform="scale(0.015625)"/>
       </defs>
       <use xlink:href="#DejaVuSans-63"/>
       <use xlink:href="#DejaVuSans-68" x="54.980469"/>
       <use xlink:href="#DejaVuSans-61" x="118.359375"/>
       <use xlink:href="#DejaVuSans-69" x="179.638672"/>
       <use xlink:href="#DejaVuSans-6e" x="207.421875"/>
      </g>
     </g>
    </g>
    <g id="xtick_4">
     <g id="line2d_4">
      <path d="M 494.68875 228.96 
L 494.68875 7.2 
" clip-path="url(#pa56304d869)" style="fill: none; stroke: #cccccc; stroke-width: 0.8; stroke-linecap: round"/>
     </g>
     <g id="text_4">
      <!-- chain -->
      <g style="fill: #262626" transform="translate(481.148906 243.558437) scale(0.1 -0.1)">
       <use xlink:href="#DejaVuSans-63"/>
       <use xlink:href="#DejaVuSans-68" x="54.980469"/>
       <use xlink:href="#DejaVuSans-61" x="118.359375"/>
       <use xlink:href="#DejaVuSans-69" x="179.638672"/>
       <use xlink:href="#DejaVuSans-6e" x="207.421875"/>
      </g>
      <!-- stress -->
      <g style="fill: #262626" transform="translate(479.895 254.75625) scale(0.1 -0.1)">
       <use xlink:href="#DejaVuSans-73"/>
       <use xlink:href="#DejaVuSans-74" x="52.099609"/>
       <use xlink:href="#DejaVuSans-72" x="91.308594"/>
       <use xlink:href="#DejaVuSans-65" x="130.171875"/>
       <use xlink:href="#DejaVuSans-73" x="191.695312"/>
       <use xlink:href="#DejaVuSans-73" x="243.794922"/>
      </g>
     </g>
    </g>
    <g id="xtick_5">
     <g id="line2d_5">
      <path d="M 620.23875 228.96 
L 620.23875 7.2 
" clip-path="url(#pa56304d869)" style="fill: none; stroke: #cccccc; stroke-width: 0.8; stroke-linecap: round"/>
     </g>
     <g id="text_5">
      <!-- bottom-up -->
      <g style="fill: #262626" transform="translate(594.008281 243.558437) scale(0.1 -0.1)">
       <defs>
        <path id="DejaVuSans-62" d="M 3116 1747 
Q 3116 2381 2855 2742 
Q 2594 3103 2138 3103 
Q 1681 3103 1420 2742 
Q 1159 2381 1159 1747 
Q 1159 1113 1420 752 
Q 1681 391 2138 391 
Q 2594 391 2855 752 
Q 3116 1113 3116 1747 
z
M 1159 2969 
Q 1341 3281 1617 3432 
Q 1894 3584 2278 3584 
Q 2916 3584 3314 3078 
Q 3713 2572 3713 1747 
Q 3713 922 3314 415 
Q 2916 -91 2278 -91 
Q 1894 -91 1617 61 
Q 1341 213 1159 525 
L 1159 0 
L 581 0 
L 581 4863 
L 1159 4863 
L 1159 2969 
z
" transform="scale(0.015625)"/>
        <path id="DejaVuSans-6f" d="M 1959 3097 
Q 1497 3097 1228 2736 
Q 959 2375 959 1747 
Q 959 1119 1226 758 
Q 1494 397 1959 397 
Q 2419 397 2687 759 
Q 2956 1122 2956 1747 
Q 2956 2369 2687 2733 
Q 2419 3097 1959 3097 
z
M 1959 3584 
Q 2709 3584 3137 3096 
Q 3566 2609 3566 1747 
Q 3566 888 3137 398 
Q 2709 -91 1959 -91 
Q 1206 -91 779 398 
Q 353 888 353 1747 
Q 353 2609 779 3096 
Q 1206 3584 1959 3584 
z
" transform="scale(0.015625)"/>
        <path id="DejaVuSans-2d" d="M 313 2009 
L 1997 2009 
L 1997 1497 
L 313 1497 
L 313 2009 
z
" transform="scale(0.015625)"/>
        <path id="DejaVuSans-75" d="M 544 1381 
L 544 3500 
L 1119 3500 
L 1119 1403 
Q 1119 906 1312 657 
Q 1506 409 1894 409 
Q 2359 409 2629 706 
Q 2900 1003 2900 1516 
L 2900 3500 
L 3475 3500 
L 3475 0 
L 2900 0 
L 2900 538 
Q 2691 219 2414 64 
Q 2138 -91 1772 -91 
Q 1169 -91 856 284 
Q 544 659 544 1381 
z
M 1991 3584 
L 1991 3584 
z
" transform="scale(0.015625)"/>
        <path id="DejaVuSans-70" d="M 1159 525 
L 1159 -1331 
L 581 -1331 
L 581 3500 
L 1159 3500 
L 1159 2969 
Q 1341 3281 1617 3432 
Q 1894 3584 2278 3584 
Q 2916 3584 3314 3078 
Q 3713 2572 3713 1747 
Q 3713 922 3314 415 
Q 2916 -91 2278 -91 
Q 1894 -91 1617 61 
Q 1341 213 1159 525 
z
M 3116 1747 
Q 3116 2381 2855 2742 
Q 2594 3103 2138 3103 
Q 1681 3103 1420 2742 
Q 1159 2381 1159 1747 
Q 1159 1113 1420 752 
Q 1681 391 2138 391 
Q 2594 391 2855 752 
Q 3116 1113 3116 1747 
z
" transform="scale(0.015625)"/>
       </defs>
       <use xlink:href="#DejaVuSans-62"/>
       <use xlink:href="#DejaVuSans-6f" x="63.476562"/>
       <use xlink:href="#DejaVuSans-74" x="124.658203"/>
       <use xlink:href="#DejaVuSans-74" x="163.867188"/>
       <use xlink:href="#DejaVuSans-6f" x="203.076172"/>
       <use xlink:href="#DejaVuSans-6d" x="264.257812"/>
       <use xlink:href="#DejaVuSans-2d" x="361.669922"/>
       <use xlink:href="#DejaVuSans-75" x="397.753906"/>
       <use xlink:href="#DejaVuSans-70" x="461.132812"/>
      </g>
     </g>
    </g>
    <g id="xtick_6">
     <g id="line2d_6">
      <path d="M 745.78875 228.96 
L 745.78875 7.2 
" clip-path="url(#pa56304d869)" style="fill: none; stroke: #cccccc; stroke-width: 0.8; stroke-linecap: round"/>
     </g>
     <g id="text_6">
      <!-- bottom-up -->
      <g style="fill: #262626" transform="translate(719.558281 243.558437) scale(0.1 -0.1)">
       <use xlink:href="#DejaVuSans-62"/>
       <use xlink:href="#DejaVuSans-6f" x="63.476562"/>
       <use xlink:href="#DejaVuSans-74" x="124.658203"/>
       <use xlink:href="#DejaVuSans-74" x="163.867188"/>
       <use xlink:href="#DejaVuSans-6f" x="203.076172"/>
       <use xlink:href="#DejaVuSans-6d" x="264.257812"/>
       <use xlink:href="#DejaVuSans-2d" x="361.669922"/>
       <use xlink:href="#DejaVuSans-75" x="397.753906"/>
       <use xlink:href="#DejaVuSans-70" x="461.132812"/>
      </g>
      <!-- stress -->
      <g style="fill: #262626" transform="translate(730.995 254.75625) scale(0.1 -0.1)">
       <use xlink:href="#DejaVuSans-73"/>
       <use xlink:href="#DejaVuSans-74" x="52.099609"/>
       <use xlink:href="#DejaVuSans-72" x="91.308594"/>
       <use xlink:href="#DejaVuSans-65" x="130.171875"/>
       <use xlink:href="#DejaVuSans-73" x="191.695312"/>
       <use xlink:href="#DejaVuSans-73" x="243.794922"/>
      </g>
     </g>
    </g>
    <g id="xtick_7">
     <g id="line2d_7">
      <path d="M 871.33875 228.96 
L 871.33875 7.2 
" clip-path="url(#pa56304d869)" style="fill: none; stroke: #cccccc; stroke-width: 0.8; stroke-linecap: round"/>
     </g>
     <g id="text_7">
      <!-- nemo -->
      <g style="fill: #262626" transform="translate(857.16375 243.558437) scale(0.1 -0.1)">
       <use xlink:href="#DejaVuSans-6e"/>
       <use xlink:href="#DejaVuSans-65" x="63.378906"/>
       <use xlink:href="#DejaVuSans-6d" x="124.902344"/>
       <use xlink:href="#DejaVuSans-6f" x="222.314453"/>
      </g>
     </g>
    </g>
    <g id="xtick_8">
     <g id="line2d_8">
      <path d="M 996.88875 228.96 
L 996.88875 7.2 
" clip-path="url(#pa56304d869)" style="fill: none; stroke: #cccccc; stroke-width: 0.8; stroke-linecap: round"/>
     </g>
     <g id="text_8">
      <!-- nemo -->
      <g style="fill: #262626" transform="translate(982.71375 243.558437) scale(0.1 -0.1)">
       <use xlink:href="#DejaVuSans-6e"/>
       <use xlink:href="#DejaVuSans-65" x="63.378906"/>
       <use xlink:href="#DejaVuSans-6d" x="124.902344"/>
       <use xlink:href="#DejaVuSans-6f" x="222.314453"/>
      </g>
      <!-- stress -->
      <g style="fill: #262626" transform="translate(982.095 254.75625) scale(0.1 -0.1)">
       <use xlink:href="#DejaVuSans-73"/>
       <use xlink:href="#DejaVuSans-74" x="52.099609"/>
       <use xlink:href="#DejaVuSans-72" x="91.308594"/>
       <use xlink:href="#DejaVuSans-65" x="130.171875"/>
       <use xlink:href="#DejaVuSans-73" x="191.695312"/>
       <use xlink:href="#DejaVuSans-73" x="243.794922"/>
      </g>
     </g>
    </g>
   </g>
   <g id="matplotlib.axis_2">
    <g id="ytick_1">
     <g id="line2d_9">
      <path d="M 55.26375 224.127355 
L 1059.66375 224.127355 
" clip-path="url(#pa56304d869)" style="fill: none; stroke: #cccccc; stroke-width: 0.8; stroke-linecap: round"/>
     </g>
     <g id="text_9">
      <!-- 0 -->
      <g style="fill: #262626" transform="translate(41.90125 227.926574) scale(0.1 -0.1)">
       <defs>
        <path id="DejaVuSans-30" d="M 2034 4250 
Q 1547 4250 1301 3770 
Q 1056 3291 1056 2328 
Q 1056 1369 1301 889 
Q 1547 409 2034 409 
Q 2525 409 2770 889 
Q 3016 1369 3016 2328 
Q 3016 3291 2770 3770 
Q 2525 4250 2034 4250 
z
M 2034 4750 
Q 2819 4750 3233 4129 
Q 3647 3509 3647 2328 
Q 3647 1150 3233 529 
Q 2819 -91 2034 -91 
Q 1250 -91 836 529 
Q 422 1150 422 2328 
Q 422 3509 836 4129 
Q 1250 4750 2034 4750 
z
" transform="scale(0.015625)"/>
       </defs>
       <use xlink:href="#DejaVuSans-30"/>
      </g>
     </g>
    </g>
    <g id="ytick_2">
     <g id="line2d_10">
      <path d="M 55.26375 190.273451 
L 1059.66375 190.273451 
" clip-path="url(#pa56304d869)" style="fill: none; stroke: #cccccc; stroke-width: 0.8; stroke-linecap: round"/>
     </g>
     <g id="text_10">
      <!-- 200 -->
      <g style="fill: #262626" transform="translate(29.17625 194.07267) scale(0.1 -0.1)">
       <defs>
        <path id="DejaVuSans-32" d="M 1228 531 
L 3431 531 
L 3431 0 
L 469 0 
L 469 531 
Q 828 903 1448 1529 
Q 2069 2156 2228 2338 
Q 2531 2678 2651 2914 
Q 2772 3150 2772 3378 
Q 2772 3750 2511 3984 
Q 2250 4219 1831 4219 
Q 1534 4219 1204 4116 
Q 875 4013 500 3803 
L 500 4441 
Q 881 4594 1212 4672 
Q 1544 4750 1819 4750 
Q 2544 4750 2975 4387 
Q 3406 4025 3406 3419 
Q 3406 3131 3298 2873 
Q 3191 2616 2906 2266 
Q 2828 2175 2409 1742 
Q 1991 1309 1228 531 
z
" transform="scale(0.015625)"/>
       </defs>
       <use xlink:href="#DejaVuSans-32"/>
       <use xlink:href="#DejaVuSans-30" x="63.623047"/>
       <use xlink:href="#DejaVuSans-30" x="127.246094"/>
      </g>
     </g>
    </g>
    <g id="ytick_3">
     <g id="line2d_11">
      <path d="M 55.26375 156.419547 
L 1059.66375 156.419547 
" clip-path="url(#pa56304d869)" style="fill: none; stroke: #cccccc; stroke-width: 0.8; stroke-linecap: round"/>
     </g>
     <g id="text_11">
      <!-- 400 -->
      <g style="fill: #262626" transform="translate(29.17625 160.218765) scale(0.1 -0.1)">
       <defs>
        <path id="DejaVuSans-34" d="M 2419 4116 
L 825 1625 
L 2419 1625 
L 2419 4116 
z
M 2253 4666 
L 3047 4666 
L 3047 1625 
L 3713 1625 
L 3713 1100 
L 3047 1100 
L 3047 0 
L 2419 0 
L 2419 1100 
L 313 1100 
L 313 1709 
L 2253 4666 
z
" transform="scale(0.015625)"/>
       </defs>
       <use xlink:href="#DejaVuSans-34"/>
       <use xlink:href="#DejaVuSans-30" x="63.623047"/>
       <use xlink:href="#DejaVuSans-30" x="127.246094"/>
      </g>
     </g>
    </g>
    <g id="ytick_4">
     <g id="line2d_12">
      <path d="M 55.26375 122.565642 
L 1059.66375 122.565642 
" clip-path="url(#pa56304d869)" style="fill: none; stroke: #cccccc; stroke-width: 0.8; stroke-linecap: round"/>
     </g>
     <g id="text_12">
      <!-- 600 -->
      <g style="fill: #262626" transform="translate(29.17625 126.364861) scale(0.1 -0.1)">
       <defs>
        <path id="DejaVuSans-36" d="M 2113 2584 
Q 1688 2584 1439 2293 
Q 1191 2003 1191 1497 
Q 1191 994 1439 701 
Q 1688 409 2113 409 
Q 2538 409 2786 701 
Q 3034 994 3034 1497 
Q 3034 2003 2786 2293 
Q 2538 2584 2113 2584 
z
M 3366 4563 
L 3366 3988 
Q 3128 4100 2886 4159 
Q 2644 4219 2406 4219 
Q 1781 4219 1451 3797 
Q 1122 3375 1075 2522 
Q 1259 2794 1537 2939 
Q 1816 3084 2150 3084 
Q 2853 3084 3261 2657 
Q 3669 2231 3669 1497 
Q 3669 778 3244 343 
Q 2819 -91 2113 -91 
Q 1303 -91 875 529 
Q 447 1150 447 2328 
Q 447 3434 972 4092 
Q 1497 4750 2381 4750 
Q 2619 4750 2861 4703 
Q 3103 4656 3366 4563 
z
" transform="scale(0.015625)"/>
       </defs>
       <use xlink:href="#DejaVuSans-36"/>
       <use xlink:href="#DejaVuSans-30" x="63.623047"/>
       <use xlink:href="#DejaVuSans-30" x="127.246094"/>
      </g>
     </g>
    </g>
    <g id="ytick_5">
     <g id="line2d_13">
      <path d="M 55.26375 88.711738 
L 1059.66375 88.711738 
" clip-path="url(#pa56304d869)" style="fill: none; stroke: #cccccc; stroke-width: 0.8; stroke-linecap: round"/>
     </g>
     <g id="text_13">
      <!-- 800 -->
      <g style="fill: #262626" transform="translate(29.17625 92.510957) scale(0.1 -0.1)">
       <defs>
        <path id="DejaVuSans-38" d="M 2034 2216 
Q 1584 2216 1326 1975 
Q 1069 1734 1069 1313 
Q 1069 891 1326 650 
Q 1584 409 2034 409 
Q 2484 409 2743 651 
Q 3003 894 3003 1313 
Q 3003 1734 2745 1975 
Q 2488 2216 2034 2216 
z
M 1403 2484 
Q 997 2584 770 2862 
Q 544 3141 544 3541 
Q 544 4100 942 4425 
Q 1341 4750 2034 4750 
Q 2731 4750 3128 4425 
Q 3525 4100 3525 3541 
Q 3525 3141 3298 2862 
Q 3072 2584 2669 2484 
Q 3125 2378 3379 2068 
Q 3634 1759 3634 1313 
Q 3634 634 3220 271 
Q 2806 -91 2034 -91 
Q 1263 -91 848 271 
Q 434 634 434 1313 
Q 434 1759 690 2068 
Q 947 2378 1403 2484 
z
M 1172 3481 
Q 1172 3119 1398 2916 
Q 1625 2713 2034 2713 
Q 2441 2713 2670 2916 
Q 2900 3119 2900 3481 
Q 2900 3844 2670 4047 
Q 2441 4250 2034 4250 
Q 1625 4250 1398 4047 
Q 1172 3844 1172 3481 
z
" transform="scale(0.015625)"/>
       </defs>
       <use xlink:href="#DejaVuSans-38"/>
       <use xlink:href="#DejaVuSans-30" x="63.623047"/>
       <use xlink:href="#DejaVuSans-30" x="127.246094"/>
      </g>
     </g>
    </g>
    <g id="ytick_6">
     <g id="line2d_14">
      <path d="M 55.26375 54.857834 
L 1059.66375 54.857834 
" clip-path="url(#pa56304d869)" style="fill: none; stroke: #cccccc; stroke-width: 0.8; stroke-linecap: round"/>
     </g>
     <g id="text_14">
      <!-- 1000 -->
      <g style="fill: #262626" transform="translate(22.81375 58.657053) scale(0.1 -0.1)">
       <defs>
        <path id="DejaVuSans-31" d="M 794 531 
L 1825 531 
L 1825 4091 
L 703 3866 
L 703 4441 
L 1819 4666 
L 2450 4666 
L 2450 531 
L 3481 531 
L 3481 0 
L 794 0 
L 794 531 
z
" transform="scale(0.015625)"/>
       </defs>
       <use xlink:href="#DejaVuSans-31"/>
       <use xlink:href="#DejaVuSans-30" x="63.623047"/>
       <use xlink:href="#DejaVuSans-30" x="127.246094"/>
       <use xlink:href="#DejaVuSans-30" x="190.869141"/>
      </g>
     </g>
    </g>
    <g id="ytick_7">
     <g id="line2d_15">
      <path d="M 55.26375 21.003929 
L 1059.66375 21.003929 
" clip-path="url(#pa56304d869)" style="fill: none; stroke: #cccccc; stroke-width: 0.8; stroke-linecap: round"/>
     </g>
     <g id="text_15">
      <!-- 1200 -->
      <g style="fill: #262626" transform="translate(22.81375 24.803148) scale(0.1 -0.1)">
       <use xlink:href="#DejaVuSans-31"/>
       <use xlink:href="#DejaVuSans-32" x="63.623047"/>
       <use xlink:href="#DejaVuSans-30" x="127.246094"/>
       <use xlink:href="#DejaVuSans-30" x="190.869141"/>
      </g>
     </g>
    </g>
    <g id="text_16">
     <!-- latency (ms) -->
     <g style="fill: #262626" transform="translate(16.318125 155.679375) rotate(-90) scale(0.12 -0.12)">
      <defs>
       <path id="DejaVuSans-6c" d="M 603 4863 
L 1178 4863 
L 1178 0 
L 603 0 
L 603 4863 
z
" transform="scale(0.015625)"/>
       <path id="DejaVuSans-79" d="M 2059 -325 
Q 1816 -950 1584 -1140 
Q 1353 -1331 966 -1331 
L 506 -1331 
L 506 -850 
L 844 -850 
Q 1081 -850 1212 -737 
Q 1344 -625 1503 -206 
L 1606 56 
L 191 3500 
L 800 3500 
L 1894 763 
L 2988 3500 
L 3597 3500 
L 2059 -325 
z
" transform="scale(0.015625)"/>
       <path id="DejaVuSans-20" transform="scale(0.015625)"/>
       <path id="DejaVuSans-28" d="M 1984 4856 
Q 1566 4138 1362 3434 
Q 1159 2731 1159 2009 
Q 1159 1288 1364 580 
Q 1569 -128 1984 -844 
L 1484 -844 
Q 1016 -109 783 600 
Q 550 1309 550 2009 
Q 550 2706 781 3412 
Q 1013 4119 1484 4856 
L 1984 4856 
z
" transform="scale(0.015625)"/>
       <path id="DejaVuSans-29" d="M 513 4856 
L 1013 4856 
Q 1481 4119 1714 3412 
Q 1947 2706 1947 2009 
Q 1947 1309 1714 600 
Q 1481 -109 1013 -844 
L 513 -844 
Q 928 -128 1133 580 
Q 1338 1288 1338 2009 
Q 1338 2731 1133 3434 
Q 928 4138 513 4856 
z
" transform="scale(0.015625)"/>
      </defs>
      <use xlink:href="#DejaVuSans-6c"/>
      <use xlink:href="#DejaVuSans-61" x="27.783203"/>
      <use xlink:href="#DejaVuSans-74" x="89.0625"/>
      <use xlink:href="#DejaVuSans-65" x="128.271484"/>
      <use xlink:href="#DejaVuSans-6e" x="189.794922"/>
      <use xlink:href="#DejaVuSans-63" x="253.173828"/>
      <use xlink:href="#DejaVuSans-79" x="308.154297"/>
      <use xlink:href="#DejaVuSans-20" x="367.333984"/>
      <use xlink:href="#DejaVuSans-28" x="399.121094"/>
      <use xlink:href="#DejaVuSans-6d" x="438.134766"/>
      <use xlink:href="#DejaVuSans-73" x="535.546875"/>
      <use xlink:href="#DejaVuSans-29" x="587.646484"/>
     </g>
    </g>
   </g>
   <g id="line2d_16">
    <path d="M 86.65125 213.632645 
L 149.42625 213.632645 
L 149.42625 204.66136 
L 86.65125 204.66136 
L 86.65125 213.632645 
" clip-path="url(#pa56304d869)" style="fill: none; stroke: #000000; stroke-linecap: round"/>
   </g>
   <g id="line2d_17">
    <path d="M 118.03875 213.632645 
L 118.03875 218.88 
" clip-path="url(#pa56304d869)" style="fill: none; stroke: #000000; stroke-linecap: round"/>
   </g>
   <g id="line2d_18">
    <path d="M 118.03875 204.66136 
L 118.03875 197.55204 
" clip-path="url(#pa56304d869)" style="fill: none; stroke: #000000; stroke-linecap: round"/>
   </g>
   <g id="line2d_19">
    <path d="M 102.345 218.88 
L 133.7325 218.88 
" clip-path="url(#pa56304d869)" style="fill: none; stroke: #000000; stroke-linecap: round"/>
   </g>
   <g id="line2d_20">
    <path d="M 102.345 197.55204 
L 133.7325 197.55204 
" clip-path="url(#pa56304d869)" style="fill: none; stroke: #000000; stroke-linecap: round"/>
   </g>
   <g id="line2d_21"/>
   <g id="line2d_22">
    <path d="M 212.20125 201.487557 
L 274.97625 201.487557 
L 274.97625 178.255315 
L 212.20125 178.255315 
L 212.20125 201.487557 
" clip-path="url(#pa56304d869)" style="fill: none; stroke: #000000; stroke-linecap: round"/>
   </g>
   <g id="line2d_23">
    <path d="M 243.58875 201.487557 
L 243.58875 214.478992 
" clip-path="url(#pa56304d869)" style="fill: none; stroke: #000000; stroke-linecap: round"/>
   </g>
   <g id="line2d_24">
    <path d="M 243.58875 178.255315 
L 243.58875 144.401411 
" clip-path="url(#pa56304d869)" style="fill: none; stroke: #000000; stroke-linecap: round"/>
   </g>
   <g id="line2d_25">
    <path d="M 227.895 214.478992 
L 259.2825 214.478992 
" clip-path="url(#pa56304d869)" style="fill: none; stroke: #000000; stroke-linecap: round"/>
   </g>
   <g id="line2d_26">
    <path d="M 227.895 144.401411 
L 259.2825 144.401411 
" clip-path="url(#pa56304d869)" style="fill: none; stroke: #000000; stroke-linecap: round"/>
   </g>
   <g id="line2d_27">
    <defs>
     <path id="m6ca812c8e7" d="M 0 3 
C 0.795609 3 1.55874 2.683901 2.12132 2.12132 
C 2.683901 1.55874 3 0.795609 3 0 
C 3 -0.795609 2.683901 -1.55874 2.12132 -2.12132 
C 1.55874 -2.683901 0.795609 -3 0 -3 
C -0.795609 -3 -1.55874 -2.683901 -2.12132 -2.12132 
C -2.683901 -1.55874 -3 -0.795609 -3 0 
C -3 0.795609 -2.683901 1.55874 -2.12132 2.12132 
C -1.55874 2.683901 -0.795609 3 0 3 
z
" style="stroke: #000000"/>
    </defs>
    <g clip-path="url(#pa56304d869)">
     <use xlink:href="#m6ca812c8e7" x="243.58875" y="122.227103" style="fill-opacity: 0; stroke: #000000"/>
     <use xlink:href="#m6ca812c8e7" x="243.58875" y="100.899144" style="fill-opacity: 0; stroke: #000000"/>
     <use xlink:href="#m6ca812c8e7" x="243.58875" y="97.344484" style="fill-opacity: 0; stroke: #000000"/>
     <use xlink:href="#m6ca812c8e7" x="243.58875" y="85.834156" style="fill-opacity: 0; stroke: #000000"/>
     <use xlink:href="#m6ca812c8e7" x="243.58875" y="138.984786" style="fill-opacity: 0; stroke: #000000"/>
     <use xlink:href="#m6ca812c8e7" x="243.58875" y="133.060353" style="fill-opacity: 0; stroke: #000000"/>
     <use xlink:href="#m6ca812c8e7" x="243.58875" y="132.044736" style="fill-opacity: 0; stroke: #000000"/>
     <use xlink:href="#m6ca812c8e7" x="243.58875" y="137.63063" style="fill-opacity: 0; stroke: #000000"/>
     <use xlink:href="#m6ca812c8e7" x="243.58875" y="143.047254" style="fill-opacity: 0; stroke: #000000"/>
     <use xlink:href="#m6ca812c8e7" x="243.58875" y="106.654307" style="fill-opacity: 0; stroke: #000000"/>
     <use xlink:href="#m6ca812c8e7" x="243.58875" y="76.862872" style="fill-opacity: 0; stroke: #000000"/>
     <use xlink:href="#m6ca812c8e7" x="243.58875" y="140.508212" style="fill-opacity: 0; stroke: #000000"/>
     <use xlink:href="#m6ca812c8e7" x="243.58875" y="141.01602" style="fill-opacity: 0; stroke: #000000"/>
     <use xlink:href="#m6ca812c8e7" x="243.58875" y="134.245239" style="fill-opacity: 0; stroke: #000000"/>
     <use xlink:href="#m6ca812c8e7" x="243.58875" y="135.599395" style="fill-opacity: 0; stroke: #000000"/>
     <use xlink:href="#m6ca812c8e7" x="243.58875" y="132.044736" style="fill-opacity: 0; stroke: #000000"/>
     <use xlink:href="#m6ca812c8e7" x="243.58875" y="130.52131" style="fill-opacity: 0; stroke: #000000"/>
     <use xlink:href="#m6ca812c8e7" x="243.58875" y="137.46136" style="fill-opacity: 0; stroke: #000000"/>
     <use xlink:href="#m6ca812c8e7" x="243.58875" y="96.498136" style="fill-opacity: 0; stroke: #000000"/>
     <use xlink:href="#m6ca812c8e7" x="243.58875" y="143.047254" style="fill-opacity: 0; stroke: #000000"/>
     <use xlink:href="#m6ca812c8e7" x="243.58875" y="134.245239" style="fill-opacity: 0; stroke: #000000"/>
     <use xlink:href="#m6ca812c8e7" x="243.58875" y="137.46136" style="fill-opacity: 0; stroke: #000000"/>
     <use xlink:href="#m6ca812c8e7" x="243.58875" y="135.430126" style="fill-opacity: 0; stroke: #000000"/>
     <use xlink:href="#m6ca812c8e7" x="243.58875" y="131.706196" style="fill-opacity: 0; stroke: #000000"/>
     <use xlink:href="#m6ca812c8e7" x="243.58875" y="143.385793" style="fill-opacity: 0; stroke: #000000"/>
     <use xlink:href="#m6ca812c8e7" x="243.58875" y="127.812997" style="fill-opacity: 0; stroke: #000000"/>
     <use xlink:href="#m6ca812c8e7" x="243.58875" y="141.18529" style="fill-opacity: 0; stroke: #000000"/>
     <use xlink:href="#m6ca812c8e7" x="243.58875" y="136.445743" style="fill-opacity: 0; stroke: #000000"/>
     <use xlink:href="#m6ca812c8e7" x="243.58875" y="143.216524" style="fill-opacity: 0; stroke: #000000"/>
     <use xlink:href="#m6ca812c8e7" x="243.58875" y="143.216524" style="fill-opacity: 0; stroke: #000000"/>
    </g>
   </g>
   <g id="line2d_28">
    <path d="M 337.75125 211.432141 
L 400.52625 211.432141 
L 400.52625 202.460856 
L 337.75125 202.460856 
L 337.75125 211.432141 
" clip-path="url(#pa56304d869)" style="fill: none; stroke: #000000; stroke-linecap: round"/>
   </g>
   <g id="line2d_29">
    <path d="M 369.13875 211.432141 
L 369.13875 218.541461 
" clip-path="url(#pa56304d869)" style="fill: none; stroke: #000000; stroke-linecap: round"/>
   </g>
   <g id="line2d_30">
    <path d="M 369.13875 202.460856 
L 369.13875 191.289068 
" clip-path="url(#pa56304d869)" style="fill: none; stroke: #000000; stroke-linecap: round"/>
   </g>
   <g id="line2d_31">
    <path d="M 353.445 218.541461 
L 384.8325 218.541461 
" clip-path="url(#pa56304d869)" style="fill: none; stroke: #000000; stroke-linecap: round"/>
   </g>
   <g id="line2d_32">
    <path d="M 353.445 191.289068 
L 384.8325 191.289068 
" clip-path="url(#pa56304d869)" style="fill: none; stroke: #000000; stroke-linecap: round"/>
   </g>
   <g id="line2d_33"/>
   <g id="line2d_34">
    <path d="M 463.30125 183.164131 
L 526.07625 183.164131 
L 526.07625 143.047254 
L 463.30125 143.047254 
L 463.30125 183.164131 
" clip-path="url(#pa56304d869)" style="fill: none; stroke: #000000; stroke-linecap: round"/>
   </g>
   <g id="line2d_35">
    <path d="M 494.68875 183.164131 
L 494.68875 212.109219 
" clip-path="url(#pa56304d869)" style="fill: none; stroke: #000000; stroke-linecap: round"/>
   </g>
   <g id="line2d_36">
    <path d="M 494.68875 143.047254 
L 494.68875 83.464383 
" clip-path="url(#pa56304d869)" style="fill: none; stroke: #000000; stroke-linecap: round"/>
   </g>
   <g id="line2d_37">
    <path d="M 478.995 212.109219 
L 510.3825 212.109219 
" clip-path="url(#pa56304d869)" style="fill: none; stroke: #000000; stroke-linecap: round"/>
   </g>
   <g id="line2d_38">
    <path d="M 478.995 83.464383 
L 510.3825 83.464383 
" clip-path="url(#pa56304d869)" style="fill: none; stroke: #000000; stroke-linecap: round"/>
   </g>
   <g id="line2d_39">
    <g clip-path="url(#pa56304d869)">
     <use xlink:href="#m6ca812c8e7" x="494.68875" y="39.115768" style="fill-opacity: 0; stroke: #000000"/>
     <use xlink:href="#m6ca812c8e7" x="494.68875" y="21.342469" style="fill-opacity: 0; stroke: #000000"/>
     <use xlink:href="#m6ca812c8e7" x="494.68875" y="65.860353" style="fill-opacity: 0; stroke: #000000"/>
     <use xlink:href="#m6ca812c8e7" x="494.68875" y="46.902166" style="fill-opacity: 0; stroke: #000000"/>
     <use xlink:href="#m6ca812c8e7" x="494.68875" y="71.784786" style="fill-opacity: 0; stroke: #000000"/>
     <use xlink:href="#m6ca812c8e7" x="494.68875" y="42.501159" style="fill-opacity: 0; stroke: #000000"/>
     <use xlink:href="#m6ca812c8e7" x="494.68875" y="79.909723" style="fill-opacity: 0; stroke: #000000"/>
     <use xlink:href="#m6ca812c8e7" x="494.68875" y="75.170176" style="fill-opacity: 0; stroke: #000000"/>
     <use xlink:href="#m6ca812c8e7" x="494.68875" y="28.282519" style="fill-opacity: 0; stroke: #000000"/>
     <use xlink:href="#m6ca812c8e7" x="494.68875" y="78.047758" style="fill-opacity: 0; stroke: #000000"/>
     <use xlink:href="#m6ca812c8e7" x="494.68875" y="78.047758" style="fill-opacity: 0; stroke: #000000"/>
     <use xlink:href="#m6ca812c8e7" x="494.68875" y="52.318791" style="fill-opacity: 0; stroke: #000000"/>
     <use xlink:href="#m6ca812c8e7" x="494.68875" y="17.28" style="fill-opacity: 0; stroke: #000000"/>
     <use xlink:href="#m6ca812c8e7" x="494.68875" y="64.844736" style="fill-opacity: 0; stroke: #000000"/>
     <use xlink:href="#m6ca812c8e7" x="494.68875" y="62.982771" style="fill-opacity: 0; stroke: #000000"/>
     <use xlink:href="#m6ca812c8e7" x="494.68875" y="73.138942" style="fill-opacity: 0; stroke: #000000"/>
     <use xlink:href="#m6ca812c8e7" x="494.68875" y="37.930882" style="fill-opacity: 0; stroke: #000000"/>
     <use xlink:href="#m6ca812c8e7" x="494.68875" y="74.154559" style="fill-opacity: 0; stroke: #000000"/>
     <use xlink:href="#m6ca812c8e7" x="494.68875" y="71.954055" style="fill-opacity: 0; stroke: #000000"/>
     <use xlink:href="#m6ca812c8e7" x="494.68875" y="18.126348" style="fill-opacity: 0; stroke: #000000"/>
     <use xlink:href="#m6ca812c8e7" x="494.68875" y="71.615516" style="fill-opacity: 0; stroke: #000000"/>
     <use xlink:href="#m6ca812c8e7" x="494.68875" y="69.922821" style="fill-opacity: 0; stroke: #000000"/>
     <use xlink:href="#m6ca812c8e7" x="494.68875" y="69.753552" style="fill-opacity: 0; stroke: #000000"/>
     <use xlink:href="#m6ca812c8e7" x="494.68875" y="69.076474" style="fill-opacity: 0; stroke: #000000"/>
     <use xlink:href="#m6ca812c8e7" x="494.68875" y="58.920302" style="fill-opacity: 0; stroke: #000000"/>
     <use xlink:href="#m6ca812c8e7" x="494.68875" y="57.058338" style="fill-opacity: 0; stroke: #000000"/>
     <use xlink:href="#m6ca812c8e7" x="494.68875" y="78.894106" style="fill-opacity: 0; stroke: #000000"/>
     <use xlink:href="#m6ca812c8e7" x="494.68875" y="71.446247" style="fill-opacity: 0; stroke: #000000"/>
     <use xlink:href="#m6ca812c8e7" x="494.68875" y="73.308212" style="fill-opacity: 0; stroke: #000000"/>
     <use xlink:href="#m6ca812c8e7" x="494.68875" y="59.258841" style="fill-opacity: 0; stroke: #000000"/>
     <use xlink:href="#m6ca812c8e7" x="494.68875" y="75.000907" style="fill-opacity: 0; stroke: #000000"/>
     <use xlink:href="#m6ca812c8e7" x="494.68875" y="73.308212" style="fill-opacity: 0; stroke: #000000"/>
     <use xlink:href="#m6ca812c8e7" x="494.68875" y="78.217028" style="fill-opacity: 0; stroke: #000000"/>
     <use xlink:href="#m6ca812c8e7" x="494.68875" y="81.433149" style="fill-opacity: 0; stroke: #000000"/>
     <use xlink:href="#m6ca812c8e7" x="494.68875" y="81.433149" style="fill-opacity: 0; stroke: #000000"/>
     <use xlink:href="#m6ca812c8e7" x="494.68875" y="74.323829" style="fill-opacity: 0; stroke: #000000"/>
     <use xlink:href="#m6ca812c8e7" x="494.68875" y="77.53995" style="fill-opacity: 0; stroke: #000000"/>
    </g>
   </g>
   <g id="line2d_40">
    <path d="M 588.85125 213.463375 
L 651.62625 213.463375 
L 651.62625 204.492091 
L 588.85125 204.492091 
L 588.85125 213.463375 
" clip-path="url(#pa56304d869)" style="fill: none; stroke: #000000; stroke-linecap: round"/>
   </g>
   <g id="line2d_41">
    <path d="M 620.23875 213.463375 
L 620.23875 218.71073 
" clip-path="url(#pa56304d869)" style="fill: none; stroke: #000000; stroke-linecap: round"/>
   </g>
   <g id="line2d_42">
    <path d="M 620.23875 204.492091 
L 620.23875 199.921814 
" clip-path="url(#pa56304d869)" style="fill: none; stroke: #000000; stroke-linecap: round"/>
   </g>
   <g id="line2d_43">
    <path d="M 604.545 218.71073 
L 635.9325 218.71073 
" clip-path="url(#pa56304d869)" style="fill: none; stroke: #000000; stroke-linecap: round"/>
   </g>
   <g id="line2d_44">
    <path d="M 604.545 199.921814 
L 635.9325 199.921814 
" clip-path="url(#pa56304d869)" style="fill: none; stroke: #000000; stroke-linecap: round"/>
   </g>
   <g id="line2d_45"/>
   <g id="line2d_46">
    <path d="M 714.40125 202.291587 
L 777.17625 202.291587 
L 777.17625 177.070428 
L 714.40125 177.070428 
L 714.40125 202.291587 
" clip-path="url(#pa56304d869)" style="fill: none; stroke: #000000; stroke-linecap: round"/>
   </g>
   <g id="line2d_47">
    <path d="M 745.78875 202.291587 
L 745.78875 216.002418 
" clip-path="url(#pa56304d869)" style="fill: none; stroke: #000000; stroke-linecap: round"/>
   </g>
   <g id="line2d_48">
    <path d="M 745.78875 177.070428 
L 745.78875 140.000403 
" clip-path="url(#pa56304d869)" style="fill: none; stroke: #000000; stroke-linecap: round"/>
   </g>
   <g id="line2d_49">
    <path d="M 730.095 216.002418 
L 761.4825 216.002418 
" clip-path="url(#pa56304d869)" style="fill: none; stroke: #000000; stroke-linecap: round"/>
   </g>
   <g id="line2d_50">
    <path d="M 730.095 140.000403 
L 761.4825 140.000403 
" clip-path="url(#pa56304d869)" style="fill: none; stroke: #000000; stroke-linecap: round"/>
   </g>
   <g id="line2d_51">
    <g clip-path="url(#pa56304d869)">
     <use xlink:href="#m6ca812c8e7" x="745.78875" y="104.961612" style="fill-opacity: 0; stroke: #000000"/>
     <use xlink:href="#m6ca812c8e7" x="745.78875" y="104.792343" style="fill-opacity: 0; stroke: #000000"/>
     <use xlink:href="#m6ca812c8e7" x="745.78875" y="130.013501" style="fill-opacity: 0; stroke: #000000"/>
     <use xlink:href="#m6ca812c8e7" x="745.78875" y="137.46136" style="fill-opacity: 0; stroke: #000000"/>
     <use xlink:href="#m6ca812c8e7" x="745.78875" y="137.969169" style="fill-opacity: 0; stroke: #000000"/>
     <use xlink:href="#m6ca812c8e7" x="745.78875" y="130.013501" style="fill-opacity: 0; stroke: #000000"/>
     <use xlink:href="#m6ca812c8e7" x="745.78875" y="96.667406" style="fill-opacity: 0; stroke: #000000"/>
     <use xlink:href="#m6ca812c8e7" x="745.78875" y="133.060353" style="fill-opacity: 0; stroke: #000000"/>
     <use xlink:href="#m6ca812c8e7" x="745.78875" y="100.899144" style="fill-opacity: 0; stroke: #000000"/>
     <use xlink:href="#m6ca812c8e7" x="745.78875" y="84.64927" style="fill-opacity: 0; stroke: #000000"/>
     <use xlink:href="#m6ca812c8e7" x="745.78875" y="135.599395" style="fill-opacity: 0; stroke: #000000"/>
     <use xlink:href="#m6ca812c8e7" x="745.78875" y="135.091587" style="fill-opacity: 0; stroke: #000000"/>
     <use xlink:href="#m6ca812c8e7" x="745.78875" y="122.396373" style="fill-opacity: 0; stroke: #000000"/>
     <use xlink:href="#m6ca812c8e7" x="745.78875" y="137.63063" style="fill-opacity: 0; stroke: #000000"/>
     <use xlink:href="#m6ca812c8e7" x="745.78875" y="112.240202" style="fill-opacity: 0; stroke: #000000"/>
     <use xlink:href="#m6ca812c8e7" x="745.78875" y="139.154055" style="fill-opacity: 0; stroke: #000000"/>
     <use xlink:href="#m6ca812c8e7" x="745.78875" y="138.307708" style="fill-opacity: 0; stroke: #000000"/>
     <use xlink:href="#m6ca812c8e7" x="745.78875" y="137.969169" style="fill-opacity: 0; stroke: #000000"/>
     <use xlink:href="#m6ca812c8e7" x="745.78875" y="134.922317" style="fill-opacity: 0; stroke: #000000"/>
     <use xlink:href="#m6ca812c8e7" x="745.78875" y="91.58932" style="fill-opacity: 0; stroke: #000000"/>
     <use xlink:href="#m6ca812c8e7" x="745.78875" y="138.646247" style="fill-opacity: 0; stroke: #000000"/>
     <use xlink:href="#m6ca812c8e7" x="745.78875" y="134.922317" style="fill-opacity: 0; stroke: #000000"/>
     <use xlink:href="#m6ca812c8e7" x="745.78875" y="131.198388" style="fill-opacity: 0; stroke: #000000"/>
     <use xlink:href="#m6ca812c8e7" x="745.78875" y="135.599395" style="fill-opacity: 0; stroke: #000000"/>
     <use xlink:href="#m6ca812c8e7" x="745.78875" y="124.427607" style="fill-opacity: 0; stroke: #000000"/>
     <use xlink:href="#m6ca812c8e7" x="745.78875" y="135.430126" style="fill-opacity: 0; stroke: #000000"/>
     <use xlink:href="#m6ca812c8e7" x="745.78875" y="133.9067" style="fill-opacity: 0; stroke: #000000"/>
     <use xlink:href="#m6ca812c8e7" x="745.78875" y="126.289572" style="fill-opacity: 0; stroke: #000000"/>
     <use xlink:href="#m6ca812c8e7" x="745.78875" y="101.914761" style="fill-opacity: 0; stroke: #000000"/>
     <use xlink:href="#m6ca812c8e7" x="745.78875" y="106.485038" style="fill-opacity: 0; stroke: #000000"/>
     <use xlink:href="#m6ca812c8e7" x="745.78875" y="108.854811" style="fill-opacity: 0; stroke: #000000"/>
     <use xlink:href="#m6ca812c8e7" x="745.78875" y="105.469421" style="fill-opacity: 0; stroke: #000000"/>
     <use xlink:href="#m6ca812c8e7" x="745.78875" y="134.753048" style="fill-opacity: 0; stroke: #000000"/>
     <use xlink:href="#m6ca812c8e7" x="745.78875" y="125.104685" style="fill-opacity: 0; stroke: #000000"/>
     <use xlink:href="#m6ca812c8e7" x="745.78875" y="136.953552" style="fill-opacity: 0; stroke: #000000"/>
     <use xlink:href="#m6ca812c8e7" x="745.78875" y="136.107204" style="fill-opacity: 0; stroke: #000000"/>
     <use xlink:href="#m6ca812c8e7" x="745.78875" y="133.568161" style="fill-opacity: 0; stroke: #000000"/>
     <use xlink:href="#m6ca812c8e7" x="745.78875" y="129.167154" style="fill-opacity: 0; stroke: #000000"/>
     <use xlink:href="#m6ca812c8e7" x="745.78875" y="125.273955" style="fill-opacity: 0; stroke: #000000"/>
    </g>
   </g>
   <g id="line2d_52">
    <path d="M 839.95125 208.21602 
L 902.72625 208.21602 
L 902.72625 201.614509 
L 839.95125 201.614509 
L 839.95125 208.21602 
" clip-path="url(#pa56304d869)" style="fill: none; stroke: #000000; stroke-linecap: round"/>
   </g>
   <g id="line2d_53">
    <path d="M 871.33875 208.21602 
L 871.33875 217.018035 
" clip-path="url(#pa56304d869)" style="fill: none; stroke: #000000; stroke-linecap: round"/>
   </g>
   <g id="line2d_54">
    <path d="M 871.33875 201.614509 
L 871.33875 195.520806 
" clip-path="url(#pa56304d869)" style="fill: none; stroke: #000000; stroke-linecap: round"/>
   </g>
   <g id="line2d_55">
    <path d="M 855.645 217.018035 
L 887.0325 217.018035 
" clip-path="url(#pa56304d869)" style="fill: none; stroke: #000000; stroke-linecap: round"/>
   </g>
   <g id="line2d_56">
    <path d="M 855.645 195.520806 
L 887.0325 195.520806 
" clip-path="url(#pa56304d869)" style="fill: none; stroke: #000000; stroke-linecap: round"/>
   </g>
   <g id="line2d_57"/>
   <g id="line2d_58">
    <path d="M 965.50125 208.554559 
L 1028.27625 208.554559 
L 1028.27625 202.291587 
L 965.50125 202.291587 
L 965.50125 208.554559 
" clip-path="url(#pa56304d869)" style="fill: none; stroke: #000000; stroke-linecap: round"/>
   </g>
   <g id="line2d_59">
    <path d="M 996.88875 208.554559 
L 996.88875 215.663879 
" clip-path="url(#pa56304d869)" style="fill: none; stroke: #000000; stroke-linecap: round"/>
   </g>
   <g id="line2d_60">
    <path d="M 996.88875 202.291587 
L 996.88875 196.197884 
" clip-path="url(#pa56304d869)" style="fill: none; stroke: #000000; stroke-linecap: round"/>
   </g>
   <g id="line2d_61">
    <path d="M 981.195 215.663879 
L 1012.5825 215.663879 
" clip-path="url(#pa56304d869)" style="fill: none; stroke: #000000; stroke-linecap: round"/>
   </g>
   <g id="line2d_62">
    <path d="M 981.195 196.197884 
L 1012.5825 196.197884 
" clip-path="url(#pa56304d869)" style="fill: none; stroke: #000000; stroke-linecap: round"/>
   </g>
   <g id="line2d_63">
    <g clip-path="url(#pa56304d869)">
     <use xlink:href="#m6ca812c8e7" x="996.88875" y="218.202922" style="fill-opacity: 0; stroke: #000000"/>
     <use xlink:href="#m6ca812c8e7" x="996.88875" y="218.202922" style="fill-opacity: 0; stroke: #000000"/>
    </g>
   </g>
   <g id="line2d_64">
    <path d="M 86.65125 209.400907 
L 149.42625 209.400907 
" clip-path="url(#pa56304d869)" style="fill: none; stroke: #ff7f0e"/>
   </g>
   <g id="line2d_65">
    <path d="M 212.20125 194.16665 
L 274.97625 194.16665 
" clip-path="url(#pa56304d869)" style="fill: none; stroke: #ff7f0e"/>
   </g>
   <g id="line2d_66">
    <path d="M 337.75125 207.031134 
L 400.52625 207.031134 
" clip-path="url(#pa56304d869)" style="fill: none; stroke: #ff7f0e"/>
   </g>
   <g id="line2d_67">
    <path d="M 463.30125 162.851788 
L 526.07625 162.851788 
" clip-path="url(#pa56304d869)" style="fill: none; stroke: #ff7f0e"/>
   </g>
   <g id="line2d_68">
    <path d="M 588.85125 209.570176 
L 651.62625 209.570176 
" clip-path="url(#pa56304d869)" style="fill: none; stroke: #ff7f0e"/>
   </g>
   <g id="line2d_69">
    <path d="M 714.40125 194.759093 
L 777.17625 194.759093 
" clip-path="url(#pa56304d869)" style="fill: none; stroke: #ff7f0e"/>
   </g>
   <g id="line2d_70">
    <path d="M 839.95125 204.83063 
L 902.72625 204.83063 
" clip-path="url(#pa56304d869)" style="fill: none; stroke: #ff7f0e"/>
   </g>
   <g id="line2d_71">
    <path d="M 965.50125 205.338438 
L 1028.27625 205.338438 
" clip-path="url(#pa56304d869)" style="fill: none; stroke: #ff7f0e"/>
   </g>
   <g id="patch_3">
    <path d="M 55.26375 228.96 
L 55.26375 7.2 
" style="fill: none; stroke: #cccccc; stroke-width: 0.8; stroke-linejoin: miter; stroke-linecap: square"/>
   </g>
   <g id="patch_4">
    <path d="M 1059.66375 228.96 
L 1059.66375 7.2 
" style="fill: none; stroke: #cccccc; stroke-width: 0.8; stroke-linejoin: miter; stroke-linecap: square"/>
   </g>
   <g id="patch_5">
    <path d="M 55.26375 228.96 
L 1059.66375 228.96 
" style="fill: none; stroke: #cccccc; stroke-width: 0.8; stroke-linejoin: miter; stroke-linecap: square"/>
   </g>
   <g id="patch_6">
    <path d="M 55.26375 7.2 
L 1059.66375 7.2 
" style="fill: none; stroke: #cccccc; stroke-width: 0.8; stroke-linejoin: miter; stroke-linecap: square"/>
   </g>
  </g>
 </g>
 <defs>
  <clipPath id="pa56304d869">
   <rect x="55.26375" y="7.2" width="1004.4" height="221.76"/>
  </clipPath>
 </defs>
</svg>
