<?xml version="1.0" encoding="utf-8" standalone="no"?>
<!DOCTYPE svg PUBLIC "-//W3C//DTD SVG 1.1//EN"
  "http://www.w3.org/Graphics/SVG/1.1/DTD/svg11.dtd">
<svg xmlns:xlink="http://www.w3.org/1999/xlink" width="1085.90625pt" height="273.216237pt" viewBox="0 0 1085.90625 273.216237" xmlns="http://www.w3.org/2000/svg" version="1.1">
 <metadata>
  <rdf:RDF xmlns:dc="http://purl.org/dc/elements/1.1/" xmlns:cc="http://creativecommons.org/ns#" xmlns:rdf="http://www.w3.org/1999/02/22-rdf-syntax-ns#">
   <cc:Work>
    <dc:type rdf:resource="http://purl.org/dc/dcmitype/StillImage"/>
    <dc:date>2023-11-14T18:52:36.414487</dc:date>
    <dc:format>image/svg+xml</dc:format>
    <dc:creator>
     <cc:Agent>
      <dc:title>Matplotlib v3.7.1, https://matplotlib.org/</dc:title>
     </cc:Agent>
    </dc:creator>
   </cc:Work>
  </rdf:RDF>
 </metadata>
 <defs>
  <style type="text/css">*{stroke-linejoin: round; stroke-linecap: butt}</style>
 </defs>
 <g id="figure_1">
  <g id="patch_1">
   <path d="M 0 273.216237 
L 1085.90625 273.216237 
L 1085.90625 0 
L 0 0 
z
" style="fill: #ffffff"/>
  </g>
  <g id="axes_1">
   <g id="patch_2">
    <path d="M 74.30625 228.96 
L 1078.70625 228.96 
L 1078.70625 7.2 
L 74.30625 7.2 
z
" style="fill: #ffffff"/>
   </g>
   <g id="matplotlib.axis_1">
    <g id="xtick_1">
     <g id="line2d_1">
      <path d="M 158.00625 228.96 
L 158.00625 7.2 
" clip-path="url(#pdf1153d5db)" style="fill: none; stroke: #cccccc; stroke-linecap: round"/>
     </g>
     <g id="text_1">
      <!-- top-down -->
      <g style="fill: #262626" transform="translate(127.000688 248.489937) scale(0.132 -0.132)">
       <defs>
        <path id="DejaVuSans-74" d="M 1172 4494 
L 1172 3500 
L 2356 3500 
L 2356 3053 
L 1172 3053 
L 1172 1153 
Q 1172 725 1289 603 
Q 1406 481 1766 481 
L 2356 481 
L 2356 0 
L 1766 0 
Q 1100 0 847 248 
Q 594 497 594 1153 
L 594 3053 
L 172 3053 
L 172 3500 
L 594 3500 
L 594 4494 
L 1172 4494 
z
" transform="scale(0.015625)"/>
        <path id="DejaVuSans-6f" d="M 1959 3097 
Q 1497 3097 1228 2736 
Q 959 2375 959 1747 
Q 959 1119 1226 758 
Q 1494 397 1959 397 
Q 2419 397 2687 759 
Q 2956 1122 2956 1747 
Q 2956 2369 2687 2733 
Q 2419 3097 1959 3097 
z
M 1959 3584 
Q 2709 3584 3137 3096 
Q 3566 2609 3566 1747 
Q 3566 888 3137 398 
Q 2709 -91 1959 -91 
Q 1206 -91 779 398 
Q 353 888 353 1747 
Q 353 2609 779 3096 
Q 1206 3584 1959 3584 
z
" transform="scale(0.015625)"/>
        <path id="DejaVuSans-70" d="M 1159 525 
L 1159 -1331 
L 581 -1331 
L 581 3500 
L 1159 3500 
L 1159 2969 
Q 1341 3281 1617 3432 
Q 1894 3584 2278 3584 
Q 2916 3584 3314 3078 
Q 3713 2572 3713 1747 
Q 3713 922 3314 415 
Q 2916 -91 2278 -91 
Q 1894 -91 1617 61 
Q 1341 213 1159 525 
z
M 3116 1747 
Q 3116 2381 2855 2742 
Q 2594 3103 2138 3103 
Q 1681 3103 1420 2742 
Q 1159 2381 1159 1747 
Q 1159 1113 1420 752 
Q 1681 391 2138 391 
Q 2594 391 2855 752 
Q 3116 1113 3116 1747 
z
" transform="scale(0.015625)"/>
        <path id="DejaVuSans-2d" d="M 313 2009 
L 1997 2009 
L 1997 1497 
L 313 1497 
L 313 2009 
z
" transform="scale(0.015625)"/>
        <path id="DejaVuSans-64" d="M 2906 2969 
L 2906 4863 
L 3481 4863 
L 3481 0 
L 2906 0 
L 2906 525 
Q 2725 213 2448 61 
Q 2172 -91 1784 -91 
Q 1150 -91 751 415 
Q 353 922 353 1747 
Q 353 2572 751 3078 
Q 1150 3584 1784 3584 
Q 2172 3584 2448 3432 
Q 2725 3281 2906 2969 
z
M 947 1747 
Q 947 1113 1208 752 
Q 1469 391 1925 391 
Q 2381 391 2643 752 
Q 2906 1113 2906 1747 
Q 2906 2381 2643 2742 
Q 2381 3103 1925 3103 
Q 1469 3103 1208 2742 
Q 947 2381 947 1747 
z
" transform="scale(0.015625)"/>
        <path id="DejaVuSans-77" d="M 269 3500 
L 844 3500 
L 1563 769 
L 2278 3500 
L 2956 3500 
L 3675 769 
L 4391 3500 
L 4966 3500 
L 4050 0 
L 3372 0 
L 2619 2869 
L 1863 0 
L 1184 0 
L 269 3500 
z
" transform="scale(0.015625)"/>
        <path id="DejaVuSans-6e" d="M 3513 2113 
L 3513 0 
L 2938 0 
L 2938 2094 
Q 2938 2591 2744 2837 
Q 2550 3084 2163 3084 
Q 1697 3084 1428 2787 
Q 1159 2491 1159 1978 
L 1159 0 
L 581 0 
L 581 3500 
L 1159 3500 
L 1159 2956 
Q 1366 3272 1645 3428 
Q 1925 3584 2291 3584 
Q 2894 3584 3203 3211 
Q 3513 2838 3513 2113 
z
" transform="scale(0.015625)"/>
       </defs>
       <use xlink:href="#DejaVuSans-74"/>
       <use xlink:href="#DejaVuSans-6f" x="39.208984"/>
       <use xlink:href="#DejaVuSans-70" x="100.390625"/>
       <use xlink:href="#DejaVuSans-2d" x="163.867188"/>
       <use xlink:href="#DejaVuSans-64" x="199.951172"/>
       <use xlink:href="#DejaVuSans-6f" x="263.427734"/>
       <use xlink:href="#DejaVuSans-77" x="324.609375"/>
       <use xlink:href="#DejaVuSans-6e" x="406.396484"/>
      </g>
     </g>
    </g>
    <g id="xtick_2">
     <g id="line2d_2">
      <path d="M 325.40625 228.96 
L 325.40625 7.2 
" clip-path="url(#pdf1153d5db)" style="fill: none; stroke: #cccccc; stroke-linecap: round"/>
     </g>
     <g id="text_2">
      <!-- top-down -->
      <g style="fill: #262626" transform="translate(294.400688 248.489937) scale(0.132 -0.132)">
       <use xlink:href="#DejaVuSans-74"/>
       <use xlink:href="#DejaVuSans-6f" x="39.208984"/>
       <use xlink:href="#DejaVuSans-70" x="100.390625"/>
       <use xlink:href="#DejaVuSans-2d" x="163.867188"/>
       <use xlink:href="#DejaVuSans-64" x="199.951172"/>
       <use xlink:href="#DejaVuSans-6f" x="263.427734"/>
       <use xlink:href="#DejaVuSans-77" x="324.609375"/>
       <use xlink:href="#DejaVuSans-6e" x="406.396484"/>
      </g>
      <!-- stress -->
      <g style="fill: #262626" transform="translate(305.8785 263.27105) scale(0.132 -0.132)">
       <defs>
        <path id="DejaVuSans-73" d="M 2834 3397 
L 2834 2853 
Q 2591 2978 2328 3040 
Q 2066 3103 1784 3103 
Q 1356 3103 1142 2972 
Q 928 2841 928 2578 
Q 928 2378 1081 2264 
Q 1234 2150 1697 2047 
L 1894 2003 
Q 2506 1872 2764 1633 
Q 3022 1394 3022 966 
Q 3022 478 2636 193 
Q 2250 -91 1575 -91 
Q 1294 -91 989 -36 
Q 684 19 347 128 
L 347 722 
Q 666 556 975 473 
Q 1284 391 1588 391 
Q 1994 391 2212 530 
Q 2431 669 2431 922 
Q 2431 1156 2273 1281 
Q 2116 1406 1581 1522 
L 1381 1569 
Q 847 1681 609 1914 
Q 372 2147 372 2553 
Q 372 3047 722 3315 
Q 1072 3584 1716 3584 
Q 2034 3584 2315 3537 
Q 2597 3491 2834 3397 
z
" transform="scale(0.015625)"/>
        <path id="DejaVuSans-72" d="M 2631 2963 
Q 2534 3019 2420 3045 
Q 2306 3072 2169 3072 
Q 1681 3072 1420 2755 
Q 1159 2438 1159 1844 
L 1159 0 
L 581 0 
L 581 3500 
L 1159 3500 
L 1159 2956 
Q 1341 3275 1631 3429 
Q 1922 3584 2338 3584 
Q 2397 3584 2469 3576 
Q 2541 3569 2628 3553 
L 2631 2963 
z
" transform="scale(0.015625)"/>
        <path id="DejaVuSans-65" d="M 3597 1894 
L 3597 1613 
L 953 1613 
Q 991 1019 1311 708 
Q 1631 397 2203 397 
Q 2534 397 2845 478 
Q 3156 559 3463 722 
L 3463 178 
Q 3153 47 2828 -22 
Q 2503 -91 2169 -91 
Q 1331 -91 842 396 
Q 353 884 353 1716 
Q 353 2575 817 3079 
Q 1281 3584 2069 3584 
Q 2775 3584 3186 3129 
Q 3597 2675 3597 1894 
z
M 3022 2063 
Q 3016 2534 2758 2815 
Q 2500 3097 2075 3097 
Q 1594 3097 1305 2825 
Q 1016 2553 972 2059 
L 3022 2063 
z
" transform="scale(0.015625)"/>
       </defs>
       <use xlink:href="#DejaVuSans-73"/>
       <use xlink:href="#DejaVuSans-74" x="52.099609"/>
       <use xlink:href="#DejaVuSans-72" x="91.308594"/>
       <use xlink:href="#DejaVuSans-65" x="130.171875"/>
       <use xlink:href="#DejaVuSans-73" x="191.695312"/>
       <use xlink:href="#DejaVuSans-73" x="243.794922"/>
      </g>
     </g>
    </g>
    <g id="xtick_3">
     <g id="line2d_3">
      <path d="M 492.80625 228.96 
L 492.80625 7.2 
" clip-path="url(#pdf1153d5db)" style="fill: none; stroke: #cccccc; stroke-linecap: round"/>
     </g>
     <g id="text_3">
      <!-- bottom-up -->
      <g style="fill: #262626" transform="translate(458.182031 248.489937) scale(0.132 -0.132)">
       <defs>
        <path id="DejaVuSans-62" d="M 3116 1747 
Q 3116 2381 2855 2742 
Q 2594 3103 2138 3103 
Q 1681 3103 1420 2742 
Q 1159 2381 1159 1747 
Q 1159 1113 1420 752 
Q 1681 391 2138 391 
Q 2594 391 2855 752 
Q 3116 1113 3116 1747 
z
M 1159 2969 
Q 1341 3281 1617 3432 
Q 1894 3584 2278 3584 
Q 2916 3584 3314 3078 
Q 3713 2572 3713 1747 
Q 3713 922 3314 415 
Q 2916 -91 2278 -91 
Q 1894 -91 1617 61 
Q 1341 213 1159 525 
L 1159 0 
L 581 0 
L 581 4863 
L 1159 4863 
L 1159 2969 
z
" transform="scale(0.015625)"/>
        <path id="DejaVuSans-6d" d="M 3328 2828 
Q 3544 3216 3844 3400 
Q 4144 3584 4550 3584 
Q 5097 3584 5394 3201 
Q 5691 2819 5691 2113 
L 5691 0 
L 5113 0 
L 5113 2094 
Q 5113 2597 4934 2840 
Q 4756 3084 4391 3084 
Q 3944 3084 3684 2787 
Q 3425 2491 3425 1978 
L 3425 0 
L 2847 0 
L 2847 2094 
Q 2847 2600 2669 2842 
Q 2491 3084 2119 3084 
Q 1678 3084 1418 2786 
Q 1159 2488 1159 1978 
L 1159 0 
L 581 0 
L 581 3500 
L 1159 3500 
L 1159 2956 
Q 1356 3278 1631 3431 
Q 1906 3584 2284 3584 
Q 2666 3584 2933 3390 
Q 3200 3197 3328 2828 
z
" transform="scale(0.015625)"/>
        <path id="DejaVuSans-75" d="M 544 1381 
L 544 3500 
L 1119 3500 
L 1119 1403 
Q 1119 906 1312 657 
Q 1506 409 1894 409 
Q 2359 409 2629 706 
Q 2900 1003 2900 1516 
L 2900 3500 
L 3475 3500 
L 3475 0 
L 2900 0 
L 2900 538 
Q 2691 219 2414 64 
Q 2138 -91 1772 -91 
Q 1169 -91 856 284 
Q 544 659 544 1381 
z
M 1991 3584 
L 1991 3584 
z
" transform="scale(0.015625)"/>
       </defs>
       <use xlink:href="#DejaVuSans-62"/>
       <use xlink:href="#DejaVuSans-6f" x="63.476562"/>
       <use xlink:href="#DejaVuSans-74" x="124.658203"/>
       <use xlink:href="#DejaVuSans-74" x="163.867188"/>
       <use xlink:href="#DejaVuSans-6f" x="203.076172"/>
       <use xlink:href="#DejaVuSans-6d" x="264.257812"/>
       <use xlink:href="#DejaVuSans-2d" x="361.669922"/>
       <use xlink:href="#DejaVuSans-75" x="397.753906"/>
       <use xlink:href="#DejaVuSans-70" x="461.132812"/>
      </g>
     </g>
    </g>
    <g id="xtick_4">
     <g id="line2d_4">
      <path d="M 660.20625 228.96 
L 660.20625 7.2 
" clip-path="url(#pdf1153d5db)" style="fill: none; stroke: #cccccc; stroke-linecap: round"/>
     </g>
     <g id="text_4">
      <!-- bottom-up -->
      <g style="fill: #262626" transform="translate(625.582031 248.489937) scale(0.132 -0.132)">
       <use xlink:href="#DejaVuSans-62"/>
       <use xlink:href="#DejaVuSans-6f" x="63.476562"/>
       <use xlink:href="#DejaVuSans-74" x="124.658203"/>
       <use xlink:href="#DejaVuSans-74" x="163.867188"/>
       <use xlink:href="#DejaVuSans-6f" x="203.076172"/>
       <use xlink:href="#DejaVuSans-6d" x="264.257812"/>
       <use xlink:href="#DejaVuSans-2d" x="361.669922"/>
       <use xlink:href="#DejaVuSans-75" x="397.753906"/>
       <use xlink:href="#DejaVuSans-70" x="461.132812"/>
      </g>
      <!-- stress -->
      <g style="fill: #262626" transform="translate(640.6785 263.27105) scale(0.132 -0.132)">
       <use xlink:href="#DejaVuSans-73"/>
       <use xlink:href="#DejaVuSans-74" x="52.099609"/>
       <use xlink:href="#DejaVuSans-72" x="91.308594"/>
       <use xlink:href="#DejaVuSans-65" x="130.171875"/>
       <use xlink:href="#DejaVuSans-73" x="191.695312"/>
       <use xlink:href="#DejaVuSans-73" x="243.794922"/>
      </g>
     </g>
    </g>
    <g id="xtick_5">
     <g id="line2d_5">
      <path d="M 827.60625 228.96 
L 827.60625 7.2 
" clip-path="url(#pdf1153d5db)" style="fill: none; stroke: #cccccc; stroke-linecap: round"/>
     </g>
     <g id="text_5">
      <!-- nemo -->
      <g style="fill: #262626" transform="translate(808.89525 248.489937) scale(0.132 -0.132)">
       <use xlink:href="#DejaVuSans-6e"/>
       <use xlink:href="#DejaVuSans-65" x="63.378906"/>
       <use xlink:href="#DejaVuSans-6d" x="124.902344"/>
       <use xlink:href="#DejaVuSans-6f" x="222.314453"/>
      </g>
     </g>
    </g>
    <g id="xtick_6">
     <g id="line2d_6">
      <path d="M 995.00625 228.96 
L 995.00625 7.2 
" clip-path="url(#pdf1153d5db)" style="fill: none; stroke: #cccccc; stroke-linecap: round"/>
     </g>
     <g id="text_6">
      <!-- nemo -->
      <g style="fill: #262626" transform="translate(976.29525 248.489937) scale(0.132 -0.132)">
       <use xlink:href="#DejaVuSans-6e"/>
       <use xlink:href="#DejaVuSans-65" x="63.378906"/>
       <use xlink:href="#DejaVuSans-6d" x="124.902344"/>
       <use xlink:href="#DejaVuSans-6f" x="222.314453"/>
      </g>
      <!-- stress -->
      <g style="fill: #262626" transform="translate(975.4785 263.27105) scale(0.132 -0.132)">
       <use xlink:href="#DejaVuSans-73"/>
       <use xlink:href="#DejaVuSans-74" x="52.099609"/>
       <use xlink:href="#DejaVuSans-72" x="91.308594"/>
       <use xlink:href="#DejaVuSans-65" x="130.171875"/>
       <use xlink:href="#DejaVuSans-73" x="191.695312"/>
       <use xlink:href="#DejaVuSans-73" x="243.794922"/>
      </g>
     </g>
    </g>
   </g>
   <g id="matplotlib.axis_2">
    <g id="ytick_1">
     <g id="line2d_7">
      <path d="M 74.30625 226.830531 
L 1078.70625 226.830531 
" clip-path="url(#pdf1153d5db)" style="fill: none; stroke: #cccccc; stroke-linecap: round"/>
     </g>
     <g id="text_7">
      <!-- 0 -->
      <g style="fill: #262626" transform="translate(56.40775 231.845499) scale(0.132 -0.132)">
       <defs>
        <path id="DejaVuSans-30" d="M 2034 4250 
Q 1547 4250 1301 3770 
Q 1056 3291 1056 2328 
Q 1056 1369 1301 889 
Q 1547 409 2034 409 
Q 2525 409 2770 889 
Q 3016 1369 3016 2328 
Q 3016 3291 2770 3770 
Q 2525 4250 2034 4250 
z
M 2034 4750 
Q 2819 4750 3233 4129 
Q 3647 3509 3647 2328 
Q 3647 1150 3233 529 
Q 2819 -91 2034 -91 
Q 1250 -91 836 529 
Q 422 1150 422 2328 
Q 422 3509 836 4129 
Q 1250 4750 2034 4750 
z
" transform="scale(0.015625)"/>
       </defs>
       <use xlink:href="#DejaVuSans-30"/>
      </g>
     </g>
    </g>
    <g id="ytick_2">
     <g id="line2d_8">
      <path d="M 74.30625 175.718152 
L 1078.70625 175.718152 
" clip-path="url(#pdf1153d5db)" style="fill: none; stroke: #cccccc; stroke-linecap: round"/>
     </g>
     <g id="text_8">
      <!-- 20000 -->
      <g style="fill: #262626" transform="translate(22.81375 180.73312) scale(0.132 -0.132)">
       <defs>
        <path id="DejaVuSans-32" d="M 1228 531 
L 3431 531 
L 3431 0 
L 469 0 
L 469 531 
Q 828 903 1448 1529 
Q 2069 2156 2228 2338 
Q 2531 2678 2651 2914 
Q 2772 3150 2772 3378 
Q 2772 3750 2511 3984 
Q 2250 4219 1831 4219 
Q 1534 4219 1204 4116 
Q 875 4013 500 3803 
L 500 4441 
Q 881 4594 1212 4672 
Q 1544 4750 1819 4750 
Q 2544 4750 2975 4387 
Q 3406 4025 3406 3419 
Q 3406 3131 3298 2873 
Q 3191 2616 2906 2266 
Q 2828 2175 2409 1742 
Q 1991 1309 1228 531 
z
" transform="scale(0.015625)"/>
       </defs>
       <use xlink:href="#DejaVuSans-32"/>
       <use xlink:href="#DejaVuSans-30" x="63.623047"/>
       <use xlink:href="#DejaVuSans-30" x="127.246094"/>
       <use xlink:href="#DejaVuSans-30" x="190.869141"/>
       <use xlink:href="#DejaVuSans-30" x="254.492188"/>
      </g>
     </g>
    </g>
    <g id="ytick_3">
     <g id="line2d_9">
      <path d="M 74.30625 124.605773 
L 1078.70625 124.605773 
" clip-path="url(#pdf1153d5db)" style="fill: none; stroke: #cccccc; stroke-linecap: round"/>
     </g>
     <g id="text_9">
      <!-- 40000 -->
      <g style="fill: #262626" transform="translate(22.81375 129.620742) scale(0.132 -0.132)">
       <defs>
        <path id="DejaVuSans-34" d="M 2419 4116 
L 825 1625 
L 2419 1625 
L 2419 4116 
z
M 2253 4666 
L 3047 4666 
L 3047 1625 
L 3713 1625 
L 3713 1100 
L 3047 1100 
L 3047 0 
L 2419 0 
L 2419 1100 
L 313 1100 
L 313 1709 
L 2253 4666 
z
" transform="scale(0.015625)"/>
       </defs>
       <use xlink:href="#DejaVuSans-34"/>
       <use xlink:href="#DejaVuSans-30" x="63.623047"/>
       <use xlink:href="#DejaVuSans-30" x="127.246094"/>
       <use xlink:href="#DejaVuSans-30" x="190.869141"/>
       <use xlink:href="#DejaVuSans-30" x="254.492188"/>
      </g>
     </g>
    </g>
    <g id="ytick_4">
     <g id="line2d_10">
      <path d="M 74.30625 73.493394 
L 1078.70625 73.493394 
" clip-path="url(#pdf1153d5db)" style="fill: none; stroke: #cccccc; stroke-linecap: round"/>
     </g>
     <g id="text_10">
      <!-- 60000 -->
      <g style="fill: #262626" transform="translate(22.81375 78.508363) scale(0.132 -0.132)">
       <defs>
        <path id="DejaVuSans-36" d="M 2113 2584 
Q 1688 2584 1439 2293 
Q 1191 2003 1191 1497 
Q 1191 994 1439 701 
Q 1688 409 2113 409 
Q 2538 409 2786 701 
Q 3034 994 3034 1497 
Q 3034 2003 2786 2293 
Q 2538 2584 2113 2584 
z
M 3366 4563 
L 3366 3988 
Q 3128 4100 2886 4159 
Q 2644 4219 2406 4219 
Q 1781 4219 1451 3797 
Q 1122 3375 1075 2522 
Q 1259 2794 1537 2939 
Q 1816 3084 2150 3084 
Q 2853 3084 3261 2657 
Q 3669 2231 3669 1497 
Q 3669 778 3244 343 
Q 2819 -91 2113 -91 
Q 1303 -91 875 529 
Q 447 1150 447 2328 
Q 447 3434 972 4092 
Q 1497 4750 2381 4750 
Q 2619 4750 2861 4703 
Q 3103 4656 3366 4563 
z
" transform="scale(0.015625)"/>
       </defs>
       <use xlink:href="#DejaVuSans-36"/>
       <use xlink:href="#DejaVuSans-30" x="63.623047"/>
       <use xlink:href="#DejaVuSans-30" x="127.246094"/>
       <use xlink:href="#DejaVuSans-30" x="190.869141"/>
       <use xlink:href="#DejaVuSans-30" x="254.492188"/>
      </g>
     </g>
    </g>
    <g id="ytick_5">
     <g id="line2d_11">
      <path d="M 74.30625 22.381015 
L 1078.70625 22.381015 
" clip-path="url(#pdf1153d5db)" style="fill: none; stroke: #cccccc; stroke-linecap: round"/>
     </g>
     <g id="text_11">
      <!-- 80000 -->
      <g style="fill: #262626" transform="translate(22.81375 27.395984) scale(0.132 -0.132)">
       <defs>
        <path id="DejaVuSans-38" d="M 2034 2216 
Q 1584 2216 1326 1975 
Q 1069 1734 1069 1313 
Q 1069 891 1326 650 
Q 1584 409 2034 409 
Q 2484 409 2743 651 
Q 3003 894 3003 1313 
Q 3003 1734 2745 1975 
Q 2488 2216 2034 2216 
z
M 1403 2484 
Q 997 2584 770 2862 
Q 544 3141 544 3541 
Q 544 4100 942 4425 
Q 1341 4750 2034 4750 
Q 2731 4750 3128 4425 
Q 3525 4100 3525 3541 
Q 3525 3141 3298 2862 
Q 3072 2584 2669 2484 
Q 3125 2378 3379 2068 
Q 3634 1759 3634 1313 
Q 3634 634 3220 271 
Q 2806 -91 2034 -91 
Q 1263 -91 848 271 
Q 434 634 434 1313 
Q 434 1759 690 2068 
Q 947 2378 1403 2484 
z
M 1172 3481 
Q 1172 3119 1398 2916 
Q 1625 2713 2034 2713 
Q 2441 2713 2670 2916 
Q 2900 3119 2900 3481 
Q 2900 3844 2670 4047 
Q 2441 4250 2034 4250 
Q 1625 4250 1398 4047 
Q 1172 3844 1172 3481 
z
" transform="scale(0.015625)"/>
       </defs>
       <use xlink:href="#DejaVuSans-38"/>
       <use xlink:href="#DejaVuSans-30" x="63.623047"/>
       <use xlink:href="#DejaVuSans-30" x="127.246094"/>
       <use xlink:href="#DejaVuSans-30" x="190.869141"/>
       <use xlink:href="#DejaVuSans-30" x="254.492188"/>
      </g>
     </g>
    </g>
    <g id="text_12">
     <!-- latency (ms) -->
     <g style="fill: #262626" transform="translate(16.318125 155.679375) rotate(-90) scale(0.12 -0.12)">
      <defs>
       <path id="DejaVuSans-6c" d="M 603 4863 
L 1178 4863 
L 1178 0 
L 603 0 
L 603 4863 
z
" transform="scale(0.015625)"/>
       <path id="DejaVuSans-61" d="M 2194 1759 
Q 1497 1759 1228 1600 
Q 959 1441 959 1056 
Q 959 750 1161 570 
Q 1363 391 1709 391 
Q 2188 391 2477 730 
Q 2766 1069 2766 1631 
L 2766 1759 
L 2194 1759 
z
M 3341 1997 
L 3341 0 
L 2766 0 
L 2766 531 
Q 2569 213 2275 61 
Q 1981 -91 1556 -91 
Q 1019 -91 701 211 
Q 384 513 384 1019 
Q 384 1609 779 1909 
Q 1175 2209 1959 2209 
L 2766 2209 
L 2766 2266 
Q 2766 2663 2505 2880 
Q 2244 3097 1772 3097 
Q 1472 3097 1187 3025 
Q 903 2953 641 2809 
L 641 3341 
Q 956 3463 1253 3523 
Q 1550 3584 1831 3584 
Q 2591 3584 2966 3190 
Q 3341 2797 3341 1997 
z
" transform="scale(0.015625)"/>
       <path id="DejaVuSans-63" d="M 3122 3366 
L 3122 2828 
Q 2878 2963 2633 3030 
Q 2388 3097 2138 3097 
Q 1578 3097 1268 2742 
Q 959 2388 959 1747 
Q 959 1106 1268 751 
Q 1578 397 2138 397 
Q 2388 397 2633 464 
Q 2878 531 3122 666 
L 3122 134 
Q 2881 22 2623 -34 
Q 2366 -91 2075 -91 
Q 1284 -91 818 406 
Q 353 903 353 1747 
Q 353 2603 823 3093 
Q 1294 3584 2113 3584 
Q 2378 3584 2631 3529 
Q 2884 3475 3122 3366 
z
" transform="scale(0.015625)"/>
       <path id="DejaVuSans-79" d="M 2059 -325 
Q 1816 -950 1584 -1140 
Q 1353 -1331 966 -1331 
L 506 -1331 
L 506 -850 
L 844 -850 
Q 1081 -850 1212 -737 
Q 1344 -625 1503 -206 
L 1606 56 
L 191 3500 
L 800 3500 
L 1894 763 
L 2988 3500 
L 3597 3500 
L 2059 -325 
z
" transform="scale(0.015625)"/>
       <path id="DejaVuSans-20" transform="scale(0.015625)"/>
       <path id="DejaVuSans-28" d="M 1984 4856 
Q 1566 4138 1362 3434 
Q 1159 2731 1159 2009 
Q 1159 1288 1364 580 
Q 1569 -128 1984 -844 
L 1484 -844 
Q 1016 -109 783 600 
Q 550 1309 550 2009 
Q 550 2706 781 3412 
Q 1013 4119 1484 4856 
L 1984 4856 
z
" transform="scale(0.015625)"/>
       <path id="DejaVuSans-29" d="M 513 4856 
L 1013 4856 
Q 1481 4119 1714 3412 
Q 1947 2706 1947 2009 
Q 1947 1309 1714 600 
Q 1481 -109 1013 -844 
L 513 -844 
Q 928 -128 1133 580 
Q 1338 1288 1338 2009 
Q 1338 2731 1133 3434 
Q 928 4138 513 4856 
z
" transform="scale(0.015625)"/>
      </defs>
      <use xlink:href="#DejaVuSans-6c"/>
      <use xlink:href="#DejaVuSans-61" x="27.783203"/>
      <use xlink:href="#DejaVuSans-74" x="89.0625"/>
      <use xlink:href="#DejaVuSans-65" x="128.271484"/>
      <use xlink:href="#DejaVuSans-6e" x="189.794922"/>
      <use xlink:href="#DejaVuSans-63" x="253.173828"/>
      <use xlink:href="#DejaVuSans-79" x="308.154297"/>
      <use xlink:href="#DejaVuSans-20" x="367.333984"/>
      <use xlink:href="#DejaVuSans-28" x="399.121094"/>
      <use xlink:href="#DejaVuSans-6d" x="438.134766"/>
      <use xlink:href="#DejaVuSans-73" x="535.546875"/>
      <use xlink:href="#DejaVuSans-29" x="587.646484"/>
     </g>
    </g>
   </g>
   <g id="line2d_12">
    <path d="M 116.15625 192.289424 
L 199.85625 192.289424 
L 199.85625 176.003742 
L 116.15625 176.003742 
L 116.15625 192.289424 
" clip-path="url(#pdf1153d5db)" style="fill: none; stroke: #000000; stroke-linecap: round"/>
   </g>
   <g id="line2d_13">
    <path d="M 158.00625 192.289424 
L 158.00625 200.832219 
" clip-path="url(#pdf1153d5db)" style="fill: none; stroke: #000000; stroke-linecap: round"/>
   </g>
   <g id="line2d_14">
    <path d="M 158.00625 176.003742 
L 158.00625 154.064392 
" clip-path="url(#pdf1153d5db)" style="fill: none; stroke: #000000; stroke-linecap: round"/>
   </g>
   <g id="line2d_15">
    <path d="M 137.08125 200.832219 
L 178.93125 200.832219 
" clip-path="url(#pdf1153d5db)" style="fill: none; stroke: #000000; stroke-linecap: round"/>
   </g>
   <g id="line2d_16">
    <path d="M 137.08125 154.064392 
L 178.93125 154.064392 
" clip-path="url(#pdf1153d5db)" style="fill: none; stroke: #000000; stroke-linecap: round"/>
   </g>
   <g id="line2d_17">
    <defs>
     <path id="mc6897d2fe8" d="M 0 3 
C 0.795609 3 1.55874 2.683901 2.12132 2.12132 
C 2.683901 1.55874 3 0.795609 3 0 
C 3 -0.795609 2.683901 -1.55874 2.12132 -2.12132 
C 1.55874 -2.683901 0.795609 -3 0 -3 
C -0.795609 -3 -1.55874 -2.683901 -2.12132 -2.12132 
C -2.683901 -1.55874 -3 -0.795609 -3 0 
C -3 0.795609 -2.683901 1.55874 -2.12132 2.12132 
C -1.55874 2.683901 -0.795609 3 0 3 
z
" style="stroke: #000000"/>
    </defs>
    <g clip-path="url(#pdf1153d5db)">
     <use xlink:href="#mc6897d2fe8" x="158.00625" y="150.851979" style="fill-opacity: 0; stroke: #000000"/>
     <use xlink:href="#mc6897d2fe8" x="158.00625" y="149.216383" style="fill-opacity: 0; stroke: #000000"/>
     <use xlink:href="#mc6897d2fe8" x="158.00625" y="146.282533" style="fill-opacity: 0; stroke: #000000"/>
     <use xlink:href="#mc6897d2fe8" x="158.00625" y="143.333349" style="fill-opacity: 0; stroke: #000000"/>
     <use xlink:href="#mc6897d2fe8" x="158.00625" y="140.42761" style="fill-opacity: 0; stroke: #000000"/>
     <use xlink:href="#mc6897d2fe8" x="158.00625" y="133.330656" style="fill-opacity: 0; stroke: #000000"/>
     <use xlink:href="#mc6897d2fe8" x="158.00625" y="129.911238" style="fill-opacity: 0; stroke: #000000"/>
     <use xlink:href="#mc6897d2fe8" x="158.00625" y="150.213075" style="fill-opacity: 0; stroke: #000000"/>
     <use xlink:href="#mc6897d2fe8" x="158.00625" y="124.943115" style="fill-opacity: 0; stroke: #000000"/>
     <use xlink:href="#mc6897d2fe8" x="158.00625" y="147.88235" style="fill-opacity: 0; stroke: #000000"/>
     <use xlink:href="#mc6897d2fe8" x="158.00625" y="121.687256" style="fill-opacity: 0; stroke: #000000"/>
     <use xlink:href="#mc6897d2fe8" x="158.00625" y="142.464438" style="fill-opacity: 0; stroke: #000000"/>
     <use xlink:href="#mc6897d2fe8" x="158.00625" y="118.178391" style="fill-opacity: 0; stroke: #000000"/>
     <use xlink:href="#mc6897d2fe8" x="158.00625" y="139.218802" style="fill-opacity: 0; stroke: #000000"/>
     <use xlink:href="#mc6897d2fe8" x="158.00625" y="114.181403" style="fill-opacity: 0; stroke: #000000"/>
     <use xlink:href="#mc6897d2fe8" x="158.00625" y="132.167849" style="fill-opacity: 0; stroke: #000000"/>
     <use xlink:href="#mc6897d2fe8" x="158.00625" y="108.528374" style="fill-opacity: 0; stroke: #000000"/>
     <use xlink:href="#mc6897d2fe8" x="158.00625" y="127.054056" style="fill-opacity: 0; stroke: #000000"/>
     <use xlink:href="#mc6897d2fe8" x="158.00625" y="98.510348" style="fill-opacity: 0; stroke: #000000"/>
     <use xlink:href="#mc6897d2fe8" x="158.00625" y="121.012573" style="fill-opacity: 0; stroke: #000000"/>
     <use xlink:href="#mc6897d2fe8" x="158.00625" y="90.150918" style="fill-opacity: 0; stroke: #000000"/>
    </g>
   </g>
   <g id="line2d_18">
    <path d="M 283.55625 134.720274 
L 367.25625 134.720274 
L 367.25625 88.706355 
L 283.55625 88.706355 
L 283.55625 134.720274 
" clip-path="url(#pdf1153d5db)" style="fill: none; stroke: #000000; stroke-linecap: round"/>
   </g>
   <g id="line2d_19">
    <path d="M 325.40625 134.720274 
L 325.40625 158.845956 
" clip-path="url(#pdf1153d5db)" style="fill: none; stroke: #000000; stroke-linecap: round"/>
   </g>
   <g id="line2d_20">
    <path d="M 325.40625 88.706355 
L 325.40625 35.289447 
" clip-path="url(#pdf1153d5db)" style="fill: none; stroke: #000000; stroke-linecap: round"/>
   </g>
   <g id="line2d_21">
    <path d="M 304.48125 158.845956 
L 346.33125 158.845956 
" clip-path="url(#pdf1153d5db)" style="fill: none; stroke: #000000; stroke-linecap: round"/>
   </g>
   <g id="line2d_22">
    <path d="M 304.48125 35.289447 
L 346.33125 35.289447 
" clip-path="url(#pdf1153d5db)" style="fill: none; stroke: #000000; stroke-linecap: round"/>
   </g>
   <g id="line2d_23">
    <g clip-path="url(#pdf1153d5db)">
     <use xlink:href="#mc6897d2fe8" x="325.40625" y="17.28" style="fill-opacity: 0; stroke: #000000"/>
    </g>
   </g>
   <g id="line2d_24">
    <path d="M 450.95625 197.978232 
L 534.65625 197.978232 
L 534.65625 193.160251 
L 450.95625 193.160251 
L 450.95625 197.978232 
" clip-path="url(#pdf1153d5db)" style="fill: none; stroke: #000000; stroke-linecap: round"/>
   </g>
   <g id="line2d_25">
    <path d="M 492.80625 197.978232 
L 492.80625 202.953383 
" clip-path="url(#pdf1153d5db)" style="fill: none; stroke: #000000; stroke-linecap: round"/>
   </g>
   <g id="line2d_26">
    <path d="M 492.80625 193.160251 
L 492.80625 191.647325 
" clip-path="url(#pdf1153d5db)" style="fill: none; stroke: #000000; stroke-linecap: round"/>
   </g>
   <g id="line2d_27">
    <path d="M 471.88125 202.953383 
L 513.73125 202.953383 
" clip-path="url(#pdf1153d5db)" style="fill: none; stroke: #000000; stroke-linecap: round"/>
   </g>
   <g id="line2d_28">
    <path d="M 471.88125 191.647325 
L 513.73125 191.647325 
" clip-path="url(#pdf1153d5db)" style="fill: none; stroke: #000000; stroke-linecap: round"/>
   </g>
   <g id="line2d_29">
    <g clip-path="url(#pdf1153d5db)">
     <use xlink:href="#mc6897d2fe8" x="492.80625" y="210.420901" style="fill-opacity: 0; stroke: #000000"/>
     <use xlink:href="#mc6897d2fe8" x="492.80625" y="218.88" style="fill-opacity: 0; stroke: #000000"/>
    </g>
   </g>
   <g id="line2d_30">
    <path d="M 618.35625 156.875573 
L 702.05625 156.875573 
L 702.05625 143.012618 
L 618.35625 143.012618 
L 618.35625 156.875573 
" clip-path="url(#pdf1153d5db)" style="fill: none; stroke: #000000; stroke-linecap: round"/>
   </g>
   <g id="line2d_31">
    <path d="M 660.20625 156.875573 
L 660.20625 176.132162 
" clip-path="url(#pdf1153d5db)" style="fill: none; stroke: #000000; stroke-linecap: round"/>
   </g>
   <g id="line2d_32">
    <path d="M 660.20625 143.012618 
L 660.20625 137.762099 
" clip-path="url(#pdf1153d5db)" style="fill: none; stroke: #000000; stroke-linecap: round"/>
   </g>
   <g id="line2d_33">
    <path d="M 639.28125 176.132162 
L 681.13125 176.132162 
" clip-path="url(#pdf1153d5db)" style="fill: none; stroke: #000000; stroke-linecap: round"/>
   </g>
   <g id="line2d_34">
    <path d="M 639.28125 137.762099 
L 681.13125 137.762099 
" clip-path="url(#pdf1153d5db)" style="fill: none; stroke: #000000; stroke-linecap: round"/>
   </g>
   <g id="line2d_35"/>
   <g id="line2d_36">
    <path d="M 785.75625 193.503343 
L 869.45625 193.503343 
L 869.45625 178.549778 
L 785.75625 178.549778 
L 785.75625 193.503343 
" clip-path="url(#pdf1153d5db)" style="fill: none; stroke: #000000; stroke-linecap: round"/>
   </g>
   <g id="line2d_37">
    <path d="M 827.60625 193.503343 
L 827.60625 202.127918 
" clip-path="url(#pdf1153d5db)" style="fill: none; stroke: #000000; stroke-linecap: round"/>
   </g>
   <g id="line2d_38">
    <path d="M 827.60625 178.549778 
L 827.60625 157.711261 
" clip-path="url(#pdf1153d5db)" style="fill: none; stroke: #000000; stroke-linecap: round"/>
   </g>
   <g id="line2d_39">
    <path d="M 806.68125 202.127918 
L 848.53125 202.127918 
" clip-path="url(#pdf1153d5db)" style="fill: none; stroke: #000000; stroke-linecap: round"/>
   </g>
   <g id="line2d_40">
    <path d="M 806.68125 157.711261 
L 848.53125 157.711261 
" clip-path="url(#pdf1153d5db)" style="fill: none; stroke: #000000; stroke-linecap: round"/>
   </g>
   <g id="line2d_41">
    <g clip-path="url(#pdf1153d5db)">
     <use xlink:href="#mc6897d2fe8" x="827.60625" y="153.793497" style="fill-opacity: 0; stroke: #000000"/>
     <use xlink:href="#mc6897d2fe8" x="827.60625" y="143.195345" style="fill-opacity: 0; stroke: #000000"/>
     <use xlink:href="#mc6897d2fe8" x="827.60625" y="140.84162" style="fill-opacity: 0; stroke: #000000"/>
     <use xlink:href="#mc6897d2fe8" x="827.60625" y="137.115528" style="fill-opacity: 0; stroke: #000000"/>
     <use xlink:href="#mc6897d2fe8" x="827.60625" y="133.397102" style="fill-opacity: 0; stroke: #000000"/>
     <use xlink:href="#mc6897d2fe8" x="827.60625" y="129.604564" style="fill-opacity: 0; stroke: #000000"/>
     <use xlink:href="#mc6897d2fe8" x="827.60625" y="121.756258" style="fill-opacity: 0; stroke: #000000"/>
     <use xlink:href="#mc6897d2fe8" x="827.60625" y="117.565043" style="fill-opacity: 0; stroke: #000000"/>
     <use xlink:href="#mc6897d2fe8" x="827.60625" y="153.364153" style="fill-opacity: 0; stroke: #000000"/>
     <use xlink:href="#mc6897d2fe8" x="827.60625" y="111.809789" style="fill-opacity: 0; stroke: #000000"/>
     <use xlink:href="#mc6897d2fe8" x="827.60625" y="150.476303" style="fill-opacity: 0; stroke: #000000"/>
     <use xlink:href="#mc6897d2fe8" x="827.60625" y="107.738688" style="fill-opacity: 0; stroke: #000000"/>
     <use xlink:href="#mc6897d2fe8" x="827.60625" y="142.934672" style="fill-opacity: 0; stroke: #000000"/>
     <use xlink:href="#mc6897d2fe8" x="827.60625" y="103.486138" style="fill-opacity: 0; stroke: #000000"/>
     <use xlink:href="#mc6897d2fe8" x="827.60625" y="139.717148" style="fill-opacity: 0; stroke: #000000"/>
     <use xlink:href="#mc6897d2fe8" x="827.60625" y="101.255083" style="fill-opacity: 0; stroke: #000000"/>
     <use xlink:href="#mc6897d2fe8" x="827.60625" y="132.267519" style="fill-opacity: 0; stroke: #000000"/>
     <use xlink:href="#mc6897d2fe8" x="827.60625" y="96.557855" style="fill-opacity: 0; stroke: #000000"/>
     <use xlink:href="#mc6897d2fe8" x="827.60625" y="127.276395" style="fill-opacity: 0; stroke: #000000"/>
     <use xlink:href="#mc6897d2fe8" x="827.60625" y="87.447074" style="fill-opacity: 0; stroke: #000000"/>
     <use xlink:href="#mc6897d2fe8" x="827.60625" y="121.378026" style="fill-opacity: 0; stroke: #000000"/>
     <use xlink:href="#mc6897d2fe8" x="827.60625" y="77.878836" style="fill-opacity: 0; stroke: #000000"/>
    </g>
   </g>
   <g id="line2d_42">
    <path d="M 953.15625 146.218642 
L 1036.85625 146.218642 
L 1036.85625 126.41004 
L 953.15625 126.41004 
L 953.15625 146.218642 
" clip-path="url(#pdf1153d5db)" style="fill: none; stroke: #000000; stroke-linecap: round"/>
   </g>
   <g id="line2d_43">
    <path d="M 995.00625 146.218642 
L 995.00625 164.902772 
" clip-path="url(#pdf1153d5db)" style="fill: none; stroke: #000000; stroke-linecap: round"/>
   </g>
   <g id="line2d_44">
    <path d="M 995.00625 126.41004 
L 995.00625 100.787404 
" clip-path="url(#pdf1153d5db)" style="fill: none; stroke: #000000; stroke-linecap: round"/>
   </g>
   <g id="line2d_45">
    <path d="M 974.08125 164.902772 
L 1015.93125 164.902772 
" clip-path="url(#pdf1153d5db)" style="fill: none; stroke: #000000; stroke-linecap: round"/>
   </g>
   <g id="line2d_46">
    <path d="M 974.08125 100.787404 
L 1015.93125 100.787404 
" clip-path="url(#pdf1153d5db)" style="fill: none; stroke: #000000; stroke-linecap: round"/>
   </g>
   <g id="line2d_47">
    <g clip-path="url(#pdf1153d5db)">
     <use xlink:href="#mc6897d2fe8" x="995.00625" y="87.983754" style="fill-opacity: 0; stroke: #000000"/>
     <use xlink:href="#mc6897d2fe8" x="995.00625" y="78.374626" style="fill-opacity: 0; stroke: #000000"/>
     <use xlink:href="#mc6897d2fe8" x="995.00625" y="71.839909" style="fill-opacity: 0; stroke: #000000"/>
     <use xlink:href="#mc6897d2fe8" x="995.00625" y="56.092185" style="fill-opacity: 0; stroke: #000000"/>
     <use xlink:href="#mc6897d2fe8" x="995.00625" y="40.546355" style="fill-opacity: 0; stroke: #000000"/>
    </g>
   </g>
   <g id="line2d_48">
    <path d="M 116.15625 187.341107 
L 199.85625 187.341107 
" clip-path="url(#pdf1153d5db)" style="fill: none; stroke: #dd8452; stroke-linecap: round"/>
   </g>
   <g id="line2d_49">
    <path d="M 283.55625 110.49109 
L 367.25625 110.49109 
" clip-path="url(#pdf1153d5db)" style="fill: none; stroke: #dd8452; stroke-linecap: round"/>
   </g>
   <g id="line2d_50">
    <path d="M 450.95625 194.556897 
L 534.65625 194.556897 
" clip-path="url(#pdf1153d5db)" style="fill: none; stroke: #dd8452; stroke-linecap: round"/>
   </g>
   <g id="line2d_51">
    <path d="M 618.35625 146.752767 
L 702.05625 146.752767 
" clip-path="url(#pdf1153d5db)" style="fill: none; stroke: #dd8452; stroke-linecap: round"/>
   </g>
   <g id="line2d_52">
    <path d="M 785.75625 192.530291 
L 869.45625 192.530291 
" clip-path="url(#pdf1153d5db)" style="fill: none; stroke: #dd8452; stroke-linecap: round"/>
   </g>
   <g id="line2d_53">
    <path d="M 953.15625 143.019007 
L 1036.85625 143.019007 
" clip-path="url(#pdf1153d5db)" style="fill: none; stroke: #dd8452; stroke-linecap: round"/>
   </g>
   <g id="patch_3">
    <path d="M 74.30625 228.96 
L 74.30625 7.2 
" style="fill: none; stroke: #cccccc; stroke-width: 1.25; stroke-linejoin: miter; stroke-linecap: square"/>
   </g>
   <g id="patch_4">
    <path d="M 1078.70625 228.96 
L 1078.70625 7.2 
" style="fill: none; stroke: #cccccc; stroke-width: 1.25; stroke-linejoin: miter; stroke-linecap: square"/>
   </g>
   <g id="patch_5">
    <path d="M 74.30625 228.96 
L 1078.70625 228.96 
" style="fill: none; stroke: #cccccc; stroke-width: 1.25; stroke-linejoin: miter; stroke-linecap: square"/>
   </g>
   <g id="patch_6">
    <path d="M 74.30625 7.2 
L 1078.70625 7.2 
" style="fill: none; stroke: #cccccc; stroke-width: 1.25; stroke-linejoin: miter; stroke-linecap: square"/>
   </g>
  </g>
 </g>
 <defs>
  <clipPath id="pdf1153d5db">
   <rect x="74.30625" y="7.2" width="1004.4" height="221.76"/>
  </clipPath>
 </defs>
</svg>
