<?xml version="1.0" encoding="utf-8" standalone="no"?>
<!DOCTYPE svg PUBLIC "-//W3C//DTD SVG 1.1//EN"
  "http://www.w3.org/Graphics/SVG/1.1/DTD/svg11.dtd">
<svg xmlns:xlink="http://www.w3.org/1999/xlink" width="497.9825pt" height="133.523125pt" viewBox="0 0 497.9825 133.523125" xmlns="http://www.w3.org/2000/svg" version="1.1">
 <metadata>
  <rdf:RDF xmlns:dc="http://purl.org/dc/elements/1.1/" xmlns:cc="http://creativecommons.org/ns#" xmlns:rdf="http://www.w3.org/1999/02/22-rdf-syntax-ns#">
   <cc:Work>
    <dc:type rdf:resource="http://purl.org/dc/dcmitype/StillImage"/>
    <dc:date>2023-11-12T14:09:41.812119</dc:date>
    <dc:format>image/svg+xml</dc:format>
    <dc:creator>
     <cc:Agent>
      <dc:title>Matplotlib v3.8.0, https://matplotlib.org/</dc:title>
     </cc:Agent>
    </dc:creator>
   </cc:Work>
  </rdf:RDF>
 </metadata>
 <defs>
  <style type="text/css">*{stroke-linejoin: round; stroke-linecap: butt}</style>
 </defs>
 <g id="figure_1">
  <g id="patch_1">
   <path d="M 0 133.523125 
L 497.9825 133.523125 
L 497.9825 0 
L 0 0 
z
" style="fill: #ffffff"/>
  </g>
  <g id="axes_1">
   <g id="patch_2">
    <path d="M 58.7725 90.16 
L 490.7825 90.16 
L 490.7825 7.2 
L 58.7725 7.2 
z
" style="fill: #ffffff"/>
   </g>
   <g id="matplotlib.axis_1">
    <g id="xtick_1">
     <g id="line2d_1">
      <path d="M 58.7725 90.16 
L 58.7725 7.2 
" clip-path="url(#p86d44f8885)" style="fill: none; stroke: #cccccc; stroke-width: 0.8; stroke-linecap: round"/>
     </g>
     <g id="text_1">
      <!-- 0 -->
      <g style="fill: #262626" transform="translate(55.59125 104.758437) scale(0.1 -0.1)">
       <defs>
        <path id="DejaVuSans-30" d="M 2034 4250 
Q 1547 4250 1301 3770 
Q 1056 3291 1056 2328 
Q 1056 1369 1301 889 
Q 1547 409 2034 409 
Q 2525 409 2770 889 
Q 3016 1369 3016 2328 
Q 3016 3291 2770 3770 
Q 2525 4250 2034 4250 
z
M 2034 4750 
Q 2819 4750 3233 4129 
Q 3647 3509 3647 2328 
Q 3647 1150 3233 529 
Q 2819 -91 2034 -91 
Q 1250 -91 836 529 
Q 422 1150 422 2328 
Q 422 3509 836 4129 
Q 1250 4750 2034 4750 
z
" transform="scale(0.015625)"/>
       </defs>
       <use xlink:href="#DejaVuSans-30"/>
      </g>
     </g>
    </g>
    <g id="xtick_2">
     <g id="line2d_2">
      <path d="M 121.02178 90.16 
L 121.02178 7.2 
" clip-path="url(#p86d44f8885)" style="fill: none; stroke: #cccccc; stroke-width: 0.8; stroke-linecap: round"/>
     </g>
     <g id="text_2">
      <!-- 50 -->
      <g style="fill: #262626" transform="translate(114.65928 104.758437) scale(0.1 -0.1)">
       <defs>
        <path id="DejaVuSans-35" d="M 691 4666 
L 3169 4666 
L 3169 4134 
L 1269 4134 
L 1269 2991 
Q 1406 3038 1543 3061 
Q 1681 3084 1819 3084 
Q 2600 3084 3056 2656 
Q 3513 2228 3513 1497 
Q 3513 744 3044 326 
Q 2575 -91 1722 -91 
Q 1428 -91 1123 -41 
Q 819 9 494 109 
L 494 744 
Q 775 591 1075 516 
Q 1375 441 1709 441 
Q 2250 441 2565 725 
Q 2881 1009 2881 1497 
Q 2881 1984 2565 2268 
Q 2250 2553 1709 2553 
Q 1456 2553 1204 2497 
Q 953 2441 691 2322 
L 691 4666 
z
" transform="scale(0.015625)"/>
       </defs>
       <use xlink:href="#DejaVuSans-35"/>
       <use xlink:href="#DejaVuSans-30" x="63.623047"/>
      </g>
     </g>
    </g>
    <g id="xtick_3">
     <g id="line2d_3">
      <path d="M 183.271059 90.16 
L 183.271059 7.2 
" clip-path="url(#p86d44f8885)" style="fill: none; stroke: #cccccc; stroke-width: 0.8; stroke-linecap: round"/>
     </g>
     <g id="text_3">
      <!-- 100 -->
      <g style="fill: #262626" transform="translate(173.727309 104.758437) scale(0.1 -0.1)">
       <defs>
        <path id="DejaVuSans-31" d="M 794 531 
L 1825 531 
L 1825 4091 
L 703 3866 
L 703 4441 
L 1819 4666 
L 2450 4666 
L 2450 531 
L 3481 531 
L 3481 0 
L 794 0 
L 794 531 
z
" transform="scale(0.015625)"/>
       </defs>
       <use xlink:href="#DejaVuSans-31"/>
       <use xlink:href="#DejaVuSans-30" x="63.623047"/>
       <use xlink:href="#DejaVuSans-30" x="127.246094"/>
      </g>
     </g>
    </g>
    <g id="xtick_4">
     <g id="line2d_4">
      <path d="M 245.520339 90.16 
L 245.520339 7.2 
" clip-path="url(#p86d44f8885)" style="fill: none; stroke: #cccccc; stroke-width: 0.8; stroke-linecap: round"/>
     </g>
     <g id="text_4">
      <!-- 150 -->
      <g style="fill: #262626" transform="translate(235.976589 104.758437) scale(0.1 -0.1)">
       <use xlink:href="#DejaVuSans-31"/>
       <use xlink:href="#DejaVuSans-35" x="63.623047"/>
       <use xlink:href="#DejaVuSans-30" x="127.246094"/>
      </g>
     </g>
    </g>
    <g id="xtick_5">
     <g id="line2d_5">
      <path d="M 307.769618 90.16 
L 307.769618 7.2 
" clip-path="url(#p86d44f8885)" style="fill: none; stroke: #cccccc; stroke-width: 0.8; stroke-linecap: round"/>
     </g>
     <g id="text_5">
      <!-- 200 -->
      <g style="fill: #262626" transform="translate(298.225868 104.758437) scale(0.1 -0.1)">
       <defs>
        <path id="DejaVuSans-32" d="M 1228 531 
L 3431 531 
L 3431 0 
L 469 0 
L 469 531 
Q 828 903 1448 1529 
Q 2069 2156 2228 2338 
Q 2531 2678 2651 2914 
Q 2772 3150 2772 3378 
Q 2772 3750 2511 3984 
Q 2250 4219 1831 4219 
Q 1534 4219 1204 4116 
Q 875 4013 500 3803 
L 500 4441 
Q 881 4594 1212 4672 
Q 1544 4750 1819 4750 
Q 2544 4750 2975 4387 
Q 3406 4025 3406 3419 
Q 3406 3131 3298 2873 
Q 3191 2616 2906 2266 
Q 2828 2175 2409 1742 
Q 1991 1309 1228 531 
z
" transform="scale(0.015625)"/>
       </defs>
       <use xlink:href="#DejaVuSans-32"/>
       <use xlink:href="#DejaVuSans-30" x="63.623047"/>
       <use xlink:href="#DejaVuSans-30" x="127.246094"/>
      </g>
     </g>
    </g>
    <g id="xtick_6">
     <g id="line2d_6">
      <path d="M 370.018898 90.16 
L 370.018898 7.2 
" clip-path="url(#p86d44f8885)" style="fill: none; stroke: #cccccc; stroke-width: 0.8; stroke-linecap: round"/>
     </g>
     <g id="text_6">
      <!-- 250 -->
      <g style="fill: #262626" transform="translate(360.475148 104.758437) scale(0.1 -0.1)">
       <use xlink:href="#DejaVuSans-32"/>
       <use xlink:href="#DejaVuSans-35" x="63.623047"/>
       <use xlink:href="#DejaVuSans-30" x="127.246094"/>
      </g>
     </g>
    </g>
    <g id="xtick_7">
     <g id="line2d_7">
      <path d="M 432.268177 90.16 
L 432.268177 7.2 
" clip-path="url(#p86d44f8885)" style="fill: none; stroke: #cccccc; stroke-width: 0.8; stroke-linecap: round"/>
     </g>
     <g id="text_7">
      <!-- 300 -->
      <g style="fill: #262626" transform="translate(422.724427 104.758437) scale(0.1 -0.1)">
       <defs>
        <path id="DejaVuSans-33" d="M 2597 2516 
Q 3050 2419 3304 2112 
Q 3559 1806 3559 1356 
Q 3559 666 3084 287 
Q 2609 -91 1734 -91 
Q 1441 -91 1130 -33 
Q 819 25 488 141 
L 488 750 
Q 750 597 1062 519 
Q 1375 441 1716 441 
Q 2309 441 2620 675 
Q 2931 909 2931 1356 
Q 2931 1769 2642 2001 
Q 2353 2234 1838 2234 
L 1294 2234 
L 1294 2753 
L 1863 2753 
Q 2328 2753 2575 2939 
Q 2822 3125 2822 3475 
Q 2822 3834 2567 4026 
Q 2313 4219 1838 4219 
Q 1578 4219 1281 4162 
Q 984 4106 628 3988 
L 628 4550 
Q 988 4650 1302 4700 
Q 1616 4750 1894 4750 
Q 2613 4750 3031 4423 
Q 3450 4097 3450 3541 
Q 3450 3153 3228 2886 
Q 3006 2619 2597 2516 
z
" transform="scale(0.015625)"/>
       </defs>
       <use xlink:href="#DejaVuSans-33"/>
       <use xlink:href="#DejaVuSans-30" x="63.623047"/>
       <use xlink:href="#DejaVuSans-30" x="127.246094"/>
      </g>
     </g>
    </g>
    <g id="text_8">
     <!-- Node Capacity -->
     <g style="fill: #262626" transform="translate(216.39125 122.995625) scale(0.16 -0.16)">
      <defs>
       <path id="DejaVuSans-4e" d="M 628 4666 
L 1478 4666 
L 3547 763 
L 3547 4666 
L 4159 4666 
L 4159 0 
L 3309 0 
L 1241 3903 
L 1241 0 
L 628 0 
L 628 4666 
z
" transform="scale(0.015625)"/>
       <path id="DejaVuSans-6f" d="M 1959 3097 
Q 1497 3097 1228 2736 
Q 959 2375 959 1747 
Q 959 1119 1226 758 
Q 1494 397 1959 397 
Q 2419 397 2687 759 
Q 2956 1122 2956 1747 
Q 2956 2369 2687 2733 
Q 2419 3097 1959 3097 
z
M 1959 3584 
Q 2709 3584 3137 3096 
Q 3566 2609 3566 1747 
Q 3566 888 3137 398 
Q 2709 -91 1959 -91 
Q 1206 -91 779 398 
Q 353 888 353 1747 
Q 353 2609 779 3096 
Q 1206 3584 1959 3584 
z
" transform="scale(0.015625)"/>
       <path id="DejaVuSans-64" d="M 2906 2969 
L 2906 4863 
L 3481 4863 
L 3481 0 
L 2906 0 
L 2906 525 
Q 2725 213 2448 61 
Q 2172 -91 1784 -91 
Q 1150 -91 751 415 
Q 353 922 353 1747 
Q 353 2572 751 3078 
Q 1150 3584 1784 3584 
Q 2172 3584 2448 3432 
Q 2725 3281 2906 2969 
z
M 947 1747 
Q 947 1113 1208 752 
Q 1469 391 1925 391 
Q 2381 391 2643 752 
Q 2906 1113 2906 1747 
Q 2906 2381 2643 2742 
Q 2381 3103 1925 3103 
Q 1469 3103 1208 2742 
Q 947 2381 947 1747 
z
" transform="scale(0.015625)"/>
       <path id="DejaVuSans-65" d="M 3597 1894 
L 3597 1613 
L 953 1613 
Q 991 1019 1311 708 
Q 1631 397 2203 397 
Q 2534 397 2845 478 
Q 3156 559 3463 722 
L 3463 178 
Q 3153 47 2828 -22 
Q 2503 -91 2169 -91 
Q 1331 -91 842 396 
Q 353 884 353 1716 
Q 353 2575 817 3079 
Q 1281 3584 2069 3584 
Q 2775 3584 3186 3129 
Q 3597 2675 3597 1894 
z
M 3022 2063 
Q 3016 2534 2758 2815 
Q 2500 3097 2075 3097 
Q 1594 3097 1305 2825 
Q 1016 2553 972 2059 
L 3022 2063 
z
" transform="scale(0.015625)"/>
       <path id="DejaVuSans-20" transform="scale(0.015625)"/>
       <path id="DejaVuSans-43" d="M 4122 4306 
L 4122 3641 
Q 3803 3938 3442 4084 
Q 3081 4231 2675 4231 
Q 1875 4231 1450 3742 
Q 1025 3253 1025 2328 
Q 1025 1406 1450 917 
Q 1875 428 2675 428 
Q 3081 428 3442 575 
Q 3803 722 4122 1019 
L 4122 359 
Q 3791 134 3420 21 
Q 3050 -91 2638 -91 
Q 1578 -91 968 557 
Q 359 1206 359 2328 
Q 359 3453 968 4101 
Q 1578 4750 2638 4750 
Q 3056 4750 3426 4639 
Q 3797 4528 4122 4306 
z
" transform="scale(0.015625)"/>
       <path id="DejaVuSans-61" d="M 2194 1759 
Q 1497 1759 1228 1600 
Q 959 1441 959 1056 
Q 959 750 1161 570 
Q 1363 391 1709 391 
Q 2188 391 2477 730 
Q 2766 1069 2766 1631 
L 2766 1759 
L 2194 1759 
z
M 3341 1997 
L 3341 0 
L 2766 0 
L 2766 531 
Q 2569 213 2275 61 
Q 1981 -91 1556 -91 
Q 1019 -91 701 211 
Q 384 513 384 1019 
Q 384 1609 779 1909 
Q 1175 2209 1959 2209 
L 2766 2209 
L 2766 2266 
Q 2766 2663 2505 2880 
Q 2244 3097 1772 3097 
Q 1472 3097 1187 3025 
Q 903 2953 641 2809 
L 641 3341 
Q 956 3463 1253 3523 
Q 1550 3584 1831 3584 
Q 2591 3584 2966 3190 
Q 3341 2797 3341 1997 
z
" transform="scale(0.015625)"/>
       <path id="DejaVuSans-70" d="M 1159 525 
L 1159 -1331 
L 581 -1331 
L 581 3500 
L 1159 3500 
L 1159 2969 
Q 1341 3281 1617 3432 
Q 1894 3584 2278 3584 
Q 2916 3584 3314 3078 
Q 3713 2572 3713 1747 
Q 3713 922 3314 415 
Q 2916 -91 2278 -91 
Q 1894 -91 1617 61 
Q 1341 213 1159 525 
z
M 3116 1747 
Q 3116 2381 2855 2742 
Q 2594 3103 2138 3103 
Q 1681 3103 1420 2742 
Q 1159 2381 1159 1747 
Q 1159 1113 1420 752 
Q 1681 391 2138 391 
Q 2594 391 2855 752 
Q 3116 1113 3116 1747 
z
" transform="scale(0.015625)"/>
       <path id="DejaVuSans-63" d="M 3122 3366 
L 3122 2828 
Q 2878 2963 2633 3030 
Q 2388 3097 2138 3097 
Q 1578 3097 1268 2742 
Q 959 2388 959 1747 
Q 959 1106 1268 751 
Q 1578 397 2138 397 
Q 2388 397 2633 464 
Q 2878 531 3122 666 
L 3122 134 
Q 2881 22 2623 -34 
Q 2366 -91 2075 -91 
Q 1284 -91 818 406 
Q 353 903 353 1747 
Q 353 2603 823 3093 
Q 1294 3584 2113 3584 
Q 2378 3584 2631 3529 
Q 2884 3475 3122 3366 
z
" transform="scale(0.015625)"/>
       <path id="DejaVuSans-69" d="M 603 3500 
L 1178 3500 
L 1178 0 
L 603 0 
L 603 3500 
z
M 603 4863 
L 1178 4863 
L 1178 4134 
L 603 4134 
L 603 4863 
z
" transform="scale(0.015625)"/>
       <path id="DejaVuSans-74" d="M 1172 4494 
L 1172 3500 
L 2356 3500 
L 2356 3053 
L 1172 3053 
L 1172 1153 
Q 1172 725 1289 603 
Q 1406 481 1766 481 
L 2356 481 
L 2356 0 
L 1766 0 
Q 1100 0 847 248 
Q 594 497 594 1153 
L 594 3053 
L 172 3053 
L 172 3500 
L 594 3500 
L 594 4494 
L 1172 4494 
z
" transform="scale(0.015625)"/>
       <path id="DejaVuSans-79" d="M 2059 -325 
Q 1816 -950 1584 -1140 
Q 1353 -1331 966 -1331 
L 506 -1331 
L 506 -850 
L 844 -850 
Q 1081 -850 1212 -737 
Q 1344 -625 1503 -206 
L 1606 56 
L 191 3500 
L 800 3500 
L 1894 763 
L 2988 3500 
L 3597 3500 
L 2059 -325 
z
" transform="scale(0.015625)"/>
      </defs>
      <use xlink:href="#DejaVuSans-4e"/>
      <use xlink:href="#DejaVuSans-6f" x="74.804688"/>
      <use xlink:href="#DejaVuSans-64" x="135.986328"/>
      <use xlink:href="#DejaVuSans-65" x="199.462891"/>
      <use xlink:href="#DejaVuSans-20" x="260.986328"/>
      <use xlink:href="#DejaVuSans-43" x="292.773438"/>
      <use xlink:href="#DejaVuSans-61" x="362.597656"/>
      <use xlink:href="#DejaVuSans-70" x="423.876953"/>
      <use xlink:href="#DejaVuSans-61" x="487.353516"/>
      <use xlink:href="#DejaVuSans-63" x="548.632812"/>
      <use xlink:href="#DejaVuSans-69" x="603.613281"/>
      <use xlink:href="#DejaVuSans-74" x="631.396484"/>
      <use xlink:href="#DejaVuSans-79" x="670.605469"/>
     </g>
    </g>
   </g>
   <g id="matplotlib.axis_2">
    <g id="ytick_1">
     <g id="line2d_8">
      <path d="M 58.7725 90.16 
L 490.7825 90.16 
" clip-path="url(#p86d44f8885)" style="fill: none; stroke: #cccccc; stroke-width: 0.8; stroke-linecap: round"/>
     </g>
     <g id="text_9">
      <!-- 0 -->
      <g style="fill: #262626" transform="translate(45.41 93.959219) scale(0.1 -0.1)">
       <use xlink:href="#DejaVuSans-30"/>
      </g>
     </g>
    </g>
    <g id="ytick_2">
     <g id="line2d_9">
      <path d="M 58.7725 56.976 
L 490.7825 56.976 
" clip-path="url(#p86d44f8885)" style="fill: none; stroke: #cccccc; stroke-width: 0.8; stroke-linecap: round"/>
     </g>
     <g id="text_10">
      <!-- 100 -->
      <g style="fill: #262626" transform="translate(32.685 60.775219) scale(0.1 -0.1)">
       <use xlink:href="#DejaVuSans-31"/>
       <use xlink:href="#DejaVuSans-30" x="63.623047"/>
       <use xlink:href="#DejaVuSans-30" x="127.246094"/>
      </g>
     </g>
    </g>
    <g id="ytick_3">
     <g id="line2d_10">
      <path d="M 58.7725 23.792 
L 490.7825 23.792 
" clip-path="url(#p86d44f8885)" style="fill: none; stroke: #cccccc; stroke-width: 0.8; stroke-linecap: round"/>
     </g>
     <g id="text_11">
      <!-- 200 -->
      <g style="fill: #262626" transform="translate(32.685 27.591219) scale(0.1 -0.1)">
       <use xlink:href="#DejaVuSans-32"/>
       <use xlink:href="#DejaVuSans-30" x="63.623047"/>
       <use xlink:href="#DejaVuSans-30" x="127.246094"/>
      </g>
     </g>
    </g>
    <g id="text_12">
     <!-- Frequency -->
     <g style="fill: #262626" transform="translate(19.3575 90.0075) rotate(-90) scale(0.16 -0.16)">
      <defs>
       <path id="DejaVuSans-46" d="M 628 4666 
L 3309 4666 
L 3309 4134 
L 1259 4134 
L 1259 2759 
L 3109 2759 
L 3109 2228 
L 1259 2228 
L 1259 0 
L 628 0 
L 628 4666 
z
" transform="scale(0.015625)"/>
       <path id="DejaVuSans-72" d="M 2631 2963 
Q 2534 3019 2420 3045 
Q 2306 3072 2169 3072 
Q 1681 3072 1420 2755 
Q 1159 2438 1159 1844 
L 1159 0 
L 581 0 
L 581 3500 
L 1159 3500 
L 1159 2956 
Q 1341 3275 1631 3429 
Q 1922 3584 2338 3584 
Q 2397 3584 2469 3576 
Q 2541 3569 2628 3553 
L 2631 2963 
z
" transform="scale(0.015625)"/>
       <path id="DejaVuSans-71" d="M 947 1747 
Q 947 1113 1208 752 
Q 1469 391 1925 391 
Q 2381 391 2643 752 
Q 2906 1113 2906 1747 
Q 2906 2381 2643 2742 
Q 2381 3103 1925 3103 
Q 1469 3103 1208 2742 
Q 947 2381 947 1747 
z
M 2906 525 
Q 2725 213 2448 61 
Q 2172 -91 1784 -91 
Q 1150 -91 751 415 
Q 353 922 353 1747 
Q 353 2572 751 3078 
Q 1150 3584 1784 3584 
Q 2172 3584 2448 3432 
Q 2725 3281 2906 2969 
L 2906 3500 
L 3481 3500 
L 3481 -1331 
L 2906 -1331 
L 2906 525 
z
" transform="scale(0.015625)"/>
       <path id="DejaVuSans-75" d="M 544 1381 
L 544 3500 
L 1119 3500 
L 1119 1403 
Q 1119 906 1312 657 
Q 1506 409 1894 409 
Q 2359 409 2629 706 
Q 2900 1003 2900 1516 
L 2900 3500 
L 3475 3500 
L 3475 0 
L 2900 0 
L 2900 538 
Q 2691 219 2414 64 
Q 2138 -91 1772 -91 
Q 1169 -91 856 284 
Q 544 659 544 1381 
z
M 1991 3584 
L 1991 3584 
z
" transform="scale(0.015625)"/>
       <path id="DejaVuSans-6e" d="M 3513 2113 
L 3513 0 
L 2938 0 
L 2938 2094 
Q 2938 2591 2744 2837 
Q 2550 3084 2163 3084 
Q 1697 3084 1428 2787 
Q 1159 2491 1159 1978 
L 1159 0 
L 581 0 
L 581 3500 
L 1159 3500 
L 1159 2956 
Q 1366 3272 1645 3428 
Q 1925 3584 2291 3584 
Q 2894 3584 3203 3211 
Q 3513 2838 3513 2113 
z
" transform="scale(0.015625)"/>
      </defs>
      <use xlink:href="#DejaVuSans-46"/>
      <use xlink:href="#DejaVuSans-72" x="50.269531"/>
      <use xlink:href="#DejaVuSans-65" x="89.132812"/>
      <use xlink:href="#DejaVuSans-71" x="150.65625"/>
      <use xlink:href="#DejaVuSans-75" x="214.132812"/>
      <use xlink:href="#DejaVuSans-65" x="277.511719"/>
      <use xlink:href="#DejaVuSans-6e" x="339.035156"/>
      <use xlink:href="#DejaVuSans-63" x="402.414062"/>
      <use xlink:href="#DejaVuSans-79" x="457.394531"/>
     </g>
    </g>
   </g>
   <g id="patch_3">
    <path d="M 104.836967 90.16 
L 107.907931 90.16 
L 107.907931 31.75616 
L 104.836967 31.75616 
z
" clip-path="url(#p86d44f8885)" style="fill: #800080; stroke: #ffffff; stroke-linejoin: miter"/>
   </g>
   <g id="patch_4">
    <path d="M 107.907931 90.16 
L 110.978896 90.16 
L 110.978896 69.58592 
L 107.907931 69.58592 
z
" clip-path="url(#p86d44f8885)" style="fill: #800080; stroke: #ffffff; stroke-linejoin: miter"/>
   </g>
   <g id="patch_5">
    <path d="M 110.978896 90.16 
L 114.04986 90.16 
L 114.04986 52.33024 
L 110.978896 52.33024 
z
" clip-path="url(#p86d44f8885)" style="fill: #800080; stroke: #ffffff; stroke-linejoin: miter"/>
   </g>
   <g id="patch_6">
    <path d="M 114.04986 90.16 
L 117.120825 90.16 
L 117.120825 59.96256 
L 114.04986 59.96256 
z
" clip-path="url(#p86d44f8885)" style="fill: #800080; stroke: #ffffff; stroke-linejoin: miter"/>
   </g>
   <g id="patch_7">
    <path d="M 117.120825 90.16 
L 120.191789 90.16 
L 120.191789 58.30336 
L 117.120825 58.30336 
z
" clip-path="url(#p86d44f8885)" style="fill: #800080; stroke: #ffffff; stroke-linejoin: miter"/>
   </g>
   <g id="patch_8">
    <path d="M 120.191789 90.16 
L 123.262754 90.16 
L 123.262754 72.24064 
L 120.191789 72.24064 
z
" clip-path="url(#p86d44f8885)" style="fill: #800080; stroke: #ffffff; stroke-linejoin: miter"/>
   </g>
   <g id="patch_9">
    <path d="M 123.262754 90.16 
L 126.333718 90.16 
L 126.333718 61.62176 
L 123.262754 61.62176 
z
" clip-path="url(#p86d44f8885)" style="fill: #800080; stroke: #ffffff; stroke-linejoin: miter"/>
   </g>
   <g id="patch_10">
    <path d="M 126.333718 90.16 
L 129.404683 90.16 
L 129.404683 77.21824 
L 126.333718 77.21824 
z
" clip-path="url(#p86d44f8885)" style="fill: #800080; stroke: #ffffff; stroke-linejoin: miter"/>
   </g>
   <g id="patch_11">
    <path d="M 129.404683 90.16 
L 132.475647 90.16 
L 132.475647 66.26752 
L 129.404683 66.26752 
z
" clip-path="url(#p86d44f8885)" style="fill: #800080; stroke: #ffffff; stroke-linejoin: miter"/>
   </g>
   <g id="patch_12">
    <path d="M 132.475647 90.16 
L 135.546611 90.16 
L 135.546611 83.19136 
L 132.475647 83.19136 
z
" clip-path="url(#p86d44f8885)" style="fill: #800080; stroke: #ffffff; stroke-linejoin: miter"/>
   </g>
   <g id="patch_13">
    <path d="M 135.546611 90.16 
L 138.617576 90.16 
L 138.617576 75.55904 
L 135.546611 75.55904 
z
" clip-path="url(#p86d44f8885)" style="fill: #800080; stroke: #ffffff; stroke-linejoin: miter"/>
   </g>
   <g id="patch_14">
    <path d="M 138.617576 90.16 
L 141.68854 90.16 
L 141.68854 72.57248 
L 138.617576 72.57248 
z
" clip-path="url(#p86d44f8885)" style="fill: #800080; stroke: #ffffff; stroke-linejoin: miter"/>
   </g>
   <g id="patch_15">
    <path d="M 141.68854 90.16 
L 144.759505 90.16 
L 144.759505 81.864 
L 141.68854 81.864 
z
" clip-path="url(#p86d44f8885)" style="fill: #800080; stroke: #ffffff; stroke-linejoin: miter"/>
   </g>
   <g id="patch_16">
    <path d="M 144.759505 90.16 
L 147.830469 90.16 
L 147.830469 81.53216 
L 144.759505 81.53216 
z
" clip-path="url(#p86d44f8885)" style="fill: #800080; stroke: #ffffff; stroke-linejoin: miter"/>
   </g>
   <g id="patch_17">
    <path d="M 147.830469 90.16 
L 150.901434 90.16 
L 150.901434 76.22272 
L 147.830469 76.22272 
z
" clip-path="url(#p86d44f8885)" style="fill: #800080; stroke: #ffffff; stroke-linejoin: miter"/>
   </g>
   <g id="patch_18">
    <path d="M 58.7725 90.16 
L 64.172625 90.16 
L 64.172625 23.792 
L 58.7725 23.792 
z
" clip-path="url(#p86d44f8885)" style="fill: #008000; stroke: #ffffff; stroke-linejoin: miter"/>
   </g>
   <g id="patch_19">
    <path d="M 64.172625 90.16 
L 69.57275 90.16 
L 69.57275 63.6128 
L 64.172625 63.6128 
z
" clip-path="url(#p86d44f8885)" style="fill: #008000; stroke: #ffffff; stroke-linejoin: miter"/>
   </g>
   <g id="patch_20">
    <path d="M 69.57275 90.16 
L 74.972875 90.16 
L 74.972875 67.26304 
L 69.57275 67.26304 
z
" clip-path="url(#p86d44f8885)" style="fill: #008000; stroke: #ffffff; stroke-linejoin: miter"/>
   </g>
   <g id="patch_21">
    <path d="M 74.972875 90.16 
L 80.373 90.16 
L 80.373 71.9088 
L 74.972875 71.9088 
z
" clip-path="url(#p86d44f8885)" style="fill: #008000; stroke: #ffffff; stroke-linejoin: miter"/>
   </g>
   <g id="patch_22">
    <path d="M 80.373 90.16 
L 85.773125 90.16 
L 85.773125 74.89536 
L 80.373 74.89536 
z
" clip-path="url(#p86d44f8885)" style="fill: #008000; stroke: #ffffff; stroke-linejoin: miter"/>
   </g>
   <g id="patch_23">
    <path d="M 85.773125 90.16 
L 91.17325 90.16 
L 91.17325 64.94016 
L 85.773125 64.94016 
z
" clip-path="url(#p86d44f8885)" style="fill: #008000; stroke: #ffffff; stroke-linejoin: miter"/>
   </g>
   <g id="patch_24">
    <path d="M 91.17325 90.16 
L 96.573375 90.16 
L 96.573375 77.88192 
L 91.17325 77.88192 
z
" clip-path="url(#p86d44f8885)" style="fill: #008000; stroke: #ffffff; stroke-linejoin: miter"/>
   </g>
   <g id="patch_25">
    <path d="M 96.573375 90.16 
L 101.9735 90.16 
L 101.9735 79.54112 
L 96.573375 79.54112 
z
" clip-path="url(#p86d44f8885)" style="fill: #008000; stroke: #ffffff; stroke-linejoin: miter"/>
   </g>
   <g id="patch_26">
    <path d="M 101.9735 90.16 
L 107.373625 90.16 
L 107.373625 75.89088 
L 101.9735 75.89088 
z
" clip-path="url(#p86d44f8885)" style="fill: #008000; stroke: #ffffff; stroke-linejoin: miter"/>
   </g>
   <g id="patch_27">
    <path d="M 107.373625 90.16 
L 112.77375 90.16 
L 112.77375 82.85952 
L 107.373625 82.85952 
z
" clip-path="url(#p86d44f8885)" style="fill: #008000; stroke: #ffffff; stroke-linejoin: miter"/>
   </g>
   <g id="patch_28">
    <path d="M 112.77375 90.16 
L 118.173875 90.16 
L 118.173875 83.19136 
L 112.77375 83.19136 
z
" clip-path="url(#p86d44f8885)" style="fill: #008000; stroke: #ffffff; stroke-linejoin: miter"/>
   </g>
   <g id="patch_29">
    <path d="M 118.173875 90.16 
L 123.574 90.16 
L 123.574 85.84608 
L 118.173875 85.84608 
z
" clip-path="url(#p86d44f8885)" style="fill: #008000; stroke: #ffffff; stroke-linejoin: miter"/>
   </g>
   <g id="patch_30">
    <path d="M 123.574 90.16 
L 128.974125 90.16 
L 128.974125 85.84608 
L 123.574 85.84608 
z
" clip-path="url(#p86d44f8885)" style="fill: #008000; stroke: #ffffff; stroke-linejoin: miter"/>
   </g>
   <g id="patch_31">
    <path d="M 128.974125 90.16 
L 134.37425 90.16 
L 134.37425 78.87744 
L 128.974125 78.87744 
z
" clip-path="url(#p86d44f8885)" style="fill: #008000; stroke: #ffffff; stroke-linejoin: miter"/>
   </g>
   <g id="patch_32">
    <path d="M 134.37425 90.16 
L 139.774375 90.16 
L 139.774375 88.16896 
L 134.37425 88.16896 
z
" clip-path="url(#p86d44f8885)" style="fill: #008000; stroke: #ffffff; stroke-linejoin: miter"/>
   </g>
   <g id="patch_33">
    <path d="M 139.774375 90.16 
L 145.1745 90.16 
L 145.1745 85.51424 
L 139.774375 85.51424 
z
" clip-path="url(#p86d44f8885)" style="fill: #008000; stroke: #ffffff; stroke-linejoin: miter"/>
   </g>
   <g id="patch_34">
    <path d="M 145.1745 90.16 
L 150.574625 90.16 
L 150.574625 86.50976 
L 145.1745 86.50976 
z
" clip-path="url(#p86d44f8885)" style="fill: #008000; stroke: #ffffff; stroke-linejoin: miter"/>
   </g>
   <g id="patch_35">
    <path d="M 150.574625 90.16 
L 155.97475 90.16 
L 155.97475 82.52768 
L 150.574625 82.52768 
z
" clip-path="url(#p86d44f8885)" style="fill: #008000; stroke: #ffffff; stroke-linejoin: miter"/>
   </g>
   <g id="patch_36">
    <path d="M 155.97475 90.16 
L 161.374875 90.16 
L 161.374875 86.8416 
L 155.97475 86.8416 
z
" clip-path="url(#p86d44f8885)" style="fill: #008000; stroke: #ffffff; stroke-linejoin: miter"/>
   </g>
   <g id="patch_37">
    <path d="M 161.374875 90.16 
L 166.775 90.16 
L 166.775 85.51424 
L 161.374875 85.51424 
z
" clip-path="url(#p86d44f8885)" style="fill: #008000; stroke: #ffffff; stroke-linejoin: miter"/>
   </g>
   <g id="patch_38">
    <path d="M 166.775 90.16 
L 172.175125 90.16 
L 172.175125 88.16896 
L 166.775 88.16896 
z
" clip-path="url(#p86d44f8885)" style="fill: #008000; stroke: #ffffff; stroke-linejoin: miter"/>
   </g>
   <g id="patch_39">
    <path d="M 172.175125 90.16 
L 177.57525 90.16 
L 177.57525 85.51424 
L 172.175125 85.51424 
z
" clip-path="url(#p86d44f8885)" style="fill: #008000; stroke: #ffffff; stroke-linejoin: miter"/>
   </g>
   <g id="patch_40">
    <path d="M 177.57525 90.16 
L 182.975375 90.16 
L 182.975375 89.16448 
L 177.57525 89.16448 
z
" clip-path="url(#p86d44f8885)" style="fill: #008000; stroke: #ffffff; stroke-linejoin: miter"/>
   </g>
   <g id="patch_41">
    <path d="M 182.975375 90.16 
L 188.3755 90.16 
L 188.3755 87.50528 
L 182.975375 87.50528 
z
" clip-path="url(#p86d44f8885)" style="fill: #008000; stroke: #ffffff; stroke-linejoin: miter"/>
   </g>
   <g id="patch_42">
    <path d="M 188.3755 90.16 
L 193.775625 90.16 
L 193.775625 88.83264 
L 188.3755 88.83264 
z
" clip-path="url(#p86d44f8885)" style="fill: #008000; stroke: #ffffff; stroke-linejoin: miter"/>
   </g>
   <g id="patch_43">
    <path d="M 193.775625 90.16 
L 199.17575 90.16 
L 199.17575 88.83264 
L 193.775625 88.83264 
z
" clip-path="url(#p86d44f8885)" style="fill: #008000; stroke: #ffffff; stroke-linejoin: miter"/>
   </g>
   <g id="patch_44">
    <path d="M 199.17575 90.16 
L 204.575875 90.16 
L 204.575875 85.1824 
L 199.17575 85.1824 
z
" clip-path="url(#p86d44f8885)" style="fill: #008000; stroke: #ffffff; stroke-linejoin: miter"/>
   </g>
   <g id="patch_45">
    <path d="M 204.575875 90.16 
L 209.976 90.16 
L 209.976 88.83264 
L 204.575875 88.83264 
z
" clip-path="url(#p86d44f8885)" style="fill: #008000; stroke: #ffffff; stroke-linejoin: miter"/>
   </g>
   <g id="patch_46">
    <path d="M 209.976 90.16 
L 215.376125 90.16 
L 215.376125 89.16448 
L 209.976 89.16448 
z
" clip-path="url(#p86d44f8885)" style="fill: #008000; stroke: #ffffff; stroke-linejoin: miter"/>
   </g>
   <g id="patch_47">
    <path d="M 215.376125 90.16 
L 220.77625 90.16 
L 220.77625 84.51872 
L 215.376125 84.51872 
z
" clip-path="url(#p86d44f8885)" style="fill: #008000; stroke: #ffffff; stroke-linejoin: miter"/>
   </g>
   <g id="patch_48">
    <path d="M 220.77625 90.16 
L 226.176375 90.16 
L 226.176375 88.5008 
L 220.77625 88.5008 
z
" clip-path="url(#p86d44f8885)" style="fill: #008000; stroke: #ffffff; stroke-linejoin: miter"/>
   </g>
   <g id="patch_49">
    <path d="M 226.176375 90.16 
L 231.5765 90.16 
L 231.5765 89.49632 
L 226.176375 89.49632 
z
" clip-path="url(#p86d44f8885)" style="fill: #008000; stroke: #ffffff; stroke-linejoin: miter"/>
   </g>
   <g id="patch_50">
    <path d="M 231.5765 90.16 
L 236.976625 90.16 
L 236.976625 87.83712 
L 231.5765 87.83712 
z
" clip-path="url(#p86d44f8885)" style="fill: #008000; stroke: #ffffff; stroke-linejoin: miter"/>
   </g>
   <g id="patch_51">
    <path d="M 236.976625 90.16 
L 242.37675 90.16 
L 242.37675 88.83264 
L 236.976625 88.83264 
z
" clip-path="url(#p86d44f8885)" style="fill: #008000; stroke: #ffffff; stroke-linejoin: miter"/>
   </g>
   <g id="patch_52">
    <path d="M 242.37675 90.16 
L 247.776875 90.16 
L 247.776875 86.8416 
L 242.37675 86.8416 
z
" clip-path="url(#p86d44f8885)" style="fill: #008000; stroke: #ffffff; stroke-linejoin: miter"/>
   </g>
   <g id="patch_53">
    <path d="M 247.776875 90.16 
L 253.177 90.16 
L 253.177 89.49632 
L 247.776875 89.49632 
z
" clip-path="url(#p86d44f8885)" style="fill: #008000; stroke: #ffffff; stroke-linejoin: miter"/>
   </g>
   <g id="patch_54">
    <path d="M 253.177 90.16 
L 258.577125 90.16 
L 258.577125 89.49632 
L 253.177 89.49632 
z
" clip-path="url(#p86d44f8885)" style="fill: #008000; stroke: #ffffff; stroke-linejoin: miter"/>
   </g>
   <g id="patch_55">
    <path d="M 258.577125 90.16 
L 263.97725 90.16 
L 263.97725 89.49632 
L 258.577125 89.49632 
z
" clip-path="url(#p86d44f8885)" style="fill: #008000; stroke: #ffffff; stroke-linejoin: miter"/>
   </g>
   <g id="patch_56">
    <path d="M 263.97725 90.16 
L 269.377375 90.16 
L 269.377375 88.16896 
L 263.97725 88.16896 
z
" clip-path="url(#p86d44f8885)" style="fill: #008000; stroke: #ffffff; stroke-linejoin: miter"/>
   </g>
   <g id="patch_57">
    <path d="M 269.377375 90.16 
L 274.7775 90.16 
L 274.7775 89.82816 
L 269.377375 89.82816 
z
" clip-path="url(#p86d44f8885)" style="fill: #008000; stroke: #ffffff; stroke-linejoin: miter"/>
   </g>
   <g id="patch_58">
    <path d="M 274.7775 90.16 
L 280.177625 90.16 
L 280.177625 89.49632 
L 274.7775 89.49632 
z
" clip-path="url(#p86d44f8885)" style="fill: #008000; stroke: #ffffff; stroke-linejoin: miter"/>
   </g>
   <g id="patch_59">
    <path d="M 280.177625 90.16 
L 285.57775 90.16 
L 285.57775 89.82816 
L 280.177625 89.82816 
z
" clip-path="url(#p86d44f8885)" style="fill: #008000; stroke: #ffffff; stroke-linejoin: miter"/>
   </g>
   <g id="patch_60">
    <path d="M 285.57775 90.16 
L 290.977875 90.16 
L 290.977875 88.16896 
L 285.57775 88.16896 
z
" clip-path="url(#p86d44f8885)" style="fill: #008000; stroke: #ffffff; stroke-linejoin: miter"/>
   </g>
   <g id="patch_61">
    <path d="M 290.977875 90.16 
L 296.378 90.16 
L 296.378 89.82816 
L 290.977875 89.82816 
z
" clip-path="url(#p86d44f8885)" style="fill: #008000; stroke: #ffffff; stroke-linejoin: miter"/>
   </g>
   <g id="patch_62">
    <path d="M 296.378 90.16 
L 301.778125 90.16 
L 301.778125 89.82816 
L 296.378 89.82816 
z
" clip-path="url(#p86d44f8885)" style="fill: #008000; stroke: #ffffff; stroke-linejoin: miter"/>
   </g>
   <g id="patch_63">
    <path d="M 301.778125 90.16 
L 307.17825 90.16 
L 307.17825 89.49632 
L 301.778125 89.49632 
z
" clip-path="url(#p86d44f8885)" style="fill: #008000; stroke: #ffffff; stroke-linejoin: miter"/>
   </g>
   <g id="patch_64">
    <path d="M 307.17825 90.16 
L 312.578375 90.16 
L 312.578375 89.49632 
L 307.17825 89.49632 
z
" clip-path="url(#p86d44f8885)" style="fill: #008000; stroke: #ffffff; stroke-linejoin: miter"/>
   </g>
   <g id="patch_65">
    <path d="M 312.578375 90.16 
L 317.9785 90.16 
L 317.9785 89.49632 
L 312.578375 89.49632 
z
" clip-path="url(#p86d44f8885)" style="fill: #008000; stroke: #ffffff; stroke-linejoin: miter"/>
   </g>
   <g id="patch_66">
    <path d="M 317.9785 90.16 
L 323.378625 90.16 
L 323.378625 89.49632 
L 317.9785 89.49632 
z
" clip-path="url(#p86d44f8885)" style="fill: #008000; stroke: #ffffff; stroke-linejoin: miter"/>
   </g>
   <g id="patch_67">
    <path d="M 323.378625 90.16 
L 328.77875 90.16 
L 328.77875 89.49632 
L 323.378625 89.49632 
z
" clip-path="url(#p86d44f8885)" style="fill: #008000; stroke: #ffffff; stroke-linejoin: miter"/>
   </g>
   <g id="patch_68">
    <path d="M 328.77875 90.16 
L 334.178875 90.16 
L 334.178875 89.16448 
L 328.77875 89.16448 
z
" clip-path="url(#p86d44f8885)" style="fill: #008000; stroke: #ffffff; stroke-linejoin: miter"/>
   </g>
   <g id="patch_69">
    <path d="M 334.178875 90.16 
L 339.579 90.16 
L 339.579 90.16 
L 334.178875 90.16 
z
" clip-path="url(#p86d44f8885)" style="fill: #008000; stroke: #ffffff; stroke-linejoin: miter"/>
   </g>
   <g id="patch_70">
    <path d="M 339.579 90.16 
L 344.979125 90.16 
L 344.979125 90.16 
L 339.579 90.16 
z
" clip-path="url(#p86d44f8885)" style="fill: #008000; stroke: #ffffff; stroke-linejoin: miter"/>
   </g>
   <g id="patch_71">
    <path d="M 344.979125 90.16 
L 350.37925 90.16 
L 350.37925 89.49632 
L 344.979125 89.49632 
z
" clip-path="url(#p86d44f8885)" style="fill: #008000; stroke: #ffffff; stroke-linejoin: miter"/>
   </g>
   <g id="patch_72">
    <path d="M 350.37925 90.16 
L 355.779375 90.16 
L 355.779375 90.16 
L 350.37925 90.16 
z
" clip-path="url(#p86d44f8885)" style="fill: #008000; stroke: #ffffff; stroke-linejoin: miter"/>
   </g>
   <g id="patch_73">
    <path d="M 355.779375 90.16 
L 361.1795 90.16 
L 361.1795 89.49632 
L 355.779375 89.49632 
z
" clip-path="url(#p86d44f8885)" style="fill: #008000; stroke: #ffffff; stroke-linejoin: miter"/>
   </g>
   <g id="patch_74">
    <path d="M 361.1795 90.16 
L 366.579625 90.16 
L 366.579625 90.16 
L 361.1795 90.16 
z
" clip-path="url(#p86d44f8885)" style="fill: #008000; stroke: #ffffff; stroke-linejoin: miter"/>
   </g>
   <g id="patch_75">
    <path d="M 366.579625 90.16 
L 371.97975 90.16 
L 371.97975 89.82816 
L 366.579625 89.82816 
z
" clip-path="url(#p86d44f8885)" style="fill: #008000; stroke: #ffffff; stroke-linejoin: miter"/>
   </g>
   <g id="patch_76">
    <path d="M 371.97975 90.16 
L 377.379875 90.16 
L 377.379875 89.82816 
L 371.97975 89.82816 
z
" clip-path="url(#p86d44f8885)" style="fill: #008000; stroke: #ffffff; stroke-linejoin: miter"/>
   </g>
   <g id="patch_77">
    <path d="M 377.379875 90.16 
L 382.78 90.16 
L 382.78 88.83264 
L 377.379875 88.83264 
z
" clip-path="url(#p86d44f8885)" style="fill: #008000; stroke: #ffffff; stroke-linejoin: miter"/>
   </g>
   <g id="patch_78">
    <path d="M 382.78 90.16 
L 388.180125 90.16 
L 388.180125 89.82816 
L 382.78 89.82816 
z
" clip-path="url(#p86d44f8885)" style="fill: #008000; stroke: #ffffff; stroke-linejoin: miter"/>
   </g>
   <g id="patch_79">
    <path d="M 388.180125 90.16 
L 393.58025 90.16 
L 393.58025 90.16 
L 388.180125 90.16 
z
" clip-path="url(#p86d44f8885)" style="fill: #008000; stroke: #ffffff; stroke-linejoin: miter"/>
   </g>
   <g id="patch_80">
    <path d="M 393.58025 90.16 
L 398.980375 90.16 
L 398.980375 89.82816 
L 393.58025 89.82816 
z
" clip-path="url(#p86d44f8885)" style="fill: #008000; stroke: #ffffff; stroke-linejoin: miter"/>
   </g>
   <g id="patch_81">
    <path d="M 398.980375 90.16 
L 404.3805 90.16 
L 404.3805 88.16896 
L 398.980375 88.16896 
z
" clip-path="url(#p86d44f8885)" style="fill: #008000; stroke: #ffffff; stroke-linejoin: miter"/>
   </g>
   <g id="patch_82">
    <path d="M 404.3805 90.16 
L 409.780625 90.16 
L 409.780625 90.16 
L 404.3805 90.16 
z
" clip-path="url(#p86d44f8885)" style="fill: #008000; stroke: #ffffff; stroke-linejoin: miter"/>
   </g>
   <g id="patch_83">
    <path d="M 409.780625 90.16 
L 415.18075 90.16 
L 415.18075 89.82816 
L 409.780625 89.82816 
z
" clip-path="url(#p86d44f8885)" style="fill: #008000; stroke: #ffffff; stroke-linejoin: miter"/>
   </g>
   <g id="patch_84">
    <path d="M 415.18075 90.16 
L 420.580875 90.16 
L 420.580875 90.16 
L 415.18075 90.16 
z
" clip-path="url(#p86d44f8885)" style="fill: #008000; stroke: #ffffff; stroke-linejoin: miter"/>
   </g>
   <g id="patch_85">
    <path d="M 420.580875 90.16 
L 425.981 90.16 
L 425.981 89.49632 
L 420.580875 89.49632 
z
" clip-path="url(#p86d44f8885)" style="fill: #008000; stroke: #ffffff; stroke-linejoin: miter"/>
   </g>
   <g id="patch_86">
    <path d="M 425.981 90.16 
L 431.381125 90.16 
L 431.381125 89.49632 
L 425.981 89.49632 
z
" clip-path="url(#p86d44f8885)" style="fill: #008000; stroke: #ffffff; stroke-linejoin: miter"/>
   </g>
   <g id="patch_87">
    <path d="M 431.381125 90.16 
L 436.78125 90.16 
L 436.78125 89.82816 
L 431.381125 89.82816 
z
" clip-path="url(#p86d44f8885)" style="fill: #008000; stroke: #ffffff; stroke-linejoin: miter"/>
   </g>
   <g id="patch_88">
    <path d="M 436.78125 90.16 
L 442.181375 90.16 
L 442.181375 89.16448 
L 436.78125 89.16448 
z
" clip-path="url(#p86d44f8885)" style="fill: #008000; stroke: #ffffff; stroke-linejoin: miter"/>
   </g>
   <g id="patch_89">
    <path d="M 442.181375 90.16 
L 447.5815 90.16 
L 447.5815 88.83264 
L 442.181375 88.83264 
z
" clip-path="url(#p86d44f8885)" style="fill: #008000; stroke: #ffffff; stroke-linejoin: miter"/>
   </g>
   <g id="patch_90">
    <path d="M 447.5815 90.16 
L 452.981625 90.16 
L 452.981625 89.16448 
L 447.5815 89.16448 
z
" clip-path="url(#p86d44f8885)" style="fill: #008000; stroke: #ffffff; stroke-linejoin: miter"/>
   </g>
   <g id="patch_91">
    <path d="M 452.981625 90.16 
L 458.38175 90.16 
L 458.38175 90.16 
L 452.981625 90.16 
z
" clip-path="url(#p86d44f8885)" style="fill: #008000; stroke: #ffffff; stroke-linejoin: miter"/>
   </g>
   <g id="patch_92">
    <path d="M 458.38175 90.16 
L 463.781875 90.16 
L 463.781875 90.16 
L 458.38175 90.16 
z
" clip-path="url(#p86d44f8885)" style="fill: #008000; stroke: #ffffff; stroke-linejoin: miter"/>
   </g>
   <g id="patch_93">
    <path d="M 463.781875 90.16 
L 469.182 90.16 
L 469.182 90.16 
L 463.781875 90.16 
z
" clip-path="url(#p86d44f8885)" style="fill: #008000; stroke: #ffffff; stroke-linejoin: miter"/>
   </g>
   <g id="patch_94">
    <path d="M 469.182 90.16 
L 474.582125 90.16 
L 474.582125 89.16448 
L 469.182 89.16448 
z
" clip-path="url(#p86d44f8885)" style="fill: #008000; stroke: #ffffff; stroke-linejoin: miter"/>
   </g>
   <g id="patch_95">
    <path d="M 474.582125 90.16 
L 479.98225 90.16 
L 479.98225 90.16 
L 474.582125 90.16 
z
" clip-path="url(#p86d44f8885)" style="fill: #008000; stroke: #ffffff; stroke-linejoin: miter"/>
   </g>
   <g id="patch_96">
    <path d="M 479.98225 90.16 
L 485.382375 90.16 
L 485.382375 90.16 
L 479.98225 90.16 
z
" clip-path="url(#p86d44f8885)" style="fill: #008000; stroke: #ffffff; stroke-linejoin: miter"/>
   </g>
   <g id="patch_97">
    <path d="M 485.382375 90.16 
L 490.7825 90.16 
L 490.7825 89.49632 
L 485.382375 89.49632 
z
" clip-path="url(#p86d44f8885)" style="fill: #008000; stroke: #ffffff; stroke-linejoin: miter"/>
   </g>
   <g id="patch_98">
    <path d="M 58.7725 90.16 
L 58.7725 7.2 
" style="fill: none; stroke: #cccccc; stroke-width: 0.8; stroke-linejoin: miter; stroke-linecap: square"/>
   </g>
   <g id="patch_99">
    <path d="M 490.7825 90.16 
L 490.7825 7.2 
" style="fill: none; stroke: #cccccc; stroke-width: 0.8; stroke-linejoin: miter; stroke-linecap: square"/>
   </g>
   <g id="patch_100">
    <path d="M 58.7725 90.16 
L 490.7825 90.16 
" style="fill: none; stroke: #cccccc; stroke-width: 0.8; stroke-linejoin: miter; stroke-linecap: square"/>
   </g>
   <g id="patch_101">
    <path d="M 58.7725 7.2 
L 490.7825 7.2 
" style="fill: none; stroke: #cccccc; stroke-width: 0.8; stroke-linejoin: miter; stroke-linecap: square"/>
   </g>
   <g id="legend_1">
    <g id="patch_102">
     <path d="M 429.516875 59.234375 
L 483.7825 59.234375 
Q 485.7825 59.234375 485.7825 57.234375 
L 485.7825 14.2 
Q 485.7825 12.2 483.7825 12.2 
L 429.516875 12.2 
Q 427.516875 12.2 427.516875 14.2 
L 427.516875 57.234375 
Q 427.516875 59.234375 429.516875 59.234375 
z
" style="fill: #ffffff; opacity: 0.8; stroke: #cccccc; stroke-linejoin: miter"/>
    </g>
    <g id="text_13">
     <!-- median -->
     <g style="fill: #262626" transform="translate(437.906719 23.798437) scale(0.1 -0.1)">
      <defs>
       <path id="DejaVuSans-6d" d="M 3328 2828 
Q 3544 3216 3844 3400 
Q 4144 3584 4550 3584 
Q 5097 3584 5394 3201 
Q 5691 2819 5691 2113 
L 5691 0 
L 5113 0 
L 5113 2094 
Q 5113 2597 4934 2840 
Q 4756 3084 4391 3084 
Q 3944 3084 3684 2787 
Q 3425 2491 3425 1978 
L 3425 0 
L 2847 0 
L 2847 2094 
Q 2847 2600 2669 2842 
Q 2491 3084 2119 3084 
Q 1678 3084 1418 2786 
Q 1159 2488 1159 1978 
L 1159 0 
L 581 0 
L 581 3500 
L 1159 3500 
L 1159 2956 
Q 1356 3278 1631 3431 
Q 1906 3584 2284 3584 
Q 2666 3584 2933 3390 
Q 3200 3197 3328 2828 
z
" transform="scale(0.015625)"/>
      </defs>
      <use xlink:href="#DejaVuSans-6d"/>
      <use xlink:href="#DejaVuSans-65" x="97.412109"/>
      <use xlink:href="#DejaVuSans-64" x="158.935547"/>
      <use xlink:href="#DejaVuSans-69" x="222.412109"/>
      <use xlink:href="#DejaVuSans-61" x="250.195312"/>
      <use xlink:href="#DejaVuSans-6e" x="311.474609"/>
     </g>
    </g>
    <g id="patch_103">
     <path d="M 431.516875 38.476562 
L 451.516875 38.476562 
L 451.516875 31.476562 
L 431.516875 31.476562 
z
" style="fill: #800080; stroke: #ffffff; stroke-linejoin: miter"/>
    </g>
    <g id="text_14">
     <!-- 48.0 -->
     <g style="fill: #262626" transform="translate(459.516875 38.476562) scale(0.1 -0.1)">
      <defs>
       <path id="DejaVuSans-34" d="M 2419 4116 
L 825 1625 
L 2419 1625 
L 2419 4116 
z
M 2253 4666 
L 3047 4666 
L 3047 1625 
L 3713 1625 
L 3713 1100 
L 3047 1100 
L 3047 0 
L 2419 0 
L 2419 1100 
L 313 1100 
L 313 1709 
L 2253 4666 
z
" transform="scale(0.015625)"/>
       <path id="DejaVuSans-38" d="M 2034 2216 
Q 1584 2216 1326 1975 
Q 1069 1734 1069 1313 
Q 1069 891 1326 650 
Q 1584 409 2034 409 
Q 2484 409 2743 651 
Q 3003 894 3003 1313 
Q 3003 1734 2745 1975 
Q 2488 2216 2034 2216 
z
M 1403 2484 
Q 997 2584 770 2862 
Q 544 3141 544 3541 
Q 544 4100 942 4425 
Q 1341 4750 2034 4750 
Q 2731 4750 3128 4425 
Q 3525 4100 3525 3541 
Q 3525 3141 3298 2862 
Q 3072 2584 2669 2484 
Q 3125 2378 3379 2068 
Q 3634 1759 3634 1313 
Q 3634 634 3220 271 
Q 2806 -91 2034 -91 
Q 1263 -91 848 271 
Q 434 634 434 1313 
Q 434 1759 690 2068 
Q 947 2378 1403 2484 
z
M 1172 3481 
Q 1172 3119 1398 2916 
Q 1625 2713 2034 2713 
Q 2441 2713 2670 2916 
Q 2900 3119 2900 3481 
Q 2900 3844 2670 4047 
Q 2441 4250 2034 4250 
Q 1625 4250 1398 4047 
Q 1172 3844 1172 3481 
z
" transform="scale(0.015625)"/>
       <path id="DejaVuSans-2e" d="M 684 794 
L 1344 794 
L 1344 0 
L 684 0 
L 684 794 
z
" transform="scale(0.015625)"/>
      </defs>
      <use xlink:href="#DejaVuSans-34"/>
      <use xlink:href="#DejaVuSans-38" x="63.623047"/>
      <use xlink:href="#DejaVuSans-2e" x="127.246094"/>
      <use xlink:href="#DejaVuSans-30" x="159.033203"/>
     </g>
    </g>
    <g id="patch_104">
     <path d="M 431.516875 53.154687 
L 451.516875 53.154687 
L 451.516875 46.154687 
L 431.516875 46.154687 
z
" style="fill: #008000; stroke: #ffffff; stroke-linejoin: miter"/>
    </g>
    <g id="text_15">
     <!-- 25.0 -->
     <g style="fill: #262626" transform="translate(459.516875 53.154687) scale(0.1 -0.1)">
      <use xlink:href="#DejaVuSans-32"/>
      <use xlink:href="#DejaVuSans-35" x="63.623047"/>
      <use xlink:href="#DejaVuSans-2e" x="127.246094"/>
      <use xlink:href="#DejaVuSans-30" x="159.033203"/>
     </g>
    </g>
   </g>
  </g>
 </g>
 <defs>
  <clipPath id="p86d44f8885">
   <rect x="58.7725" y="7.2" width="432.01" height="82.96"/>
  </clipPath>
 </defs>
</svg>
