<?xml version="1.0" encoding="utf-8" standalone="no"?>
<!DOCTYPE svg PUBLIC "-//W3C//DTD SVG 1.1//EN"
  "http://www.w3.org/Graphics/SVG/1.1/DTD/svg11.dtd">
<svg xmlns:xlink="http://www.w3.org/1999/xlink" width="493.7pt" height="132.21875pt" viewBox="0 0 493.7 132.21875" xmlns="http://www.w3.org/2000/svg" version="1.1">
 <metadata>
  <rdf:RDF xmlns:dc="http://purl.org/dc/elements/1.1/" xmlns:cc="http://creativecommons.org/ns#" xmlns:rdf="http://www.w3.org/1999/02/22-rdf-syntax-ns#">
   <cc:Work>
    <dc:type rdf:resource="http://purl.org/dc/dcmitype/StillImage"/>
    <dc:date>2023-08-01T17:05:36.584620</dc:date>
    <dc:format>image/svg+xml</dc:format>
    <dc:creator>
     <cc:Agent>
      <dc:title>Matplotlib v3.7.0, https://matplotlib.org/</dc:title>
     </cc:Agent>
    </dc:creator>
   </cc:Work>
  </rdf:RDF>
 </metadata>
 <defs>
  <style type="text/css">*{stroke-linejoin: round; stroke-linecap: butt}</style>
 </defs>
 <g id="figure_1">
  <g id="patch_1">
   <path d="M 0 132.21875 
L 493.7 132.21875 
L 493.7 0 
L 0 0 
z
" style="fill: #ffffff"/>
  </g>
  <g id="axes_1">
   <g id="patch_2">
    <path d="M 62.59 86.92 
L 486.5 86.92 
L 486.5 7.2 
L 62.59 7.2 
z
" style="fill: #ffffff"/>
   </g>
   <g id="matplotlib.axis_1">
    <g id="xtick_1">
     <g id="line2d_1">
      <path d="M 62.59 86.92 
L 62.59 7.2 
" clip-path="url(#p48c1eb1b6d)" style="fill: none; stroke: #cccccc; stroke-width: 0.8; stroke-linecap: round"/>
     </g>
     <g id="text_1">
      <!-- 0 -->
      <g style="fill: #262626" transform="translate(58.7725 103.038125) scale(0.12 -0.12)">
       <defs>
        <path id="DejaVuSans-30" d="M 2034 4250 
Q 1547 4250 1301 3770 
Q 1056 3291 1056 2328 
Q 1056 1369 1301 889 
Q 1547 409 2034 409 
Q 2525 409 2770 889 
Q 3016 1369 3016 2328 
Q 3016 3291 2770 3770 
Q 2525 4250 2034 4250 
z
M 2034 4750 
Q 2819 4750 3233 4129 
Q 3647 3509 3647 2328 
Q 3647 1150 3233 529 
Q 2819 -91 2034 -91 
Q 1250 -91 836 529 
Q 422 1150 422 2328 
Q 422 3509 836 4129 
Q 1250 4750 2034 4750 
z
" transform="scale(0.015625)"/>
       </defs>
       <use xlink:href="#DejaVuSans-30"/>
      </g>
     </g>
    </g>
    <g id="xtick_2">
     <g id="line2d_2">
      <path d="M 116.385685 86.92 
L 116.385685 7.2 
" clip-path="url(#p48c1eb1b6d)" style="fill: none; stroke: #cccccc; stroke-width: 0.8; stroke-linecap: round"/>
     </g>
     <g id="text_2">
      <!-- 50 -->
      <g style="fill: #262626" transform="translate(108.750685 103.038125) scale(0.12 -0.12)">
       <defs>
        <path id="DejaVuSans-35" d="M 691 4666 
L 3169 4666 
L 3169 4134 
L 1269 4134 
L 1269 2991 
Q 1406 3038 1543 3061 
Q 1681 3084 1819 3084 
Q 2600 3084 3056 2656 
Q 3513 2228 3513 1497 
Q 3513 744 3044 326 
Q 2575 -91 1722 -91 
Q 1428 -91 1123 -41 
Q 819 9 494 109 
L 494 744 
Q 775 591 1075 516 
Q 1375 441 1709 441 
Q 2250 441 2565 725 
Q 2881 1009 2881 1497 
Q 2881 1984 2565 2268 
Q 2250 2553 1709 2553 
Q 1456 2553 1204 2497 
Q 953 2441 691 2322 
L 691 4666 
z
" transform="scale(0.015625)"/>
       </defs>
       <use xlink:href="#DejaVuSans-35"/>
       <use xlink:href="#DejaVuSans-30" x="63.623047"/>
      </g>
     </g>
    </g>
    <g id="xtick_3">
     <g id="line2d_3">
      <path d="M 170.181371 86.92 
L 170.181371 7.2 
" clip-path="url(#p48c1eb1b6d)" style="fill: none; stroke: #cccccc; stroke-width: 0.8; stroke-linecap: round"/>
     </g>
     <g id="text_3">
      <!-- 100 -->
      <g style="fill: #262626" transform="translate(158.728871 103.038125) scale(0.12 -0.12)">
       <defs>
        <path id="DejaVuSans-31" d="M 794 531 
L 1825 531 
L 1825 4091 
L 703 3866 
L 703 4441 
L 1819 4666 
L 2450 4666 
L 2450 531 
L 3481 531 
L 3481 0 
L 794 0 
L 794 531 
z
" transform="scale(0.015625)"/>
       </defs>
       <use xlink:href="#DejaVuSans-31"/>
       <use xlink:href="#DejaVuSans-30" x="63.623047"/>
       <use xlink:href="#DejaVuSans-30" x="127.246094"/>
      </g>
     </g>
    </g>
    <g id="xtick_4">
     <g id="line2d_4">
      <path d="M 223.977056 86.92 
L 223.977056 7.2 
" clip-path="url(#p48c1eb1b6d)" style="fill: none; stroke: #cccccc; stroke-width: 0.8; stroke-linecap: round"/>
     </g>
     <g id="text_4">
      <!-- 150 -->
      <g style="fill: #262626" transform="translate(212.524556 103.038125) scale(0.12 -0.12)">
       <use xlink:href="#DejaVuSans-31"/>
       <use xlink:href="#DejaVuSans-35" x="63.623047"/>
       <use xlink:href="#DejaVuSans-30" x="127.246094"/>
      </g>
     </g>
    </g>
    <g id="xtick_5">
     <g id="line2d_5">
      <path d="M 277.772741 86.92 
L 277.772741 7.2 
" clip-path="url(#p48c1eb1b6d)" style="fill: none; stroke: #cccccc; stroke-width: 0.8; stroke-linecap: round"/>
     </g>
     <g id="text_5">
      <!-- 200 -->
      <g style="fill: #262626" transform="translate(266.320241 103.038125) scale(0.12 -0.12)">
       <defs>
        <path id="DejaVuSans-32" d="M 1228 531 
L 3431 531 
L 3431 0 
L 469 0 
L 469 531 
Q 828 903 1448 1529 
Q 2069 2156 2228 2338 
Q 2531 2678 2651 2914 
Q 2772 3150 2772 3378 
Q 2772 3750 2511 3984 
Q 2250 4219 1831 4219 
Q 1534 4219 1204 4116 
Q 875 4013 500 3803 
L 500 4441 
Q 881 4594 1212 4672 
Q 1544 4750 1819 4750 
Q 2544 4750 2975 4387 
Q 3406 4025 3406 3419 
Q 3406 3131 3298 2873 
Q 3191 2616 2906 2266 
Q 2828 2175 2409 1742 
Q 1991 1309 1228 531 
z
" transform="scale(0.015625)"/>
       </defs>
       <use xlink:href="#DejaVuSans-32"/>
       <use xlink:href="#DejaVuSans-30" x="63.623047"/>
       <use xlink:href="#DejaVuSans-30" x="127.246094"/>
      </g>
     </g>
    </g>
    <g id="xtick_6">
     <g id="line2d_6">
      <path d="M 331.568426 86.92 
L 331.568426 7.2 
" clip-path="url(#p48c1eb1b6d)" style="fill: none; stroke: #cccccc; stroke-width: 0.8; stroke-linecap: round"/>
     </g>
     <g id="text_6">
      <!-- 250 -->
      <g style="fill: #262626" transform="translate(320.115926 103.038125) scale(0.12 -0.12)">
       <use xlink:href="#DejaVuSans-32"/>
       <use xlink:href="#DejaVuSans-35" x="63.623047"/>
       <use xlink:href="#DejaVuSans-30" x="127.246094"/>
      </g>
     </g>
    </g>
    <g id="xtick_7">
     <g id="line2d_7">
      <path d="M 385.364112 86.92 
L 385.364112 7.2 
" clip-path="url(#p48c1eb1b6d)" style="fill: none; stroke: #cccccc; stroke-width: 0.8; stroke-linecap: round"/>
     </g>
     <g id="text_7">
      <!-- 300 -->
      <g style="fill: #262626" transform="translate(373.911612 103.038125) scale(0.12 -0.12)">
       <defs>
        <path id="DejaVuSans-33" d="M 2597 2516 
Q 3050 2419 3304 2112 
Q 3559 1806 3559 1356 
Q 3559 666 3084 287 
Q 2609 -91 1734 -91 
Q 1441 -91 1130 -33 
Q 819 25 488 141 
L 488 750 
Q 750 597 1062 519 
Q 1375 441 1716 441 
Q 2309 441 2620 675 
Q 2931 909 2931 1356 
Q 2931 1769 2642 2001 
Q 2353 2234 1838 2234 
L 1294 2234 
L 1294 2753 
L 1863 2753 
Q 2328 2753 2575 2939 
Q 2822 3125 2822 3475 
Q 2822 3834 2567 4026 
Q 2313 4219 1838 4219 
Q 1578 4219 1281 4162 
Q 984 4106 628 3988 
L 628 4550 
Q 988 4650 1302 4700 
Q 1616 4750 1894 4750 
Q 2613 4750 3031 4423 
Q 3450 4097 3450 3541 
Q 3450 3153 3228 2886 
Q 3006 2619 2597 2516 
z
" transform="scale(0.015625)"/>
       </defs>
       <use xlink:href="#DejaVuSans-33"/>
       <use xlink:href="#DejaVuSans-30" x="63.623047"/>
       <use xlink:href="#DejaVuSans-30" x="127.246094"/>
      </g>
     </g>
    </g>
    <g id="xtick_8">
     <g id="line2d_8">
      <path d="M 439.159797 86.92 
L 439.159797 7.2 
" clip-path="url(#p48c1eb1b6d)" style="fill: none; stroke: #cccccc; stroke-width: 0.8; stroke-linecap: round"/>
     </g>
     <g id="text_8">
      <!-- 350 -->
      <g style="fill: #262626" transform="translate(427.707297 103.038125) scale(0.12 -0.12)">
       <use xlink:href="#DejaVuSans-33"/>
       <use xlink:href="#DejaVuSans-35" x="63.623047"/>
       <use xlink:href="#DejaVuSans-30" x="127.246094"/>
      </g>
     </g>
    </g>
    <g id="text_9">
     <!-- Node Capacity -->
     <g style="fill: #262626" transform="translate(216.15875 121.69125) scale(0.16 -0.16)">
      <defs>
       <path id="DejaVuSans-4e" d="M 628 4666 
L 1478 4666 
L 3547 763 
L 3547 4666 
L 4159 4666 
L 4159 0 
L 3309 0 
L 1241 3903 
L 1241 0 
L 628 0 
L 628 4666 
z
" transform="scale(0.015625)"/>
       <path id="DejaVuSans-6f" d="M 1959 3097 
Q 1497 3097 1228 2736 
Q 959 2375 959 1747 
Q 959 1119 1226 758 
Q 1494 397 1959 397 
Q 2419 397 2687 759 
Q 2956 1122 2956 1747 
Q 2956 2369 2687 2733 
Q 2419 3097 1959 3097 
z
M 1959 3584 
Q 2709 3584 3137 3096 
Q 3566 2609 3566 1747 
Q 3566 888 3137 398 
Q 2709 -91 1959 -91 
Q 1206 -91 779 398 
Q 353 888 353 1747 
Q 353 2609 779 3096 
Q 1206 3584 1959 3584 
z
" transform="scale(0.015625)"/>
       <path id="DejaVuSans-64" d="M 2906 2969 
L 2906 4863 
L 3481 4863 
L 3481 0 
L 2906 0 
L 2906 525 
Q 2725 213 2448 61 
Q 2172 -91 1784 -91 
Q 1150 -91 751 415 
Q 353 922 353 1747 
Q 353 2572 751 3078 
Q 1150 3584 1784 3584 
Q 2172 3584 2448 3432 
Q 2725 3281 2906 2969 
z
M 947 1747 
Q 947 1113 1208 752 
Q 1469 391 1925 391 
Q 2381 391 2643 752 
Q 2906 1113 2906 1747 
Q 2906 2381 2643 2742 
Q 2381 3103 1925 3103 
Q 1469 3103 1208 2742 
Q 947 2381 947 1747 
z
" transform="scale(0.015625)"/>
       <path id="DejaVuSans-65" d="M 3597 1894 
L 3597 1613 
L 953 1613 
Q 991 1019 1311 708 
Q 1631 397 2203 397 
Q 2534 397 2845 478 
Q 3156 559 3463 722 
L 3463 178 
Q 3153 47 2828 -22 
Q 2503 -91 2169 -91 
Q 1331 -91 842 396 
Q 353 884 353 1716 
Q 353 2575 817 3079 
Q 1281 3584 2069 3584 
Q 2775 3584 3186 3129 
Q 3597 2675 3597 1894 
z
M 3022 2063 
Q 3016 2534 2758 2815 
Q 2500 3097 2075 3097 
Q 1594 3097 1305 2825 
Q 1016 2553 972 2059 
L 3022 2063 
z
" transform="scale(0.015625)"/>
       <path id="DejaVuSans-20" transform="scale(0.015625)"/>
       <path id="DejaVuSans-43" d="M 4122 4306 
L 4122 3641 
Q 3803 3938 3442 4084 
Q 3081 4231 2675 4231 
Q 1875 4231 1450 3742 
Q 1025 3253 1025 2328 
Q 1025 1406 1450 917 
Q 1875 428 2675 428 
Q 3081 428 3442 575 
Q 3803 722 4122 1019 
L 4122 359 
Q 3791 134 3420 21 
Q 3050 -91 2638 -91 
Q 1578 -91 968 557 
Q 359 1206 359 2328 
Q 359 3453 968 4101 
Q 1578 4750 2638 4750 
Q 3056 4750 3426 4639 
Q 3797 4528 4122 4306 
z
" transform="scale(0.015625)"/>
       <path id="DejaVuSans-61" d="M 2194 1759 
Q 1497 1759 1228 1600 
Q 959 1441 959 1056 
Q 959 750 1161 570 
Q 1363 391 1709 391 
Q 2188 391 2477 730 
Q 2766 1069 2766 1631 
L 2766 1759 
L 2194 1759 
z
M 3341 1997 
L 3341 0 
L 2766 0 
L 2766 531 
Q 2569 213 2275 61 
Q 1981 -91 1556 -91 
Q 1019 -91 701 211 
Q 384 513 384 1019 
Q 384 1609 779 1909 
Q 1175 2209 1959 2209 
L 2766 2209 
L 2766 2266 
Q 2766 2663 2505 2880 
Q 2244 3097 1772 3097 
Q 1472 3097 1187 3025 
Q 903 2953 641 2809 
L 641 3341 
Q 956 3463 1253 3523 
Q 1550 3584 1831 3584 
Q 2591 3584 2966 3190 
Q 3341 2797 3341 1997 
z
" transform="scale(0.015625)"/>
       <path id="DejaVuSans-70" d="M 1159 525 
L 1159 -1331 
L 581 -1331 
L 581 3500 
L 1159 3500 
L 1159 2969 
Q 1341 3281 1617 3432 
Q 1894 3584 2278 3584 
Q 2916 3584 3314 3078 
Q 3713 2572 3713 1747 
Q 3713 922 3314 415 
Q 2916 -91 2278 -91 
Q 1894 -91 1617 61 
Q 1341 213 1159 525 
z
M 3116 1747 
Q 3116 2381 2855 2742 
Q 2594 3103 2138 3103 
Q 1681 3103 1420 2742 
Q 1159 2381 1159 1747 
Q 1159 1113 1420 752 
Q 1681 391 2138 391 
Q 2594 391 2855 752 
Q 3116 1113 3116 1747 
z
" transform="scale(0.015625)"/>
       <path id="DejaVuSans-63" d="M 3122 3366 
L 3122 2828 
Q 2878 2963 2633 3030 
Q 2388 3097 2138 3097 
Q 1578 3097 1268 2742 
Q 959 2388 959 1747 
Q 959 1106 1268 751 
Q 1578 397 2138 397 
Q 2388 397 2633 464 
Q 2878 531 3122 666 
L 3122 134 
Q 2881 22 2623 -34 
Q 2366 -91 2075 -91 
Q 1284 -91 818 406 
Q 353 903 353 1747 
Q 353 2603 823 3093 
Q 1294 3584 2113 3584 
Q 2378 3584 2631 3529 
Q 2884 3475 3122 3366 
z
" transform="scale(0.015625)"/>
       <path id="DejaVuSans-69" d="M 603 3500 
L 1178 3500 
L 1178 0 
L 603 0 
L 603 3500 
z
M 603 4863 
L 1178 4863 
L 1178 4134 
L 603 4134 
L 603 4863 
z
" transform="scale(0.015625)"/>
       <path id="DejaVuSans-74" d="M 1172 4494 
L 1172 3500 
L 2356 3500 
L 2356 3053 
L 1172 3053 
L 1172 1153 
Q 1172 725 1289 603 
Q 1406 481 1766 481 
L 2356 481 
L 2356 0 
L 1766 0 
Q 1100 0 847 248 
Q 594 497 594 1153 
L 594 3053 
L 172 3053 
L 172 3500 
L 594 3500 
L 594 4494 
L 1172 4494 
z
" transform="scale(0.015625)"/>
       <path id="DejaVuSans-79" d="M 2059 -325 
Q 1816 -950 1584 -1140 
Q 1353 -1331 966 -1331 
L 506 -1331 
L 506 -850 
L 844 -850 
Q 1081 -850 1212 -737 
Q 1344 -625 1503 -206 
L 1606 56 
L 191 3500 
L 800 3500 
L 1894 763 
L 2988 3500 
L 3597 3500 
L 2059 -325 
z
" transform="scale(0.015625)"/>
      </defs>
      <use xlink:href="#DejaVuSans-4e"/>
      <use xlink:href="#DejaVuSans-6f" x="74.804688"/>
      <use xlink:href="#DejaVuSans-64" x="135.986328"/>
      <use xlink:href="#DejaVuSans-65" x="199.462891"/>
      <use xlink:href="#DejaVuSans-20" x="260.986328"/>
      <use xlink:href="#DejaVuSans-43" x="292.773438"/>
      <use xlink:href="#DejaVuSans-61" x="362.597656"/>
      <use xlink:href="#DejaVuSans-70" x="423.876953"/>
      <use xlink:href="#DejaVuSans-61" x="487.353516"/>
      <use xlink:href="#DejaVuSans-63" x="548.632812"/>
      <use xlink:href="#DejaVuSans-69" x="603.613281"/>
      <use xlink:href="#DejaVuSans-74" x="631.396484"/>
      <use xlink:href="#DejaVuSans-79" x="670.605469"/>
     </g>
    </g>
   </g>
   <g id="matplotlib.axis_2">
    <g id="ytick_1">
     <g id="line2d_9">
      <path d="M 62.59 86.92 
L 486.5 86.92 
" clip-path="url(#p48c1eb1b6d)" style="fill: none; stroke: #cccccc; stroke-width: 0.8; stroke-linecap: round"/>
     </g>
     <g id="text_10">
      <!-- 0 -->
      <g style="fill: #262626" transform="translate(47.955 91.479062) scale(0.12 -0.12)">
       <use xlink:href="#DejaVuSans-30"/>
      </g>
     </g>
    </g>
    <g id="ytick_2">
     <g id="line2d_10">
      <path d="M 62.59 55.032 
L 486.5 55.032 
" clip-path="url(#p48c1eb1b6d)" style="fill: none; stroke: #cccccc; stroke-width: 0.8; stroke-linecap: round"/>
     </g>
     <g id="text_11">
      <!-- 100 -->
      <g style="fill: #262626" transform="translate(32.685 59.591063) scale(0.12 -0.12)">
       <use xlink:href="#DejaVuSans-31"/>
       <use xlink:href="#DejaVuSans-30" x="63.623047"/>
       <use xlink:href="#DejaVuSans-30" x="127.246094"/>
      </g>
     </g>
    </g>
    <g id="ytick_3">
     <g id="line2d_11">
      <path d="M 62.59 23.144 
L 486.5 23.144 
" clip-path="url(#p48c1eb1b6d)" style="fill: none; stroke: #cccccc; stroke-width: 0.8; stroke-linecap: round"/>
     </g>
     <g id="text_12">
      <!-- 200 -->
      <g style="fill: #262626" transform="translate(32.685 27.703063) scale(0.12 -0.12)">
       <use xlink:href="#DejaVuSans-32"/>
       <use xlink:href="#DejaVuSans-30" x="63.623047"/>
       <use xlink:href="#DejaVuSans-30" x="127.246094"/>
      </g>
     </g>
    </g>
    <g id="text_13">
     <!-- Frequency -->
     <g style="fill: #262626" transform="translate(19.3575 88.3875) rotate(-90) scale(0.16 -0.16)">
      <defs>
       <path id="DejaVuSans-46" d="M 628 4666 
L 3309 4666 
L 3309 4134 
L 1259 4134 
L 1259 2759 
L 3109 2759 
L 3109 2228 
L 1259 2228 
L 1259 0 
L 628 0 
L 628 4666 
z
" transform="scale(0.015625)"/>
       <path id="DejaVuSans-72" d="M 2631 2963 
Q 2534 3019 2420 3045 
Q 2306 3072 2169 3072 
Q 1681 3072 1420 2755 
Q 1159 2438 1159 1844 
L 1159 0 
L 581 0 
L 581 3500 
L 1159 3500 
L 1159 2956 
Q 1341 3275 1631 3429 
Q 1922 3584 2338 3584 
Q 2397 3584 2469 3576 
Q 2541 3569 2628 3553 
L 2631 2963 
z
" transform="scale(0.015625)"/>
       <path id="DejaVuSans-71" d="M 947 1747 
Q 947 1113 1208 752 
Q 1469 391 1925 391 
Q 2381 391 2643 752 
Q 2906 1113 2906 1747 
Q 2906 2381 2643 2742 
Q 2381 3103 1925 3103 
Q 1469 3103 1208 2742 
Q 947 2381 947 1747 
z
M 2906 525 
Q 2725 213 2448 61 
Q 2172 -91 1784 -91 
Q 1150 -91 751 415 
Q 353 922 353 1747 
Q 353 2572 751 3078 
Q 1150 3584 1784 3584 
Q 2172 3584 2448 3432 
Q 2725 3281 2906 2969 
L 2906 3500 
L 3481 3500 
L 3481 -1331 
L 2906 -1331 
L 2906 525 
z
" transform="scale(0.015625)"/>
       <path id="DejaVuSans-75" d="M 544 1381 
L 544 3500 
L 1119 3500 
L 1119 1403 
Q 1119 906 1312 657 
Q 1506 409 1894 409 
Q 2359 409 2629 706 
Q 2900 1003 2900 1516 
L 2900 3500 
L 3475 3500 
L 3475 0 
L 2900 0 
L 2900 538 
Q 2691 219 2414 64 
Q 2138 -91 1772 -91 
Q 1169 -91 856 284 
Q 544 659 544 1381 
z
M 1991 3584 
L 1991 3584 
z
" transform="scale(0.015625)"/>
       <path id="DejaVuSans-6e" d="M 3513 2113 
L 3513 0 
L 2938 0 
L 2938 2094 
Q 2938 2591 2744 2837 
Q 2550 3084 2163 3084 
Q 1697 3084 1428 2787 
Q 1159 2491 1159 1978 
L 1159 0 
L 581 0 
L 581 3500 
L 1159 3500 
L 1159 2956 
Q 1366 3272 1645 3428 
Q 1925 3584 2291 3584 
Q 2894 3584 3203 3211 
Q 3513 2838 3513 2113 
z
" transform="scale(0.015625)"/>
      </defs>
      <use xlink:href="#DejaVuSans-46"/>
      <use xlink:href="#DejaVuSans-72" x="50.269531"/>
      <use xlink:href="#DejaVuSans-65" x="89.132812"/>
      <use xlink:href="#DejaVuSans-71" x="150.65625"/>
      <use xlink:href="#DejaVuSans-75" x="214.132812"/>
      <use xlink:href="#DejaVuSans-65" x="277.511719"/>
      <use xlink:href="#DejaVuSans-6e" x="339.035156"/>
      <use xlink:href="#DejaVuSans-63" x="402.414062"/>
      <use xlink:href="#DejaVuSans-79" x="457.394531"/>
     </g>
    </g>
   </g>
   <g id="patch_3">
    <path d="M 101.322893 86.92 
L 105.913459 86.92 
L 105.913459 14.85312 
L 101.322893 14.85312 
z
" clip-path="url(#p48c1eb1b6d)" style="fill: #800080; stroke: #ffffff; stroke-linejoin: miter"/>
   </g>
   <g id="patch_4">
    <path d="M 105.913459 86.92 
L 110.504024 86.92 
L 110.504024 46.74112 
L 105.913459 46.74112 
z
" clip-path="url(#p48c1eb1b6d)" style="fill: #800080; stroke: #ffffff; stroke-linejoin: miter"/>
   </g>
   <g id="patch_5">
    <path d="M 110.504024 86.92 
L 115.094589 86.92 
L 115.094589 40.36352 
L 110.504024 40.36352 
z
" clip-path="url(#p48c1eb1b6d)" style="fill: #800080; stroke: #ffffff; stroke-linejoin: miter"/>
   </g>
   <g id="patch_6">
    <path d="M 115.094589 86.92 
L 119.685154 86.92 
L 119.685154 41.32016 
L 115.094589 41.32016 
z
" clip-path="url(#p48c1eb1b6d)" style="fill: #800080; stroke: #ffffff; stroke-linejoin: miter"/>
   </g>
   <g id="patch_7">
    <path d="M 119.685154 86.92 
L 124.275719 86.92 
L 124.275719 55.98864 
L 119.685154 55.98864 
z
" clip-path="url(#p48c1eb1b6d)" style="fill: #800080; stroke: #ffffff; stroke-linejoin: miter"/>
   </g>
   <g id="patch_8">
    <path d="M 124.275719 86.92 
L 128.866284 86.92 
L 128.866284 65.55504 
L 124.275719 65.55504 
z
" clip-path="url(#p48c1eb1b6d)" style="fill: #800080; stroke: #ffffff; stroke-linejoin: miter"/>
   </g>
   <g id="patch_9">
    <path d="M 128.866284 86.92 
L 133.456849 86.92 
L 133.456849 68.42496 
L 128.866284 68.42496 
z
" clip-path="url(#p48c1eb1b6d)" style="fill: #800080; stroke: #ffffff; stroke-linejoin: miter"/>
   </g>
   <g id="patch_10">
    <path d="M 133.456849 86.92 
L 138.047415 86.92 
L 138.047415 56.30752 
L 133.456849 56.30752 
z
" clip-path="url(#p48c1eb1b6d)" style="fill: #800080; stroke: #ffffff; stroke-linejoin: miter"/>
   </g>
   <g id="patch_11">
    <path d="M 138.047415 86.92 
L 142.63798 86.92 
L 142.63798 73.84592 
L 138.047415 73.84592 
z
" clip-path="url(#p48c1eb1b6d)" style="fill: #800080; stroke: #ffffff; stroke-linejoin: miter"/>
   </g>
   <g id="patch_12">
    <path d="M 142.63798 86.92 
L 147.228545 86.92 
L 147.228545 86.92 
L 142.63798 86.92 
z
" clip-path="url(#p48c1eb1b6d)" style="fill: #800080; stroke: #ffffff; stroke-linejoin: miter"/>
   </g>
   <g id="patch_13">
    <path d="M 147.228545 86.92 
L 151.81911 86.92 
L 151.81911 86.92 
L 147.228545 86.92 
z
" clip-path="url(#p48c1eb1b6d)" style="fill: #800080; stroke: #ffffff; stroke-linejoin: miter"/>
   </g>
   <g id="patch_14">
    <path d="M 151.81911 86.92 
L 156.409675 86.92 
L 156.409675 86.92 
L 151.81911 86.92 
z
" clip-path="url(#p48c1eb1b6d)" style="fill: #800080; stroke: #ffffff; stroke-linejoin: miter"/>
   </g>
   <g id="patch_15">
    <path d="M 156.409675 86.92 
L 161.00024 86.92 
L 161.00024 86.92 
L 156.409675 86.92 
z
" clip-path="url(#p48c1eb1b6d)" style="fill: #800080; stroke: #ffffff; stroke-linejoin: miter"/>
   </g>
   <g id="patch_16">
    <path d="M 161.00024 86.92 
L 165.590805 86.92 
L 165.590805 86.92 
L 161.00024 86.92 
z
" clip-path="url(#p48c1eb1b6d)" style="fill: #800080; stroke: #ffffff; stroke-linejoin: miter"/>
   </g>
   <g id="patch_17">
    <path d="M 165.590805 86.92 
L 170.181371 86.92 
L 170.181371 86.60112 
L 165.590805 86.60112 
z
" clip-path="url(#p48c1eb1b6d)" style="fill: #800080; stroke: #ffffff; stroke-linejoin: miter"/>
   </g>
   <g id="patch_18">
    <path d="M 62.59 86.92 
L 67.888875 86.92 
L 67.888875 61.4096 
L 62.59 61.4096 
z
" clip-path="url(#p48c1eb1b6d)" style="fill: #008000; stroke: #ffffff; stroke-linejoin: miter"/>
   </g>
   <g id="patch_19">
    <path d="M 67.888875 86.92 
L 73.18775 86.92 
L 73.18775 19.63632 
L 67.888875 19.63632 
z
" clip-path="url(#p48c1eb1b6d)" style="fill: #008000; stroke: #ffffff; stroke-linejoin: miter"/>
   </g>
   <g id="patch_20">
    <path d="M 73.18775 86.92 
L 78.486625 86.92 
L 78.486625 64.91728 
L 73.18775 64.91728 
z
" clip-path="url(#p48c1eb1b6d)" style="fill: #008000; stroke: #ffffff; stroke-linejoin: miter"/>
   </g>
   <g id="patch_21">
    <path d="M 78.486625 86.92 
L 83.7855 86.92 
L 83.7855 64.5984 
L 78.486625 64.5984 
z
" clip-path="url(#p48c1eb1b6d)" style="fill: #008000; stroke: #ffffff; stroke-linejoin: miter"/>
   </g>
   <g id="patch_22">
    <path d="M 83.7855 86.92 
L 89.084375 86.92 
L 89.084375 72.88928 
L 83.7855 72.88928 
z
" clip-path="url(#p48c1eb1b6d)" style="fill: #008000; stroke: #ffffff; stroke-linejoin: miter"/>
   </g>
   <g id="patch_23">
    <path d="M 89.084375 86.92 
L 94.38325 86.92 
L 94.38325 63.32288 
L 89.084375 63.32288 
z
" clip-path="url(#p48c1eb1b6d)" style="fill: #008000; stroke: #ffffff; stroke-linejoin: miter"/>
   </g>
   <g id="patch_24">
    <path d="M 94.38325 86.92 
L 99.682125 86.92 
L 99.682125 73.52704 
L 94.38325 73.52704 
z
" clip-path="url(#p48c1eb1b6d)" style="fill: #008000; stroke: #ffffff; stroke-linejoin: miter"/>
   </g>
   <g id="patch_25">
    <path d="M 99.682125 86.92 
L 104.981 86.92 
L 104.981 79.26688 
L 99.682125 79.26688 
z
" clip-path="url(#p48c1eb1b6d)" style="fill: #008000; stroke: #ffffff; stroke-linejoin: miter"/>
   </g>
   <g id="patch_26">
    <path d="M 104.981 86.92 
L 110.279875 86.92 
L 110.279875 81.18016 
L 104.981 81.18016 
z
" clip-path="url(#p48c1eb1b6d)" style="fill: #008000; stroke: #ffffff; stroke-linejoin: miter"/>
   </g>
   <g id="patch_27">
    <path d="M 110.279875 86.92 
L 115.57875 86.92 
L 115.57875 71.29488 
L 110.279875 71.29488 
z
" clip-path="url(#p48c1eb1b6d)" style="fill: #008000; stroke: #ffffff; stroke-linejoin: miter"/>
   </g>
   <g id="patch_28">
    <path d="M 115.57875 86.92 
L 120.877625 86.92 
L 120.877625 81.18016 
L 115.57875 81.18016 
z
" clip-path="url(#p48c1eb1b6d)" style="fill: #008000; stroke: #ffffff; stroke-linejoin: miter"/>
   </g>
   <g id="patch_29">
    <path d="M 120.877625 86.92 
L 126.1765 86.92 
L 126.1765 78.948 
L 120.877625 78.948 
z
" clip-path="url(#p48c1eb1b6d)" style="fill: #008000; stroke: #ffffff; stroke-linejoin: miter"/>
   </g>
   <g id="patch_30">
    <path d="M 126.1765 86.92 
L 131.475375 86.92 
L 131.475375 80.22352 
L 126.1765 80.22352 
z
" clip-path="url(#p48c1eb1b6d)" style="fill: #008000; stroke: #ffffff; stroke-linejoin: miter"/>
   </g>
   <g id="patch_31">
    <path d="M 131.475375 86.92 
L 136.77425 86.92 
L 136.77425 82.1368 
L 131.475375 82.1368 
z
" clip-path="url(#p48c1eb1b6d)" style="fill: #008000; stroke: #ffffff; stroke-linejoin: miter"/>
   </g>
   <g id="patch_32">
    <path d="M 136.77425 86.92 
L 142.073125 86.92 
L 142.073125 80.5424 
L 136.77425 80.5424 
z
" clip-path="url(#p48c1eb1b6d)" style="fill: #008000; stroke: #ffffff; stroke-linejoin: miter"/>
   </g>
   <g id="patch_33">
    <path d="M 142.073125 86.92 
L 147.372 86.92 
L 147.372 83.41232 
L 142.073125 83.41232 
z
" clip-path="url(#p48c1eb1b6d)" style="fill: #008000; stroke: #ffffff; stroke-linejoin: miter"/>
   </g>
   <g id="patch_34">
    <path d="M 147.372 86.92 
L 152.670875 86.92 
L 152.670875 83.7312 
L 147.372 83.7312 
z
" clip-path="url(#p48c1eb1b6d)" style="fill: #008000; stroke: #ffffff; stroke-linejoin: miter"/>
   </g>
   <g id="patch_35">
    <path d="M 152.670875 86.92 
L 157.96975 86.92 
L 157.96975 85.00672 
L 152.670875 85.00672 
z
" clip-path="url(#p48c1eb1b6d)" style="fill: #008000; stroke: #ffffff; stroke-linejoin: miter"/>
   </g>
   <g id="patch_36">
    <path d="M 157.96975 86.92 
L 163.268625 86.92 
L 163.268625 76.71584 
L 157.96975 76.71584 
z
" clip-path="url(#p48c1eb1b6d)" style="fill: #008000; stroke: #ffffff; stroke-linejoin: miter"/>
   </g>
   <g id="patch_37">
    <path d="M 163.268625 86.92 
L 168.5675 86.92 
L 168.5675 84.68784 
L 163.268625 84.68784 
z
" clip-path="url(#p48c1eb1b6d)" style="fill: #008000; stroke: #ffffff; stroke-linejoin: miter"/>
   </g>
   <g id="patch_38">
    <path d="M 168.5675 86.92 
L 173.866375 86.92 
L 173.866375 83.7312 
L 168.5675 83.7312 
z
" clip-path="url(#p48c1eb1b6d)" style="fill: #008000; stroke: #ffffff; stroke-linejoin: miter"/>
   </g>
   <g id="patch_39">
    <path d="M 173.866375 86.92 
L 179.16525 86.92 
L 179.16525 84.68784 
L 173.866375 84.68784 
z
" clip-path="url(#p48c1eb1b6d)" style="fill: #008000; stroke: #ffffff; stroke-linejoin: miter"/>
   </g>
   <g id="patch_40">
    <path d="M 179.16525 86.92 
L 184.464125 86.92 
L 184.464125 82.77456 
L 179.16525 82.77456 
z
" clip-path="url(#p48c1eb1b6d)" style="fill: #008000; stroke: #ffffff; stroke-linejoin: miter"/>
   </g>
   <g id="patch_41">
    <path d="M 184.464125 86.92 
L 189.763 86.92 
L 189.763 84.68784 
L 184.464125 84.68784 
z
" clip-path="url(#p48c1eb1b6d)" style="fill: #008000; stroke: #ffffff; stroke-linejoin: miter"/>
   </g>
   <g id="patch_42">
    <path d="M 189.763 86.92 
L 195.061875 86.92 
L 195.061875 84.05008 
L 189.763 84.05008 
z
" clip-path="url(#p48c1eb1b6d)" style="fill: #008000; stroke: #ffffff; stroke-linejoin: miter"/>
   </g>
   <g id="patch_43">
    <path d="M 195.061875 86.92 
L 200.36075 86.92 
L 200.36075 84.68784 
L 195.061875 84.68784 
z
" clip-path="url(#p48c1eb1b6d)" style="fill: #008000; stroke: #ffffff; stroke-linejoin: miter"/>
   </g>
   <g id="patch_44">
    <path d="M 200.36075 86.92 
L 205.659625 86.92 
L 205.659625 86.28224 
L 200.36075 86.28224 
z
" clip-path="url(#p48c1eb1b6d)" style="fill: #008000; stroke: #ffffff; stroke-linejoin: miter"/>
   </g>
   <g id="patch_45">
    <path d="M 205.659625 86.92 
L 210.9585 86.92 
L 210.9585 84.05008 
L 205.659625 84.05008 
z
" clip-path="url(#p48c1eb1b6d)" style="fill: #008000; stroke: #ffffff; stroke-linejoin: miter"/>
   </g>
   <g id="patch_46">
    <path d="M 210.9585 86.92 
L 216.257375 86.92 
L 216.257375 85.00672 
L 210.9585 85.00672 
z
" clip-path="url(#p48c1eb1b6d)" style="fill: #008000; stroke: #ffffff; stroke-linejoin: miter"/>
   </g>
   <g id="patch_47">
    <path d="M 216.257375 86.92 
L 221.55625 86.92 
L 221.55625 85.96336 
L 216.257375 85.96336 
z
" clip-path="url(#p48c1eb1b6d)" style="fill: #008000; stroke: #ffffff; stroke-linejoin: miter"/>
   </g>
   <g id="patch_48">
    <path d="M 221.55625 86.92 
L 226.855125 86.92 
L 226.855125 85.96336 
L 221.55625 85.96336 
z
" clip-path="url(#p48c1eb1b6d)" style="fill: #008000; stroke: #ffffff; stroke-linejoin: miter"/>
   </g>
   <g id="patch_49">
    <path d="M 226.855125 86.92 
L 232.154 86.92 
L 232.154 84.68784 
L 226.855125 84.68784 
z
" clip-path="url(#p48c1eb1b6d)" style="fill: #008000; stroke: #ffffff; stroke-linejoin: miter"/>
   </g>
   <g id="patch_50">
    <path d="M 232.154 86.92 
L 237.452875 86.92 
L 237.452875 86.60112 
L 232.154 86.60112 
z
" clip-path="url(#p48c1eb1b6d)" style="fill: #008000; stroke: #ffffff; stroke-linejoin: miter"/>
   </g>
   <g id="patch_51">
    <path d="M 237.452875 86.92 
L 242.75175 86.92 
L 242.75175 85.96336 
L 237.452875 85.96336 
z
" clip-path="url(#p48c1eb1b6d)" style="fill: #008000; stroke: #ffffff; stroke-linejoin: miter"/>
   </g>
   <g id="patch_52">
    <path d="M 242.75175 86.92 
L 248.050625 86.92 
L 248.050625 85.64448 
L 242.75175 85.64448 
z
" clip-path="url(#p48c1eb1b6d)" style="fill: #008000; stroke: #ffffff; stroke-linejoin: miter"/>
   </g>
   <g id="patch_53">
    <path d="M 248.050625 86.92 
L 253.3495 86.92 
L 253.3495 84.68784 
L 248.050625 84.68784 
z
" clip-path="url(#p48c1eb1b6d)" style="fill: #008000; stroke: #ffffff; stroke-linejoin: miter"/>
   </g>
   <g id="patch_54">
    <path d="M 253.3495 86.92 
L 258.648375 86.92 
L 258.648375 86.60112 
L 253.3495 86.60112 
z
" clip-path="url(#p48c1eb1b6d)" style="fill: #008000; stroke: #ffffff; stroke-linejoin: miter"/>
   </g>
   <g id="patch_55">
    <path d="M 258.648375 86.92 
L 263.94725 86.92 
L 263.94725 86.28224 
L 258.648375 86.28224 
z
" clip-path="url(#p48c1eb1b6d)" style="fill: #008000; stroke: #ffffff; stroke-linejoin: miter"/>
   </g>
   <g id="patch_56">
    <path d="M 263.94725 86.92 
L 269.246125 86.92 
L 269.246125 86.28224 
L 263.94725 86.28224 
z
" clip-path="url(#p48c1eb1b6d)" style="fill: #008000; stroke: #ffffff; stroke-linejoin: miter"/>
   </g>
   <g id="patch_57">
    <path d="M 269.246125 86.92 
L 274.545 86.92 
L 274.545 85.96336 
L 269.246125 85.96336 
z
" clip-path="url(#p48c1eb1b6d)" style="fill: #008000; stroke: #ffffff; stroke-linejoin: miter"/>
   </g>
   <g id="patch_58">
    <path d="M 274.545 86.92 
L 279.843875 86.92 
L 279.843875 85.3256 
L 274.545 85.3256 
z
" clip-path="url(#p48c1eb1b6d)" style="fill: #008000; stroke: #ffffff; stroke-linejoin: miter"/>
   </g>
   <g id="patch_59">
    <path d="M 279.843875 86.92 
L 285.14275 86.92 
L 285.14275 86.60112 
L 279.843875 86.60112 
z
" clip-path="url(#p48c1eb1b6d)" style="fill: #008000; stroke: #ffffff; stroke-linejoin: miter"/>
   </g>
   <g id="patch_60">
    <path d="M 285.14275 86.92 
L 290.441625 86.92 
L 290.441625 85.96336 
L 285.14275 85.96336 
z
" clip-path="url(#p48c1eb1b6d)" style="fill: #008000; stroke: #ffffff; stroke-linejoin: miter"/>
   </g>
   <g id="patch_61">
    <path d="M 290.441625 86.92 
L 295.7405 86.92 
L 295.7405 85.96336 
L 290.441625 85.96336 
z
" clip-path="url(#p48c1eb1b6d)" style="fill: #008000; stroke: #ffffff; stroke-linejoin: miter"/>
   </g>
   <g id="patch_62">
    <path d="M 295.7405 86.92 
L 301.039375 86.92 
L 301.039375 86.28224 
L 295.7405 86.28224 
z
" clip-path="url(#p48c1eb1b6d)" style="fill: #008000; stroke: #ffffff; stroke-linejoin: miter"/>
   </g>
   <g id="patch_63">
    <path d="M 301.039375 86.92 
L 306.33825 86.92 
L 306.33825 86.60112 
L 301.039375 86.60112 
z
" clip-path="url(#p48c1eb1b6d)" style="fill: #008000; stroke: #ffffff; stroke-linejoin: miter"/>
   </g>
   <g id="patch_64">
    <path d="M 306.33825 86.92 
L 311.637125 86.92 
L 311.637125 86.60112 
L 306.33825 86.60112 
z
" clip-path="url(#p48c1eb1b6d)" style="fill: #008000; stroke: #ffffff; stroke-linejoin: miter"/>
   </g>
   <g id="patch_65">
    <path d="M 311.637125 86.92 
L 316.936 86.92 
L 316.936 86.60112 
L 311.637125 86.60112 
z
" clip-path="url(#p48c1eb1b6d)" style="fill: #008000; stroke: #ffffff; stroke-linejoin: miter"/>
   </g>
   <g id="patch_66">
    <path d="M 316.936 86.92 
L 322.234875 86.92 
L 322.234875 85.64448 
L 316.936 85.64448 
z
" clip-path="url(#p48c1eb1b6d)" style="fill: #008000; stroke: #ffffff; stroke-linejoin: miter"/>
   </g>
   <g id="patch_67">
    <path d="M 322.234875 86.92 
L 327.53375 86.92 
L 327.53375 85.64448 
L 322.234875 85.64448 
z
" clip-path="url(#p48c1eb1b6d)" style="fill: #008000; stroke: #ffffff; stroke-linejoin: miter"/>
   </g>
   <g id="patch_68">
    <path d="M 327.53375 86.92 
L 332.832625 86.92 
L 332.832625 86.92 
L 327.53375 86.92 
z
" clip-path="url(#p48c1eb1b6d)" style="fill: #008000; stroke: #ffffff; stroke-linejoin: miter"/>
   </g>
   <g id="patch_69">
    <path d="M 332.832625 86.92 
L 338.1315 86.92 
L 338.1315 86.92 
L 332.832625 86.92 
z
" clip-path="url(#p48c1eb1b6d)" style="fill: #008000; stroke: #ffffff; stroke-linejoin: miter"/>
   </g>
   <g id="patch_70">
    <path d="M 338.1315 86.92 
L 343.430375 86.92 
L 343.430375 85.96336 
L 338.1315 85.96336 
z
" clip-path="url(#p48c1eb1b6d)" style="fill: #008000; stroke: #ffffff; stroke-linejoin: miter"/>
   </g>
   <g id="patch_71">
    <path d="M 343.430375 86.92 
L 348.72925 86.92 
L 348.72925 86.60112 
L 343.430375 86.60112 
z
" clip-path="url(#p48c1eb1b6d)" style="fill: #008000; stroke: #ffffff; stroke-linejoin: miter"/>
   </g>
   <g id="patch_72">
    <path d="M 348.72925 86.92 
L 354.028125 86.92 
L 354.028125 86.60112 
L 348.72925 86.60112 
z
" clip-path="url(#p48c1eb1b6d)" style="fill: #008000; stroke: #ffffff; stroke-linejoin: miter"/>
   </g>
   <g id="patch_73">
    <path d="M 354.028125 86.92 
L 359.327 86.92 
L 359.327 86.60112 
L 354.028125 86.60112 
z
" clip-path="url(#p48c1eb1b6d)" style="fill: #008000; stroke: #ffffff; stroke-linejoin: miter"/>
   </g>
   <g id="patch_74">
    <path d="M 359.327 86.92 
L 364.625875 86.92 
L 364.625875 86.28224 
L 359.327 86.28224 
z
" clip-path="url(#p48c1eb1b6d)" style="fill: #008000; stroke: #ffffff; stroke-linejoin: miter"/>
   </g>
   <g id="patch_75">
    <path d="M 364.625875 86.92 
L 369.92475 86.92 
L 369.92475 86.60112 
L 364.625875 86.60112 
z
" clip-path="url(#p48c1eb1b6d)" style="fill: #008000; stroke: #ffffff; stroke-linejoin: miter"/>
   </g>
   <g id="patch_76">
    <path d="M 369.92475 86.92 
L 375.223625 86.92 
L 375.223625 86.60112 
L 369.92475 86.60112 
z
" clip-path="url(#p48c1eb1b6d)" style="fill: #008000; stroke: #ffffff; stroke-linejoin: miter"/>
   </g>
   <g id="patch_77">
    <path d="M 375.223625 86.92 
L 380.5225 86.92 
L 380.5225 86.28224 
L 375.223625 86.28224 
z
" clip-path="url(#p48c1eb1b6d)" style="fill: #008000; stroke: #ffffff; stroke-linejoin: miter"/>
   </g>
   <g id="patch_78">
    <path d="M 380.5225 86.92 
L 385.821375 86.92 
L 385.821375 86.92 
L 380.5225 86.92 
z
" clip-path="url(#p48c1eb1b6d)" style="fill: #008000; stroke: #ffffff; stroke-linejoin: miter"/>
   </g>
   <g id="patch_79">
    <path d="M 385.821375 86.92 
L 391.12025 86.92 
L 391.12025 86.92 
L 385.821375 86.92 
z
" clip-path="url(#p48c1eb1b6d)" style="fill: #008000; stroke: #ffffff; stroke-linejoin: miter"/>
   </g>
   <g id="patch_80">
    <path d="M 391.12025 86.92 
L 396.419125 86.92 
L 396.419125 86.28224 
L 391.12025 86.28224 
z
" clip-path="url(#p48c1eb1b6d)" style="fill: #008000; stroke: #ffffff; stroke-linejoin: miter"/>
   </g>
   <g id="patch_81">
    <path d="M 396.419125 86.92 
L 401.718 86.92 
L 401.718 86.92 
L 396.419125 86.92 
z
" clip-path="url(#p48c1eb1b6d)" style="fill: #008000; stroke: #ffffff; stroke-linejoin: miter"/>
   </g>
   <g id="patch_82">
    <path d="M 401.718 86.92 
L 407.016875 86.92 
L 407.016875 86.28224 
L 401.718 86.28224 
z
" clip-path="url(#p48c1eb1b6d)" style="fill: #008000; stroke: #ffffff; stroke-linejoin: miter"/>
   </g>
   <g id="patch_83">
    <path d="M 407.016875 86.92 
L 412.31575 86.92 
L 412.31575 86.92 
L 407.016875 86.92 
z
" clip-path="url(#p48c1eb1b6d)" style="fill: #008000; stroke: #ffffff; stroke-linejoin: miter"/>
   </g>
   <g id="patch_84">
    <path d="M 412.31575 86.92 
L 417.614625 86.92 
L 417.614625 86.92 
L 412.31575 86.92 
z
" clip-path="url(#p48c1eb1b6d)" style="fill: #008000; stroke: #ffffff; stroke-linejoin: miter"/>
   </g>
   <g id="patch_85">
    <path d="M 417.614625 86.92 
L 422.9135 86.92 
L 422.9135 86.28224 
L 417.614625 86.28224 
z
" clip-path="url(#p48c1eb1b6d)" style="fill: #008000; stroke: #ffffff; stroke-linejoin: miter"/>
   </g>
   <g id="patch_86">
    <path d="M 422.9135 86.92 
L 428.212375 86.92 
L 428.212375 86.60112 
L 422.9135 86.60112 
z
" clip-path="url(#p48c1eb1b6d)" style="fill: #008000; stroke: #ffffff; stroke-linejoin: miter"/>
   </g>
   <g id="patch_87">
    <path d="M 428.212375 86.92 
L 433.51125 86.92 
L 433.51125 86.92 
L 428.212375 86.92 
z
" clip-path="url(#p48c1eb1b6d)" style="fill: #008000; stroke: #ffffff; stroke-linejoin: miter"/>
   </g>
   <g id="patch_88">
    <path d="M 433.51125 86.92 
L 438.810125 86.92 
L 438.810125 86.60112 
L 433.51125 86.60112 
z
" clip-path="url(#p48c1eb1b6d)" style="fill: #008000; stroke: #ffffff; stroke-linejoin: miter"/>
   </g>
   <g id="patch_89">
    <path d="M 438.810125 86.92 
L 444.109 86.92 
L 444.109 86.60112 
L 438.810125 86.60112 
z
" clip-path="url(#p48c1eb1b6d)" style="fill: #008000; stroke: #ffffff; stroke-linejoin: miter"/>
   </g>
   <g id="patch_90">
    <path d="M 444.109 86.92 
L 449.407875 86.92 
L 449.407875 86.92 
L 444.109 86.92 
z
" clip-path="url(#p48c1eb1b6d)" style="fill: #008000; stroke: #ffffff; stroke-linejoin: miter"/>
   </g>
   <g id="patch_91">
    <path d="M 449.407875 86.92 
L 454.70675 86.92 
L 454.70675 86.92 
L 449.407875 86.92 
z
" clip-path="url(#p48c1eb1b6d)" style="fill: #008000; stroke: #ffffff; stroke-linejoin: miter"/>
   </g>
   <g id="patch_92">
    <path d="M 454.70675 86.92 
L 460.005625 86.92 
L 460.005625 86.92 
L 454.70675 86.92 
z
" clip-path="url(#p48c1eb1b6d)" style="fill: #008000; stroke: #ffffff; stroke-linejoin: miter"/>
   </g>
   <g id="patch_93">
    <path d="M 460.005625 86.92 
L 465.3045 86.92 
L 465.3045 86.60112 
L 460.005625 86.60112 
z
" clip-path="url(#p48c1eb1b6d)" style="fill: #008000; stroke: #ffffff; stroke-linejoin: miter"/>
   </g>
   <g id="patch_94">
    <path d="M 465.3045 86.92 
L 470.603375 86.92 
L 470.603375 86.92 
L 465.3045 86.92 
z
" clip-path="url(#p48c1eb1b6d)" style="fill: #008000; stroke: #ffffff; stroke-linejoin: miter"/>
   </g>
   <g id="patch_95">
    <path d="M 470.603375 86.92 
L 475.90225 86.92 
L 475.90225 86.60112 
L 470.603375 86.60112 
z
" clip-path="url(#p48c1eb1b6d)" style="fill: #008000; stroke: #ffffff; stroke-linejoin: miter"/>
   </g>
   <g id="patch_96">
    <path d="M 475.90225 86.92 
L 481.201125 86.92 
L 481.201125 86.92 
L 475.90225 86.92 
z
" clip-path="url(#p48c1eb1b6d)" style="fill: #008000; stroke: #ffffff; stroke-linejoin: miter"/>
   </g>
   <g id="patch_97">
    <path d="M 481.201125 86.92 
L 486.5 86.92 
L 486.5 86.60112 
L 481.201125 86.60112 
z
" clip-path="url(#p48c1eb1b6d)" style="fill: #008000; stroke: #ffffff; stroke-linejoin: miter"/>
   </g>
   <g id="patch_98">
    <path d="M 62.59 86.92 
L 62.59 7.2 
" style="fill: none; stroke: #cccccc; stroke-width: 0.8; stroke-linejoin: miter; stroke-linecap: square"/>
   </g>
   <g id="patch_99">
    <path d="M 486.5 86.92 
L 486.5 7.2 
" style="fill: none; stroke: #cccccc; stroke-width: 0.8; stroke-linejoin: miter; stroke-linecap: square"/>
   </g>
   <g id="patch_100">
    <path d="M 62.59 86.92 
L 486.5 86.92 
" style="fill: none; stroke: #cccccc; stroke-width: 0.8; stroke-linejoin: miter; stroke-linecap: square"/>
   </g>
   <g id="patch_101">
    <path d="M 62.59 7.2 
L 486.5 7.2 
" style="fill: none; stroke: #cccccc; stroke-width: 0.8; stroke-linejoin: miter; stroke-linecap: square"/>
   </g>
   <g id="legend_1">
    <g id="patch_102">
     <path d="M 412.98125 69.64125 
L 478.1 69.64125 
Q 480.5 69.64125 480.5 67.24125 
L 480.5 15.6 
Q 480.5 13.2 478.1 13.2 
L 412.98125 13.2 
Q 410.58125 13.2 410.58125 15.6 
L 410.58125 67.24125 
Q 410.58125 69.64125 412.98125 69.64125 
z
" style="fill: #ffffff; opacity: 0.8; stroke: #cccccc; stroke-linejoin: miter"/>
    </g>
    <g id="text_14">
     <!-- median -->
     <g style="fill: #262626" transform="translate(423.049062 27.118125) scale(0.12 -0.12)">
      <defs>
       <path id="DejaVuSans-6d" d="M 3328 2828 
Q 3544 3216 3844 3400 
Q 4144 3584 4550 3584 
Q 5097 3584 5394 3201 
Q 5691 2819 5691 2113 
L 5691 0 
L 5113 0 
L 5113 2094 
Q 5113 2597 4934 2840 
Q 4756 3084 4391 3084 
Q 3944 3084 3684 2787 
Q 3425 2491 3425 1978 
L 3425 0 
L 2847 0 
L 2847 2094 
Q 2847 2600 2669 2842 
Q 2491 3084 2119 3084 
Q 1678 3084 1418 2786 
Q 1159 2488 1159 1978 
L 1159 0 
L 581 0 
L 581 3500 
L 1159 3500 
L 1159 2956 
Q 1356 3278 1631 3431 
Q 1906 3584 2284 3584 
Q 2666 3584 2933 3390 
Q 3200 3197 3328 2828 
z
" transform="scale(0.015625)"/>
      </defs>
      <use xlink:href="#DejaVuSans-6d"/>
      <use xlink:href="#DejaVuSans-65" x="97.412109"/>
      <use xlink:href="#DejaVuSans-64" x="158.935547"/>
      <use xlink:href="#DejaVuSans-69" x="222.412109"/>
      <use xlink:href="#DejaVuSans-61" x="250.195312"/>
      <use xlink:href="#DejaVuSans-6e" x="311.474609"/>
     </g>
    </g>
    <g id="patch_103">
     <path d="M 415.38125 44.731875 
L 439.38125 44.731875 
L 439.38125 36.331875 
L 415.38125 36.331875 
z
" style="fill: #800080; stroke: #ffffff; stroke-linejoin: miter"/>
    </g>
    <g id="text_15">
     <!-- 49.0 -->
     <g style="fill: #262626" transform="translate(448.98125 44.731875) scale(0.12 -0.12)">
      <defs>
       <path id="DejaVuSans-34" d="M 2419 4116 
L 825 1625 
L 2419 1625 
L 2419 4116 
z
M 2253 4666 
L 3047 4666 
L 3047 1625 
L 3713 1625 
L 3713 1100 
L 3047 1100 
L 3047 0 
L 2419 0 
L 2419 1100 
L 313 1100 
L 313 1709 
L 2253 4666 
z
" transform="scale(0.015625)"/>
       <path id="DejaVuSans-39" d="M 703 97 
L 703 672 
Q 941 559 1184 500 
Q 1428 441 1663 441 
Q 2288 441 2617 861 
Q 2947 1281 2994 2138 
Q 2813 1869 2534 1725 
Q 2256 1581 1919 1581 
Q 1219 1581 811 2004 
Q 403 2428 403 3163 
Q 403 3881 828 4315 
Q 1253 4750 1959 4750 
Q 2769 4750 3195 4129 
Q 3622 3509 3622 2328 
Q 3622 1225 3098 567 
Q 2575 -91 1691 -91 
Q 1453 -91 1209 -44 
Q 966 3 703 97 
z
M 1959 2075 
Q 2384 2075 2632 2365 
Q 2881 2656 2881 3163 
Q 2881 3666 2632 3958 
Q 2384 4250 1959 4250 
Q 1534 4250 1286 3958 
Q 1038 3666 1038 3163 
Q 1038 2656 1286 2365 
Q 1534 2075 1959 2075 
z
" transform="scale(0.015625)"/>
       <path id="DejaVuSans-2e" d="M 684 794 
L 1344 794 
L 1344 0 
L 684 0 
L 684 794 
z
" transform="scale(0.015625)"/>
      </defs>
      <use xlink:href="#DejaVuSans-34"/>
      <use xlink:href="#DejaVuSans-39" x="63.623047"/>
      <use xlink:href="#DejaVuSans-2e" x="127.246094"/>
      <use xlink:href="#DejaVuSans-30" x="159.033203"/>
     </g>
    </g>
    <g id="patch_104">
     <path d="M 415.38125 62.345625 
L 439.38125 62.345625 
L 439.38125 53.945625 
L 415.38125 53.945625 
z
" style="fill: #008000; stroke: #ffffff; stroke-linejoin: miter"/>
    </g>
    <g id="text_16">
     <!-- 25.0 -->
     <g style="fill: #262626" transform="translate(448.98125 62.345625) scale(0.12 -0.12)">
      <use xlink:href="#DejaVuSans-32"/>
      <use xlink:href="#DejaVuSans-35" x="63.623047"/>
      <use xlink:href="#DejaVuSans-2e" x="127.246094"/>
      <use xlink:href="#DejaVuSans-30" x="159.033203"/>
     </g>
    </g>
   </g>
  </g>
 </g>
 <defs>
  <clipPath id="p48c1eb1b6d">
   <rect x="62.59" y="7.2" width="423.91" height="79.72"/>
  </clipPath>
 </defs>
</svg>
